<svg width="40" height="40" viewBox="0 0 40 40" fill="none" xmlns="http://www.w3.org/2000/svg">
<g clip-path="url(#clip0_1_256)">
<path d="M28.6957 1.98452C26.0663 0.713117 23.1165 -7.62939e-06 20.0001 -7.62939e-06C16.8837 -7.62939e-06 13.9338 0.713117 11.3044 1.98452L9.56531 20L11.3044 38.0155C13.9338 39.2869 16.8837 40 20.0001 40C23.1165 40 26.0663 39.2869 28.6957 38.0155L30.4348 20L28.6957 1.98452Z" fill="#D80027"/>
<path d="M19.9998 13.0435L21.7264 18.3575H27.3145L22.7939 21.6421L24.5205 26.9564L19.9998 23.672L15.4791 26.9564L17.206 21.6421L12.6854 18.3575H18.2732L19.9998 13.0435Z" fill="#FFDA44"/>
<path d="M11.3044 1.98522C4.61453 5.22007 0 12.0708 0 20C0 27.9292 4.61453 34.7799 11.3044 38.0147V1.98522Z" fill="#496E2D"/>
<path d="M28.6956 1.98522V38.0147C35.3854 34.7799 39.9999 27.9291 39.9999 20C39.9999 12.0708 35.3854 5.22007 28.6956 1.98522Z" fill="#FFDA44"/>
</g>
<defs>
<clipPath id="clip0_1_256">
<rect width="40" height="40" fill="white"/>
</clipPath>
</defs>
</svg>
