<svg width="40" height="40" viewBox="0 0 40 40" fill="none" xmlns="http://www.w3.org/2000/svg">
<g clip-path="url(#clip0_1_284)">
<path d="M20 -3.05176e-05C17.5536 -3.05176e-05 15.2101 0.440048 13.0436 1.24395L12.174 20L13.0435 38.756C15.2101 39.56 17.5536 40 20 40C22.4464 40 24.79 39.56 26.9565 38.756L27.8261 20L26.9566 1.24395C24.79 0.440048 22.4464 -3.05176e-05 20 -3.05176e-05V-3.05176e-05Z" fill="#FFDA44"/>
<path d="M40.0001 20C40.0001 11.4007 34.5726 4.06982 26.9565 1.24396V38.7561C34.5726 35.9301 40.0001 28.5993 40.0001 20V20Z" fill="#D80027"/>
<path d="M13.0435 38.756V1.24396C5.4275 4.06982 0 11.4007 0 20C0 28.5993 5.4275 35.9301 13.0435 38.756Z" fill="#0052B4"/>
</g>
<defs>
<clipPath id="clip0_1_284">
<rect width="40" height="40" fill="white"/>
</clipPath>
</defs>
</svg>
