<svg width="40" height="40" viewBox="0 0 40 40" fill="none" xmlns="http://www.w3.org/2000/svg">
<g clip-path="url(#clip0_1_354)">
<path d="M19.9998 40.0001C31.0455 40.0001 39.9998 31.0458 39.9998 20.0001C39.9998 8.95437 31.0455 6.10352e-05 19.9998 6.10352e-05C8.95406 6.10352e-05 -0.000244141 8.95437 -0.000244141 20.0001C-0.000244141 31.0458 8.95406 40.0001 19.9998 40.0001Z" fill="#F0F0F0"/>
<path d="M18.2608 20C18.2608 20 5.86951 34.1449 5.85779 34.1421C9.47701 37.7614 14.4771 40 20 40C31.0456 40 40 31.0456 40 20H18.2608Z" fill="#D80027"/>
<path d="M5.85785 5.85785C-1.95262 13.6683 -1.95262 26.3317 5.85785 34.1422C9.08543 30.9146 12.1896 27.8105 20 20L5.85785 5.85785Z" fill="#0052B4"/>
</g>
<defs>
<clipPath id="clip0_1_354">
<rect width="40" height="40" fill="white"/>
</clipPath>
</defs>
</svg>
