<svg width="40" height="40" viewBox="0 0 40 40" fill="none" xmlns="http://www.w3.org/2000/svg">
<g clip-path="url(#clip0_4_1637)">
<g clip-path="url(#clip1_4_1637)">
<path d="M20.0002 40C31.0459 40 40.0003 31.0457 40.0003 20C40.0003 8.9543 31.0459 0 20.0002 0C8.95455 0 0.000244141 8.9543 0.000244141 20C0.000244141 31.0457 8.95455 40 20.0002 40Z" fill="#FFDA44"/>
<path d="M0.000244141 20C0.000244141 8.95437 8.95462 0 20.0002 0C31.0459 0 40.0003 8.95437 40.0003 20" fill="#338AF3"/>
</g>
<g clip-path="url(#clip2_4_1637)">
<path d="M-10 0H50V40H-10V0Z" fill="#009E60"/>
<path d="M-10 0H30V40H-10V0Z" fill="white"/>
<path d="M-10 0H10V40H-10V0Z" fill="#F77F00"/>
</g>
</g>
<defs>
<clipPath id="clip0_4_1637">
<rect width="40" height="40" rx="20" fill="white"/>
</clipPath>
<clipPath id="clip1_4_1637">
<rect width="40" height="40" rx="20" fill="white"/>
</clipPath>
<clipPath id="clip2_4_1637">
<rect width="60" height="40" fill="white" transform="translate(-10)"/>
</clipPath>
</defs>
</svg>
