<svg width="40" height="40" viewBox="0 0 40 40" fill="none" xmlns="http://www.w3.org/2000/svg">
<g clip-path="url(#clip0_4_1317)">
<g clip-path="url(#clip1_4_1317)">
<path d="M-10 0H50V40H-10V0Z" fill="#3E5EB9"/>
<path d="M-10 7.5H50V32.5H-10V7.5Z" fill="#FFD900"/>
<path d="M-10 10H50V30H-10V10Z" fill="#B10C0C"/>
<path d="M39.2851 15.4277L36.8566 16.2848L39.2851 17.1419L41.7136 16.2848L39.2851 15.4277Z" fill="white" stroke="black" stroke-width="1.512"/>
<path d="M37.6874 16H2.59563C2.42409 16 2.28503 16.1279 2.28503 16.2857C2.28503 16.4435 2.42409 16.5714 2.59563 16.5714H37.6874C37.859 16.5714 37.998 16.4435 37.998 16.2857C37.998 16.1279 37.859 16 37.6874 16Z" fill="#FFD900" stroke="black" stroke-width="1.512"/>
<path d="M37.144 16.5704C37.2867 16.5704 37.4299 16.4275 37.4299 16.2847C37.4299 16.1419 37.2868 15.999 37.1441 15.999M36.858 16.5704C37.0007 16.5704 37.1439 16.4275 37.1439 16.2847C37.1439 16.1419 37.0008 15.999 36.8581 15.999M36.572 16.5704C36.7147 16.5704 36.8579 16.4275 36.8579 16.2847C36.8579 16.1419 36.7148 15.999 36.5721 15.999" fill="#FFD900"/>
<path d="M37.144 16.5704C37.2867 16.5704 37.4299 16.4275 37.4299 16.2847C37.4299 16.1419 37.2868 15.999 37.1441 15.999M36.858 16.5704C37.0007 16.5704 37.1439 16.4275 37.1439 16.2847C37.1439 16.1419 37.0008 15.999 36.8581 15.999M36.572 16.5704C36.7147 16.5704 36.8579 16.4275 36.8579 16.2847C36.8579 16.1419 36.7148 15.999 36.5721 15.999" stroke="black" stroke-width="1.512"/>
<path d="M36.958 17.1426L34.5295 17.9997L36.958 18.8568L39.3865 17.9997L36.958 17.1426Z" fill="white" stroke="black" stroke-width="1.512"/>
<path d="M35.3604 17.7148H0.268608C0.0970685 17.7148 -0.0419922 17.8428 -0.0419922 18.0005C-0.0419922 18.1583 0.0970685 18.2862 0.268608 18.2862H35.3604C35.5319 18.2862 35.671 18.1583 35.671 18.0005C35.671 17.8428 35.5319 17.7148 35.3604 17.7148Z" fill="#FFD900" stroke="black" stroke-width="1.512"/>
<path d="M34.817 18.2853C34.9597 18.2853 35.1029 18.1424 35.1029 17.9996C35.1029 17.8568 34.9598 17.7139 34.8171 17.7139M34.531 18.2853C34.6737 18.2853 34.8169 18.1424 34.8169 17.9996C34.8169 17.8568 34.6738 17.7139 34.5311 17.7139M34.245 18.2853C34.3877 18.2853 34.5309 18.1424 34.5309 17.9996C34.5309 17.8568 34.3878 17.7139 34.2451 17.7139" fill="#FFD900"/>
<path d="M34.817 18.2853C34.9597 18.2853 35.1029 18.1424 35.1029 17.9996C35.1029 17.8568 34.9598 17.7139 34.8171 17.7139M34.531 18.2853C34.6737 18.2853 34.8169 18.1424 34.8169 17.9996C34.8169 17.8568 34.6738 17.7139 34.5311 17.7139M34.245 18.2853C34.3877 18.2853 34.5309 18.1424 34.5309 17.9996C34.5309 17.8568 34.3878 17.7139 34.2451 17.7139" stroke="black" stroke-width="1.512"/>
<path d="M44.1288 19.5713H-3.5964C-3.82968 19.5713 -4.0188 19.7632 -4.0188 19.9998C-4.0188 20.2365 -3.82968 20.4284 -3.5964 20.4284H44.1288C44.3621 20.4284 44.5512 20.2365 44.5512 19.9998C44.5512 19.7632 44.3621 19.5713 44.1288 19.5713Z" fill="#FFD900" stroke="black" stroke-width="1.62"/>
<path d="M34.2854 20C31.4283 22.8569 27.6187 28.5714 19.9994 28.5714C13.3327 28.5714 8.57138 22.8572 5.71338 20C8.57051 17.1426 13.332 11.4287 19.9994 11.4287C27.618 11.4287 31.4274 17.1429 34.2854 20Z" fill="white" stroke="black" stroke-width="1.512"/>
<path d="M19.002 14.4099C19.7622 15.2647 19.1274 15.6095 19.932 15.6655C20.7805 15.7279 20.2995 16.5689 21.0132 16.5982C21.5122 16.62 20.9634 18.6133 21.4437 19.2711C21.933 19.9568 22.3428 19.472 22.3514 19.9673C22.3599 20.4797 21.0197 20.4281 20.9962 22.0063C20.9569 22.9159 19.8652 22.9741 19.8131 23.5595C19.7483 24.1099 21.9638 24.4189 21.9342 24.9117C21.9038 25.4031 19.542 25.3261 19.4392 25.8865C19.3866 26.3898 22.6838 26.8023 22.949 28.2578C22.457 28.4187 21.0571 28.5701 19.9991 28.5709C13.3334 28.5757 8.57111 22.8563 5.71411 19.9993C8.57124 17.142 13.3329 11.4277 20.0001 11.4277C20.0001 11.4277 18.0212 13.2359 19.003 14.4093L19.002 14.4099Z" fill="black"/>
<path d="M11.3929 19.2378V16.9521ZM12.7779 16.9521V19.2378ZM14.1639 16.9521V19.2378Z" fill="black"/>
<path d="M11.3929 19.2378V16.9521M12.7779 16.9521V19.2378M14.1639 16.9521V19.2378" stroke="white" stroke-width="10.3905"/>
<path d="M11.3929 23.0474V20.7617ZM12.7779 20.7617V23.0474ZM14.1639 20.7617V23.0474Z" fill="black"/>
<path d="M11.3929 23.0474V20.7617M12.7779 20.7617V23.0474M14.1639 20.7617V23.0474" stroke="white" stroke-width="10.3905"/>
<path d="M15.549 19.2378V16.9521ZM16.934 16.9521V19.2378ZM18.32 16.9521V19.2378Z" fill="black"/>
<path d="M15.549 19.2378V16.9521M16.934 16.9521V19.2378M18.32 16.9521V19.2378" stroke="white" stroke-width="10.3905"/>
<path d="M15.549 23.0474V20.7617ZM16.934 20.7617V23.0474ZM18.32 20.7617V23.0474Z" fill="black"/>
<path d="M15.549 23.0474V20.7617M16.934 20.7617V23.0474M18.32 20.7617V23.0474" stroke="white" stroke-width="10.3905"/>
<path d="M21.869 19.2378V16.9521ZM23.254 16.9521V19.2378ZM24.64 16.9521V19.2378Z" fill="black"/>
<path d="M21.869 19.2378V16.9521M23.254 16.9521V19.2378M24.64 16.9521V19.2378" stroke="black" stroke-width="10.3905"/>
<path d="M21.869 23.0474V20.7617ZM23.254 20.7617V23.0474ZM24.64 20.7617V23.0474Z" fill="black"/>
<path d="M21.869 23.0474V20.7617M23.254 20.7617V23.0474M24.64 20.7617V23.0474" stroke="black" stroke-width="10.3905"/>
<path d="M26.025 19.2378V16.9521ZM27.41 16.9521V19.2378ZM28.796 16.9521V19.2378Z" fill="black"/>
<path d="M26.025 19.2378V16.9521M27.41 16.9521V19.2378M28.796 16.9521V19.2378" stroke="black" stroke-width="10.3905"/>
<path d="M26.025 23.0474V20.7617ZM27.41 20.7617V23.0474ZM28.796 20.7617V23.0474Z" fill="black"/>
<path d="M26.025 23.0474V20.7617M27.41 20.7617V23.0474M28.796 20.7617V23.0474" stroke="black" stroke-width="10.3905"/>
<path d="M41.1349 19.6602C40.7021 20.4098 41.4671 19.4108 43.3335 20.6658C43.6793 20.8989 43.9815 21.5147 43.9815 21.9417C43.8937 21.883 43.8285 21.7523 43.7319 21.6674C43.5965 21.803 43.8611 22.4251 43.8999 22.719C43.6081 22.5558 43.6361 22.4784 43.5392 22.2778C43.5585 22.5204 43.4891 23.1884 43.6052 23.4458C43.3752 23.38 43.3905 23.195 43.2705 23.1578C43.3521 23.449 43.1993 23.7659 43.2398 24.0933C43.1055 23.9603 42.9623 23.8561 42.8998 23.8024C42.8893 23.9582 42.6413 24.368 42.6357 24.5154C42.5217 24.4465 42.4907 24.3391 42.4717 24.2668C42.33 24.4448 41.8263 25.1026 41.7941 25.3032C41.4059 24.9604 40.4117 24.1256 40.2823 23.6826C40.1679 23.934 40.0023 24.019 39.675 24.2026C39.5457 23.5004 39.0621 22.7111 39.3207 22.1092C39.1374 22.2178 38.9865 22.3266 38.8033 22.4603C38.9769 21.4433 39.862 20.2508 41.1353 19.6602H41.1349Z" fill="#333333" stroke="black" stroke-width="1.2825"/>
<path d="M39.5214 23.3716C39.701 23.0124 39.8666 22.8986 39.9827 22.6672C40.1878 22.2607 40.217 21.9373 40.3958 21.9847C40.5744 22.0321 40.5742 22.1986 40.3428 22.5983C40.1112 22.998 40.0012 23.0834 39.5214 23.3716ZM40.7364 24.2276C40.7132 23.9541 40.7926 23.8399 40.7782 23.6638C40.7535 23.3539 40.6268 23.1412 40.7916 23.1261C40.9564 23.111 41.0334 23.2168 41.0338 23.529C41.0344 23.8414 40.986 23.9234 40.7365 24.2277L40.7364 24.2276ZM41.6584 24.7636C41.5864 24.3818 41.6403 24.2125 41.5942 23.9665C41.514 23.5337 41.3553 23.2488 41.508 23.2092C41.6606 23.1696 41.7529 23.3096 41.8106 23.7486C41.8685 24.1874 41.838 24.308 41.6584 24.7636ZM42.6174 22.0886C42.3922 21.9177 42.2608 21.9062 42.1156 21.7964C41.8598 21.6038 41.7304 21.3974 41.648 21.4998C41.5658 21.6022 41.6242 21.7142 41.8922 21.892C42.1602 22.0698 42.251 22.0838 42.6174 22.0886ZM42.4584 23.3556C42.3397 23.1092 42.2148 23.0466 42.138 22.888C42.0023 22.6094 42.0021 22.3682 41.8549 22.43C41.7077 22.4918 41.6959 22.618 41.8533 22.8878C42.0106 23.1576 42.0931 23.2064 42.4584 23.3556Z" fill="#B3B3B3"/>
<path d="M-1.92173 20.3823C-1.94593 20.164 -1.8992 20.1379 -2.03353 19.9733C-1.838 20.0551 -1.8306 20.2725 -1.59286 20.1182C-1.5056 20.073 -1.46753 20.0716 -1.5736 19.8291C-1.32573 19.8406 -0.513995 20.119 -0.383995 20.1254C-0.0426621 20.1411 0.580404 19.7668 1.01287 20.227C1.428 20.6466 1.2894 21.0821 1.2894 21.6632C1.1226 21.5833 1.203 21.5439 1.026 21.3361C1.15867 21.844 1.01894 22.7598 1.01894 23.2985C0.950804 23.1686 0.960804 23.225 0.894204 23.0905C0.717204 23.5822 0.505071 23.6834 0.505071 24.2645C0.441205 24.0366 0.502871 24.0848 0.431805 23.9649C0.259805 24.3382 -0.894196 24.6572 -0.449529 25.0335C-0.850862 24.7982 -1.02686 24.8229 -1.20886 24.6112C-1.28733 24.6618 -1.3496 24.7576 -1.42253 24.8889C-2.1282 24.5642 -1.87586 23.8639 -2.42873 23.3961C-2.5244 23.5922 -2.4808 23.5638 -2.5842 23.883C-2.69613 23.4396 -2.72673 23.1579 -2.8526 22.8319C-2.9612 23.0126 -2.95153 22.9433 -3.14873 23.2164C-3.23033 22.6763 -3.36313 22.5488 -3.3106 22.1914C-3.5202 22.3393 -3.383 22.2794 -3.59253 22.4614C-3.394 21.0774 -2.53673 20.0547 -1.92153 20.3822L-1.92173 20.3823Z" fill="#333333" stroke="black" stroke-width="1.6005"/>
<path d="M-2.79004 22.6414C-2.60817 22.1958 -2.44431 22.0559 -2.32677 21.769C-2.11931 21.2648 -2.08551 20.8617 -1.91124 20.9232C-1.73691 20.9847 -1.73971 21.1924 -1.97291 21.6877C-2.20611 22.1832 -2.31524 22.2882 -2.79004 22.6413V22.6414ZM-2.10164 23.7564C-2.02871 23.357 -1.91371 23.2114 -1.86644 22.9542C-1.78251 22.5018 -1.82931 22.1648 -1.66731 22.1826C-1.50531 22.2004 -1.46871 22.3712 -1.57651 22.8212C-1.68431 23.2712 -1.75864 23.3778 -2.10164 23.7564ZM-1.27824 24.5314C-1.25771 24.1441 -1.16691 23.993 -1.15331 23.7434C-1.12871 23.3046 -1.21317 22.9906 -1.05871 22.9888C-0.904239 22.987 -0.849173 23.1448 -0.896506 23.584C-0.943839 24.0234 -1.00097 24.133 -1.27824 24.5314ZM0.489894 21.9984C0.151828 21.6616 -0.0525722 21.5987 -0.270706 21.3821C-0.654906 21.0017 -0.840505 20.6445 -0.977306 20.7711C-1.11411 20.8978 -1.03177 21.0875 -0.627305 21.4495C-0.222772 21.8115 -0.0821057 21.8643 0.489894 21.9984ZM0.283895 23.3004C0.0636945 22.9622 -0.0979056 22.8746 -0.240106 22.657C-0.490772 22.2746 -0.577039 21.946 -0.719105 22.0274C-0.861305 22.1088 -0.829506 22.2805 -0.557772 22.6512C-0.286106 23.0218 -0.176839 23.09 0.283895 23.3006V23.3004Z" fill="#B3B3B3"/>
<path d="M15.38 12.9502C14.9842 13.7157 16.073 12.6956 17.7798 13.9771C18.0961 14.2152 18.5495 15.1558 18.5495 15.5918C18.1861 15.5145 17.5426 15.1558 17.5426 15.1558C17.5426 15.1558 18.2978 15.9122 18.2978 16.7842C18.031 16.6174 17.8975 16.6424 17.8088 16.4376C17.8088 16.7199 18.0461 16.8998 18.0461 17.3358C17.8837 17.2054 17.7102 17.0896 17.5274 16.9898C17.7792 17.4258 17.0688 18.2716 17.4243 18.5539C16.8025 18.464 16.1663 18.0667 15.9146 17.6307C15.7812 17.7206 15.7667 17.8618 15.7615 18.0123C15.7811 18.0286 14.815 17.2952 14.9038 17.0135C14.7742 17.1953 14.756 17.2952 14.7264 17.5001C14.3715 17.1501 14.0462 16.8001 13.9278 16.3476C13.7701 16.5525 13.7602 16.5525 13.6024 16.7574C13.4842 16.0403 13.4842 16.0659 13.7208 15.4513C13.5532 15.5623 13.4152 15.6733 13.2476 15.8099C13.4062 14.7714 14.2158 13.5536 15.3801 12.9505L15.38 12.9502Z" fill="#333333" stroke="black" stroke-width="1.239"/>
<path d="M14.4041 16.6896C14.4674 16.1621 14.6053 15.9634 14.6465 15.6237C14.72 15.0263 14.6327 14.5896 14.8445 14.6007C15.0562 14.6117 15.1171 14.8321 15.0125 15.4283C14.9079 16.0244 14.8196 16.1691 14.4041 16.6896ZM15.5091 17.6556C15.4662 17.2106 15.5484 17.0211 15.5211 16.7344C15.4741 16.23 15.3183 15.8883 15.5028 15.8569C15.6873 15.8255 15.7806 15.9947 15.8005 16.504C15.8204 17.0133 15.7711 17.149 15.509 17.6556H15.5091ZM17.2341 18.4436C17.0465 18.0585 16.8853 17.9437 16.7642 17.6958C16.5503 17.2602 16.5055 16.9045 16.3406 16.9689C16.1756 17.0334 16.1847 17.2174 16.423 17.6438C16.6613 18.0702 16.769 18.1572 17.2341 18.4436ZM17.8311 14.9946C17.3533 14.7431 17.1079 14.7399 16.8 14.5783C16.2578 14.2949 15.9422 13.9748 15.8302 14.151C15.7181 14.3272 15.8677 14.5024 16.4267 14.76C16.9857 15.0176 17.1573 15.0298 17.8311 14.9946H17.8311ZM18.0061 16.4356C17.6582 16.1462 17.4525 16.1036 17.2281 15.9174C16.8327 15.5907 16.6361 15.2698 16.504 15.3999C16.372 15.53 16.4602 15.7018 16.8751 16.0096C17.29 16.3174 17.4319 16.3556 18.0061 16.4356Z" fill="#B3B3B3"/>
</g>
</g>
<defs>
<clipPath id="clip0_4_1317">
<rect width="40" height="40" rx="20" fill="white"/>
</clipPath>
<clipPath id="clip1_4_1317">
<rect width="60" height="40" fill="white" transform="translate(-10)"/>
</clipPath>
</defs>
</svg>
