<svg width="40" height="40" viewBox="0 0 40 40" fill="none" xmlns="http://www.w3.org/2000/svg">
<g clip-path="url(#clip0_1_457)">
<path d="M0 19.9999C0 22.4463 0.440078 24.7898 1.24398 26.9564L20 27.826L38.756 26.9565C39.56 24.7898 40 22.4463 40 19.9999C40 17.5535 39.56 15.2101 38.756 13.0434L20 12.1738L1.24398 13.0434C0.440078 15.2101 0 17.5535 0 19.9999H0Z" fill="#FFDA44"/>
<path d="M20 -3.8147e-05C11.4007 -3.8147e-05 4.06988 5.42746 1.24402 13.0435H38.7561C35.9302 5.42746 28.5993 -3.8147e-05 20 -3.8147e-05V-3.8147e-05Z" fill="#D80027"/>
<path d="M38.7561 26.9564H1.24402C4.06988 34.5723 11.4007 39.9999 20 39.9999C28.5993 39.9999 35.9302 34.5723 38.7561 26.9564Z" fill="#496E2D"/>
<path d="M19.9998 13.0434L21.7264 18.3575H27.3145L22.7939 21.6421L24.5205 26.9564L19.9998 23.672L15.4791 26.9564L17.206 21.6421L12.6854 18.3575H18.2732L19.9998 13.0434Z" fill="black"/>
</g>
<defs>
<clipPath id="clip0_1_457">
<rect width="40" height="40" fill="white"/>
</clipPath>
</defs>
</svg>
