<svg width="40" height="40" viewBox="0 0 40 40" fill="none" xmlns="http://www.w3.org/2000/svg">
<g clip-path="url(#clip0_4_1569)">
<g clip-path="url(#clip1_4_1569)">
<path d="M-8 0H48V40H-8V0Z" fill="#244AA5"/>
<path d="M20.3027 12.6758C20.537 12.9492 20.6939 13.2224 20.6939 13.5548C20.4972 13.652 20.2254 13.6917 20.0685 13.8675C21.0453 13.7304 21.2398 14.8631 22.3337 14.4333C22.3735 14.5901 22.5303 14.727 22.7248 14.6678L22.842 14.3559C23.2708 14.2387 23.1536 14.9415 23.6241 14.8045C23.8585 15.0001 23.7017 15.3317 23.8585 15.5669C23.8585 15.8399 23.9757 16.0742 24.0927 16.3084C24.21 16.1724 24.2873 15.9769 24.5613 16.0355C24.7558 16.2499 24.9127 16.4455 24.9523 16.6797C24.8729 17.1294 24.7558 17.5195 25.2243 17.7537V17.8907C25.538 18.0276 26.2408 17.7537 26.2408 18.3006C26.201 18.4962 26.4353 18.3205 26.5148 18.4376C26.7094 18.3592 26.9833 18.399 27.2175 18.399C27.4121 18.8089 26.9833 19.1017 26.8662 19.473C27.0607 19.6676 26.9833 20.0199 26.9436 20.2531L26.8264 20.3117C27.138 20.3702 27.5291 20.274 27.8032 20.4497L28.3114 20.6442C28.5457 20.5083 28.8177 20.4874 29.1313 20.5083C29.3656 20.6841 29.0519 20.9769 29.2485 21.1128C29.5226 21.1128 29.7568 21.1526 29.7944 21.3869L29.8341 21.4643C30.0287 21.1128 30.5767 21.3471 30.811 21.0941C31.2021 21.0941 31.2794 21.5229 31.4739 21.7572C31.5534 22.3637 30.811 22.6378 31.0452 23.2422C30.8883 23.5349 30.5767 23.7693 30.3424 24.0432C30.4198 24.083 30.38 24.1792 30.38 24.2378C30.1458 24.3759 30.3424 24.7858 30.0286 24.8236C29.991 25.0786 29.5225 24.9804 29.6773 25.2543C29.9909 25.6643 29.5225 25.9174 29.5225 26.2897C29.3258 26.5051 28.9347 26.093 28.9347 26.5051C28.7004 26.5636 28.4662 26.2897 28.3114 26.524C28.232 26.798 28.4662 26.8942 28.4286 27.1682C28.8177 27.1284 28.9348 27.5195 29.0917 27.7538L29.4828 28.1449C29.0917 28.4566 28.5834 28.1051 28.1148 28.2808C27.9976 28.2223 28.1148 28.0675 27.9976 28.0089C27.8805 27.8708 27.6463 27.8708 27.4517 27.8331C27.4894 28.0089 27.138 28.0674 27.2949 28.2807C27.2949 28.3393 27.3722 28.515 27.2175 28.515C26.9037 28.6134 26.9435 28.2432 26.6694 28.3791C26.3181 28.515 26.5921 29.0422 26.0838 28.9836C26.1612 29.4542 25.3037 29.7659 25.8892 30.1759C25.9666 30.2533 25.9269 30.4101 25.9269 30.5272C25.5755 30.841 24.9521 30.7239 24.5611 30.6067C24.2473 30.5272 24.4439 30.1361 24.3268 29.9227C24.2097 29.7262 23.8583 29.5902 23.8583 29.3162C23.6239 29.2199 23.4274 29.1595 23.2706 28.9647C22.7247 29.4919 22.0597 30.0001 21.2793 30.0189C20.928 30.1946 20.7314 30.8996 20.1854 30.6066C19.971 30.9581 19.3258 30.6066 19.287 31.1129C19.0329 31.2112 19.1501 31.5437 18.9943 31.6985C18.9357 32.0896 18.9943 32.4221 19.3258 32.6565C19.4627 32.9493 19.0329 32.9493 19.2086 33.2233C19.2484 33.3196 19.2086 33.4576 19.1501 33.4973C19.0329 33.5558 18.9943 33.6145 19.0329 33.7316C18.9357 33.7316 18.896 33.7901 18.8185 33.8675C18.7202 34.0621 18.4085 34.1603 18.1931 34.2963C17.9787 34.3548 17.8219 34.2 17.6859 34.0621C17.6461 34.2775 17.4705 34.3946 17.2561 34.3946C16.9434 34.3946 17.002 34.1206 16.7677 34.0035C16.8649 33.6521 16.5523 33.4973 16.6505 33.1836C16.9046 32.9891 17.3335 32.851 17.2163 32.4411C16.9434 32.1105 17.0406 31.6211 16.7677 31.2301C16.592 31.0753 16.2992 30.841 16.3964 30.4687C16.6505 30.1759 16.3964 29.8245 16.2594 29.5128C16.2009 29.2577 16.045 29.0235 16.045 28.7306C15.6152 28.4775 15.5953 27.8124 14.9899 27.7538C14.5601 27.7538 14.4826 27.2079 14.0528 27.2455C14.0131 27.1682 13.9158 27.1096 13.8374 27.0322C13.5258 27.2455 13.1347 26.9737 12.7445 27.0698C12.4904 26.641 12.9589 26.0554 12.275 25.8002V25.5283C12.3534 25.5659 12.3921 25.4884 12.412 25.4488C12.4507 25.156 11.9235 25.1183 12.139 24.7857C12.0219 24.6874 11.8849 24.6477 11.9633 24.4532C11.6695 23.8487 10.791 23.9073 10.5954 23.3007C10.7523 23.1648 10.7523 23.0267 10.8109 22.9096C10.6738 22.6753 10.6352 22.4222 10.6739 22.1692C10.8109 22.1294 10.8883 21.9538 10.9667 21.8156C10.791 21.6986 10.5765 21.5229 10.381 21.5814C10.0296 21.5229 9.77545 21.2509 9.4628 21.0941C9.38437 21.0166 9.42415 20.8787 9.42415 20.7824C9.85389 20.6443 9.36561 20.0388 9.89267 20.1173C10.0297 19.9416 10.3225 19.883 10.537 19.7461C10.7524 19.7074 10.928 19.7858 11.1424 19.8444C11.3181 20.0776 11.6309 19.9804 11.8065 20.1759C11.9822 20.1361 12.1976 20.0388 12.412 20.1361C12.412 19.8046 12.5679 19.609 12.8031 19.3747C12.8418 19.2387 13.0562 19.1405 13.2319 19.0631C13.5645 19.1405 13.9546 19.1405 14.1899 18.9062C14.3458 19.0045 14.4828 18.8089 14.6584 18.8089C14.8728 18.7692 15.0485 18.8278 15.2054 18.9261C15.2242 18.5349 15.9081 18.8675 16.0452 18.399C16.2011 18.0862 15.6154 17.9692 15.654 17.6951C15.5568 17.3824 15.7911 17.2266 15.9081 17.0122C16.0451 16.9536 16.201 16.8753 16.3767 16.9139C16.8264 16.758 16.4749 15.8399 17.1976 16.1724C17.1976 16.2698 17.1579 16.3868 17.2165 16.4067C17.4706 16.4067 17.5096 16.1136 17.686 16.0156C17.7634 15.7427 17.5878 15.4102 17.822 15.1957C17.9392 15.1759 18.0374 15.1371 18.1148 15.0388C18.1148 14.8244 17.9977 14.7073 17.822 14.5703C17.7635 14.6679 17.6076 14.5902 17.5096 14.6289C17.5096 14.3946 17.3733 14.2388 17.3336 14.0233C17.2165 13.9648 17.1579 13.8676 17.1976 13.7305C17.3733 13.5548 17.1976 13.125 17.6076 13.2225C17.7635 13.0863 18.0374 13.1836 18.1933 12.9493C18.6033 12.715 19.1501 12.715 19.4629 12.2852C19.5998 12.3051 19.7557 12.1681 19.8927 12.2852C19.9315 12.5393 20.3027 12.441 20.3027 12.6758Z" fill="#D0A650"/>
<path d="M23.3267 7.37973L22.7867 5.71973L22.2534 7.37973H20.5067L21.92 8.40639L21.38 10.0664L22.7867 9.03973L24.2 10.0664L23.66 8.40639L25.0734 7.37973H23.3267Z" fill="white"/>
<path d="M28.82 8.34669L28.28 6.69336L27.7467 8.34669H26L27.4133 9.37336L26.8733 11.0334L28.28 10.0067L29.6933 11.0334L29.1533 9.37336L30.5667 8.34669H28.82Z" fill="white"/>
<path d="M34.06 10.2529L33.5267 8.59961L32.9867 10.2529H31.24L32.6533 11.2796L32.1133 12.9396L33.5267 11.9129L34.9333 12.9396L34.3933 11.2796L35.8067 10.2529H34.06Z" fill="white"/>
<path d="M17.7466 7.37973L17.2133 5.71973L16.6733 7.37973H14.9266L16.34 8.40639L15.8 10.0664L17.2133 9.03973L18.62 10.0664L18.08 8.40639L19.4933 7.37973H17.7466Z" fill="white"/>
<path d="M12.2533 8.34669L11.72 6.69336L11.18 8.34669H9.43335L10.8467 9.37336L10.3067 11.0334L11.72 10.0067L13.1267 11.0334L12.5867 9.37336L14 8.34669H12.2533Z" fill="white"/>
<path d="M7.01336 10.2529L6.47336 8.59961L5.94003 10.2529H4.19336L5.60669 11.2796L5.06669 12.9396L6.47336 11.9129L7.88669 12.9396L7.34669 11.2796L8.76003 10.2529H7.01336Z" fill="white"/>
</g>
</g>
<defs>
<clipPath id="clip0_4_1569">
<rect width="40" height="40" rx="20" fill="white"/>
</clipPath>
<clipPath id="clip1_4_1569">
<rect width="56" height="40" fill="white" transform="translate(-8)"/>
</clipPath>
</defs>
</svg>
