<svg width="40" height="40" viewBox="0 0 40 40" fill="none" xmlns="http://www.w3.org/2000/svg">
<g clip-path="url(#clip0_1_589)">
<path d="M20 39.9999C31.0457 39.9999 40 31.0456 40 19.9999C40 8.95418 31.0457 -0.00012207 20 -0.00012207C8.9543 -0.00012207 0 8.95418 0 19.9999C0 31.0456 8.9543 39.9999 20 39.9999Z" fill="#F0F0F0"/>
<path d="M20 -0.00012207C12.0708 -0.00012207 5.21956 4.61433 1.98456 11.3043H38.0154C34.7805 4.61433 27.9292 -0.00012207 20 -0.00012207V-0.00012207Z" fill="#D80027"/>
<path d="M20 39.9999C27.9292 39.9999 34.7805 35.3855 38.0155 28.6956H1.98456C5.21956 35.3855 12.0708 39.9999 20 39.9999Z" fill="#D80027"/>
<path d="M25.2174 23.4781L20 13.9128L14.7825 23.4781H18.6956V26.0867H21.3043V23.4781H25.2174Z" fill="#6DA544"/>
</g>
<defs>
<clipPath id="clip0_1_589">
<rect width="40" height="40" fill="white"/>
</clipPath>
</defs>
</svg>
