<svg width="40" height="40" viewBox="0 0 40 40" fill="none" xmlns="http://www.w3.org/2000/svg">
<g clip-path="url(#clip0_1_632)">
<path d="M20.0001 40C31.0458 40 40.0001 31.0457 40.0001 20C40.0001 8.9543 31.0458 0 20.0001 0C8.95437 0 6.10352e-05 8.9543 6.10352e-05 20C6.10352e-05 31.0457 8.95437 40 20.0001 40Z" fill="#F0F0F0"/>
<path d="M19.9999 0C11.4006 0 4.06976 5.4275 1.2439 13.0435H38.756C35.9301 5.4275 28.5992 0 19.9999 0V0Z" fill="#D80027"/>
<path d="M19.9999 40.0001C28.5992 40.0001 35.9301 34.5726 38.7559 26.9565H1.2439C4.06976 34.5726 11.4006 40.0001 19.9999 40.0001Z" fill="#338AF3"/>
</g>
<defs>
<clipPath id="clip0_1_632">
<rect width="40" height="40" fill="white"/>
</clipPath>
</defs>
</svg>
