<svg width="40" height="40" viewBox="0 0 40 40" fill="none" xmlns="http://www.w3.org/2000/svg">
<g clip-path="url(#clip0_1_687)">
<path d="M2.4317 10.4348L19.9999 12.1739L37.5681 10.4348C34.176 4.21792 27.5808 3.05176e-05 19.9999 3.05176e-05C12.419 3.05176e-05 5.82381 4.21792 2.4317 10.4348V10.4348Z" fill="#D80027"/>
<path d="M2.43186 29.5653L20.0001 31.3044L37.5683 29.5653C39.1186 26.7238 40.0001 23.4649 40.0001 20L20.0001 18.2609L6.10352e-05 20C6.10352e-05 23.4649 0.881546 26.7238 2.43186 29.5653Z" fill="#FFDA44"/>
<path d="M2.43186 10.4348C0.881546 13.2763 6.10352e-05 16.5352 6.10352e-05 20H40.0001C40.0001 16.5352 39.1186 13.2763 37.5683 10.4348H20.0001H2.43186Z" fill="#0052B4"/>
<path d="M19.9999 40C27.5808 40 34.176 35.7821 37.5681 29.5653H2.4317C5.82381 35.7821 12.419 40 19.9999 40Z" fill="#6DA544"/>
</g>
<defs>
<clipPath id="clip0_1_687">
<rect width="40" height="40" fill="white"/>
</clipPath>
</defs>
</svg>
