<svg width="40" height="40" viewBox="0 0 40 40" fill="none" xmlns="http://www.w3.org/2000/svg">
<g clip-path="url(#clip0_4_1503)">
<g clip-path="url(#clip1_4_1503)">
<path d="M60 0H-20V40H60V0Z" fill="#024FA2"/>
<path d="M60 6.66699H-20V33.3337H60V6.66699Z" fill="white"/>
<path d="M60 7.77734H-20V32.2218H60V7.77734Z" fill="#ED1C27"/>
<path d="M6.66672 28.8891C11.5759 28.8891 15.5556 24.9094 15.5556 20.0002C15.5556 15.091 11.5759 11.1113 6.66672 11.1113C1.75752 11.1113 -2.22217 15.091 -2.22217 20.0002C-2.22217 24.9094 1.75752 28.8891 6.66672 28.8891Z" fill="white"/>
<path d="M6.66675 11.3887L4.00577 19.5783L8.1006 20.9088L6.66675 11.3887Z" fill="#ED1C27"/>
<path d="M6.66675 11.3887L9.32773 19.5783L5.2329 20.9088L6.66675 11.3887Z" fill="#ED1C27"/>
<path d="M14.8563 17.3389H6.24521V21.6444L14.8563 17.3389Z" fill="#ED1C27"/>
<path d="M14.8563 17.3389L7.88979 22.4004L5.35904 18.9171L14.8563 17.3389Z" fill="#ED1C27"/>
<path d="M-1.52295 17.3389L5.44359 22.4004L7.97433 18.9171L-1.52295 17.3389Z" fill="#ED1C27"/>
<path d="M-1.52295 17.3389H7.08816V21.6444L-1.52295 17.3389Z" fill="#ED1C27"/>
<path d="M11.7283 26.9668L9.06729 18.7771L4.97247 20.1076L11.7283 26.9668Z" fill="#ED1C27"/>
<path d="M11.7283 26.9668L4.76174 21.9053L7.29248 18.422L11.7283 26.9668Z" fill="#ED1C27"/>
<path d="M1.60522 26.9658L8.57176 21.9043L6.04102 18.4211L1.60522 26.9658Z" fill="#ED1C27"/>
<path d="M1.60522 26.9658L4.2662 18.7762L8.36103 20.1067L1.60522 26.9658Z" fill="#ED1C27"/>
</g>
</g>
<defs>
<clipPath id="clip0_4_1503">
<rect width="40" height="40" rx="20" fill="white"/>
</clipPath>
<clipPath id="clip1_4_1503">
<rect width="80" height="40" fill="white" transform="translate(-20)"/>
</clipPath>
</defs>
</svg>
