<svg width="40" height="40" viewBox="0 0 40 40" fill="none" xmlns="http://www.w3.org/2000/svg">
<g clip-path="url(#clip0_1_1215)">
<path d="M38.7561 26.9564C39.5601 24.7898 40.0001 22.4464 40.0001 19.9999C40.0001 17.5535 39.5601 15.2101 38.7561 13.0435L20 11.3043L1.24403 13.0435C0.440046 15.2101 4.57764e-05 17.5535 4.57764e-05 19.9999C4.57764e-05 22.4464 0.440046 24.7898 1.24403 26.9564L20 28.6956L38.7561 26.9564Z" fill="#F0F0F0"/>
<path d="M20 39.9999C28.5993 39.9999 35.9302 34.5724 38.756 26.9564H1.24396C4.06989 34.5724 11.4007 39.9999 20 39.9999Z" fill="#338AF3"/>
<path d="M20 -3.05176e-05C11.4007 -3.05176e-05 4.06989 5.42747 1.24396 13.0435H38.7561C35.9302 5.42747 28.5993 -3.05176e-05 20 -3.05176e-05Z" fill="#6DA544"/>
</g>
<defs>
<clipPath id="clip0_1_1215">
<rect width="40" height="40" fill="white"/>
</clipPath>
</defs>
</svg>
