<svg width="40" height="40" viewBox="0 0 40 40" fill="none" xmlns="http://www.w3.org/2000/svg">
<g clip-path="url(#clip0_4_1600)">
<g clip-path="url(#clip1_4_1600)">
<path d="M20.0002 40C31.0459 40 40.0003 31.0457 40.0003 20C40.0003 8.9543 31.0459 0 20.0002 0C8.95455 0 0.000244141 8.9543 0.000244141 20C0.000244141 31.0457 8.95455 40 20.0002 40Z" fill="#FFDA44"/>
<path d="M0.000244141 20C0.000244141 8.95437 8.95462 0 20.0002 0C31.0459 0 40.0003 8.95437 40.0003 20" fill="#338AF3"/>
</g>
<g clip-path="url(#clip2_4_1600)">
<path d="M0 0H80V40H0V0Z" fill="#FF0000"/>
<path d="M0 0H80V26.6667H0V0Z" fill="#0000FF"/>
<path d="M0 0H80V13.3333H0V0Z" fill="white"/>
<path d="M15.1497 7.6882C16.6781 7.01478 18.3299 6.66699 20 6.66699C21.6701 6.66699 23.3219 7.01478 24.8502 7.6882C25.3568 14.8525 23.7401 18.9131 20 19.8699C16.2599 18.9131 14.6431 14.8525 15.1497 7.6882Z" fill="#0000FF"/>
<path d="M20 8.97559L20.1468 9.30847L20.5085 9.26914L20.2936 9.5627L20.5085 9.85625L20.1468 9.81692L20 10.1498L19.8533 9.81692L19.4916 9.85625L19.7065 9.5627L19.4916 9.26914L19.8533 9.30847" fill="#FFFF00"/>
<path d="M18.63 7.14941L18.7768 7.4823L19.1385 7.44297L18.9236 7.73652L19.1385 8.03008L18.7768 7.99075L18.63 8.32363L18.4833 7.99075L18.1216 8.03008L18.3365 7.73652L18.1216 7.44297L18.4833 7.4823" fill="#FFFF00"/>
<path d="M21.3699 7.14941L21.5167 7.4823L21.8784 7.44297L21.6635 7.73652L21.8784 8.03008L21.5167 7.99075L21.3699 8.32363L21.2231 7.99075L20.8615 8.03008L21.0763 7.73652L20.8615 7.44297L21.2231 7.4823" fill="#FFFF00"/>
<path d="M20 10.8672L21.1742 13.2156L21.957 12.1719L23.9141 14.7813C23.9141 14.9025 23.8972 15.0231 23.8639 15.1397C23.5956 16.0788 23.104 16.939 22.4312 17.647C21.7584 18.3549 20.9242 18.8896 20 19.2053C19.0758 18.8896 18.2416 18.3549 17.5688 17.647C16.896 16.939 16.4045 16.0788 16.1361 15.1397C16.1028 15.0231 16.0859 14.9025 16.0859 14.7813L18.043 12.1719L18.8258 13.2156L20 10.8672Z" fill="white"/>
<path d="M16.1361 15.1396C16.1906 15.3303 16.2878 15.5061 16.4204 15.6535C16.553 15.801 16.7175 15.9163 16.9013 15.9907C17.0851 16.0651 17.2835 16.0965 17.4813 16.0828C17.6792 16.069 17.8712 16.0103 18.043 15.9111C18.2413 15.7966 18.4663 15.7363 18.6953 15.7363C18.9243 15.7363 19.1493 15.7966 19.3477 15.9111C19.546 16.0256 19.771 16.0859 20 16.0859C20.229 16.0859 20.454 16.0256 20.6524 15.9111C20.8507 15.7966 21.0757 15.7363 21.3047 15.7363C21.5337 15.7363 21.7587 15.7966 21.957 15.9111C22.1288 16.0103 22.3209 16.069 22.5187 16.0828C22.7165 16.0965 22.9149 16.0651 23.0987 15.9907C23.2825 15.9163 23.447 15.801 23.5796 15.6535C23.7122 15.5061 23.8094 15.3303 23.8639 15.1396L23.9141 15.1579V16.113C23.6851 16.113 23.4601 16.1732 23.2617 16.2877C23.0634 16.4023 22.8384 16.4625 22.6094 16.4625C22.3804 16.4625 22.1554 16.4023 21.957 16.2877C21.7587 16.1732 21.5337 16.113 21.3047 16.113C21.0757 16.113 20.8507 16.1732 20.6524 16.2877C20.454 16.4023 20.229 16.4625 20 16.4625C19.771 16.4625 19.546 16.4023 19.3477 16.2877C19.1493 16.1732 18.9243 16.113 18.6953 16.113C18.4663 16.113 18.2413 16.1732 18.043 16.2877C17.8446 16.4023 17.6196 16.4625 17.3906 16.4625C17.1616 16.4625 16.9366 16.4023 16.7383 16.2877C16.5399 16.1732 16.315 16.113 16.0859 16.113V15.1579" fill="#0000FF"/>
<path d="M16.1361 15.8936C16.1906 16.0842 16.2878 16.26 16.4204 16.4074C16.553 16.5549 16.7175 16.6702 16.9013 16.7446C17.0851 16.819 17.2835 16.8504 17.4813 16.8367C17.6792 16.8229 17.8712 16.7642 18.043 16.665C18.2413 16.5505 18.4663 16.4902 18.6953 16.4902C18.9243 16.4902 19.1493 16.5505 19.3477 16.665C19.546 16.7795 19.771 16.8398 20 16.8398C20.229 16.8398 20.454 16.7795 20.6524 16.665C20.8507 16.5505 21.0757 16.4902 21.3047 16.4902C21.5337 16.4902 21.7587 16.5505 21.957 16.665C22.1288 16.7642 22.3209 16.8229 22.5187 16.8367C22.7165 16.8504 22.9149 16.819 23.0987 16.7446C23.2825 16.6702 23.447 16.5549 23.5796 16.4074C23.7122 16.26 23.8094 16.0842 23.8639 15.8936L23.9141 15.9118V16.8669C23.6851 16.8669 23.4601 16.9271 23.2617 17.0417C23.0634 17.1562 22.8384 17.2164 22.6094 17.2164C22.3804 17.2164 22.1554 17.1562 21.957 17.0417C21.7587 16.9271 21.5337 16.8669 21.3047 16.8669C21.0757 16.8669 20.8507 16.9271 20.6524 17.0417C20.454 17.1562 20.229 17.2164 20 17.2164C19.771 17.2164 19.546 17.1562 19.3477 17.0417C19.1493 16.9271 18.9243 16.8669 18.6953 16.8669C18.4663 16.8669 18.2413 16.9271 18.043 17.0417C17.8446 17.1562 17.6196 17.2164 17.3906 17.2164C17.1616 17.2164 16.9366 17.1562 16.7383 17.0417C16.5399 16.9271 16.315 16.8669 16.0859 16.8669V15.9118" fill="#0000FF"/>
<path d="M14.7812 7.85834C14.9031 7.79965 15.026 7.74302 15.1498 7.68848L15.5374 13.8791C15.6183 15.1718 16.0876 16.4099 16.8838 17.4315C17.6801 18.453 18.7662 19.2104 20 19.6045C21.2338 19.2104 22.3199 18.453 23.1162 17.4315C23.9124 16.4099 24.3817 15.1718 24.4627 13.8791L24.8502 7.68848C24.974 7.74302 25.0969 7.79965 25.2188 7.85834L24.8403 13.9027C24.7534 15.292 24.2428 16.6212 23.3774 17.7115C22.512 18.8017 21.3333 19.6006 20 20.0006C18.6667 19.6006 17.488 18.8017 16.6226 17.7115C15.7572 16.6212 15.2466 15.292 15.1597 13.9027L14.7812 7.85834Z" fill="#FF0000"/>
</g>
</g>
<defs>
<clipPath id="clip0_4_1600">
<rect width="40" height="40" rx="20" fill="white"/>
</clipPath>
<clipPath id="clip1_4_1600">
<rect width="40" height="40" rx="20" fill="white"/>
</clipPath>
<clipPath id="clip2_4_1600">
<rect width="80" height="40" fill="white"/>
</clipPath>
</defs>
</svg>
