<svg width="40" height="40" viewBox="0 0 40 40" fill="none" xmlns="http://www.w3.org/2000/svg">
<g clip-path="url(#clip0_1_1143)">
<path d="M3.05176e-05 20C3.05176e-05 22.4464 0.440109 24.7899 1.24401 26.9565L20 28.6957L38.756 26.9565C39.56 24.7899 40 22.4464 40 20C40 17.5536 39.56 15.2102 38.756 13.0436L20 11.3044L1.24401 13.0436C0.440109 15.2102 3.05176e-05 17.5536 3.05176e-05 20H3.05176e-05Z" fill="#FFDA44"/>
<path d="M38.7559 13.0436C35.93 5.42767 28.5992 9.15527e-05 19.9999 9.15527e-05C11.4006 9.15527e-05 4.06974 5.42767 1.24388 13.0436H38.7559Z" fill="#D80027"/>
<path d="M1.24388 26.9565C4.06974 34.5725 11.4006 40.0001 19.9999 40.0001C28.5992 40.0001 35.93 34.5725 38.7559 26.9565H1.24388Z" fill="#D80027"/>
</g>
<defs>
<clipPath id="clip0_1_1143">
<rect width="40" height="40" fill="white"/>
</clipPath>
</defs>
</svg>
