<svg width="28" height="28" viewBox="0 0 28 28" fill="none" xmlns="http://www.w3.org/2000/svg">
<path d="M24.4998 21.1467V15.1663C24.4998 9.37617 19.79 4.66634 13.9998 4.66634C8.20966 4.66634 3.49982 9.37617 3.49982 15.1663V21.1467C1.48849 21.6658 -0.000176469 23.4952 -0.000176469 25.6663C-0.000176469 26.9532 1.04632 27.9997 2.33316 27.9997H25.6665C26.9533 27.9997 27.9998 26.9532 27.9998 25.6663C27.9998 23.4952 26.5112 21.6658 24.4998 21.1467ZM13.9998 6.99967C18.502 6.99967 22.1665 10.6642 22.1665 15.1663V20.9997H5.83316V15.1663C5.83316 10.6642 9.49766 6.99967 13.9998 6.99967ZM2.33316 25.6663C2.33316 24.3795 3.37966 23.333 4.66649 23.333H23.3332C24.62 23.333 25.6665 24.3795 25.6665 25.6663H2.33316ZM24.263 7.24584C23.8045 6.792 23.801 6.05467 24.2537 5.59617L26.0037 3.82634C26.4563 3.36784 27.1948 3.36434 27.6533 3.817C28.1118 4.27084 28.1153 5.00817 27.6627 5.46667L25.9127 7.2365C25.6852 7.4675 25.3842 7.583 25.0832 7.583C24.7868 7.583 24.4905 7.46984 24.263 7.24584ZM19.3805 2.37967L20.287 0.62967C20.5833 0.0556701 21.2892 -0.165997 21.8597 0.130337C22.4313 0.42667 22.6553 1.13017 22.359 1.703L21.4525 3.453C21.2448 3.85434 20.8377 4.083 20.4153 4.083C20.2345 4.083 20.0513 4.041 19.8798 3.95234C19.3082 3.656 19.0842 2.9525 19.3805 2.37967ZM0.33699 5.46784C-0.116843 5.00934 -0.112176 4.272 0.346324 3.81817C0.803657 3.36434 1.54449 3.369 1.99599 3.8275L3.74599 5.59734C4.19982 6.05584 4.19516 6.79317 3.73666 7.247C3.51032 7.471 3.21282 7.58417 2.91649 7.58417C2.61549 7.58417 2.31449 7.46867 2.08699 7.23767L0.33699 5.46784ZM5.64066 1.703C5.34432 1.13134 5.56832 0.42667 6.13999 0.130337C6.70816 -0.165997 7.41516 0.0556701 7.71266 0.62967L8.61916 2.37967C8.91549 2.95134 8.69149 3.656 8.11982 3.95234C7.94949 4.041 7.76516 4.083 7.58432 4.083C7.16316 4.083 6.75482 3.85434 6.54716 3.453L5.64066 1.703ZM9.33316 15.1663C9.33316 12.5927 11.4262 10.4997 13.9998 10.4997C14.645 10.4997 15.1665 11.0212 15.1665 11.6663C15.1665 12.3115 14.645 12.833 13.9998 12.833C12.713 12.833 11.6665 13.8795 11.6665 15.1663C11.6665 15.8115 11.145 16.333 10.4998 16.333C9.85466 16.333 9.33316 15.8115 9.33316 15.1663Z" fill="black"/>
</svg>
