<svg width="49" height="49" viewBox="0 0 49 49" fill="none" xmlns="http://www.w3.org/2000/svg">
<g id="simple-icons:applepay" clip-path="url(#clip0_5088_14191)">
<path id="Vector" d="M4.90791 9.39483C4.60524 9.3952 4.30257 9.3972 3.99991 9.40083C3.69991 9.41083 3.39391 9.42683 3.09591 9.48083C2.64555 9.552 2.21852 9.72908 1.84996 9.9975C1.4814 10.2659 1.18183 10.618 0.97591 11.0248C0.83591 11.3008 0.74791 11.5808 0.69591 11.8848C0.63991 12.1808 0.62191 12.4848 0.61591 12.7848C0.611816 12.9241 0.609149 13.0635 0.60791 13.2028L0.60791 36.3168C0.60791 36.4568 0.61191 36.5928 0.61391 36.7308C0.62191 37.0308 0.63991 37.3368 0.69391 37.6348C0.74791 37.9348 0.83791 38.2168 0.97791 38.4928C1.2537 39.0358 1.69494 39.477 2.23791 39.7528C2.51391 39.8928 2.79391 39.9828 3.09791 40.0368C3.39391 40.0908 3.69791 40.1088 3.99791 40.1168L4.41391 40.1228H44.8019L45.2159 40.1168C45.5159 40.1088 45.8219 40.0908 46.1199 40.0368C46.4199 39.9828 46.7019 39.8948 46.9759 39.7548C47.5203 39.4793 47.9624 39.0372 48.2379 38.4928C48.3779 38.2168 48.4679 37.9368 48.5199 37.6328C48.5739 37.3368 48.5919 37.0328 48.5999 36.7328C48.6039 36.5928 48.6059 36.4568 48.6059 36.3168L48.6079 35.8248V13.2008C48.6079 13.0608 48.6039 12.9248 48.5999 12.7868C48.5962 12.4839 48.5694 12.1817 48.5199 11.8828C48.4242 11.2805 48.1406 10.7239 47.7096 10.2925C47.2785 9.86112 46.7221 9.57702 46.1199 9.48083C45.821 9.43154 45.5188 9.4048 45.2159 9.40083C44.914 9.39228 44.6119 9.39028 44.3099 9.39483H4.90791ZM4.90791 10.4188H44.7919C44.9239 10.4188 45.0539 10.4228 45.1859 10.4248C45.4159 10.4328 45.6859 10.4448 45.9359 10.4888C46.1539 10.5288 46.3359 10.5888 46.5099 10.6768C46.8608 10.8549 47.1458 11.14 47.3239 11.4908C47.4156 11.6721 47.479 11.8664 47.5119 12.0668C47.5559 12.3128 47.5679 12.5828 47.5739 12.8148C47.5779 12.9448 47.5799 13.0748 47.5799 13.2088V36.3128C47.5799 36.4428 47.5799 36.5728 47.5739 36.7048C47.5679 36.9348 47.5559 37.2048 47.5099 37.4548C47.4667 37.7491 47.3532 38.0287 47.1792 38.2699C47.0051 38.5112 46.7756 38.707 46.5099 38.8408C46.3298 38.932 46.137 38.9953 45.9379 39.0288C45.6911 39.0681 45.4418 39.0895 45.1919 39.0928L44.7919 39.0988H4.41991C4.28791 39.0988 4.15391 39.0948 4.02791 39.0928C3.7767 39.0896 3.52605 39.0682 3.27791 39.0288C3.05991 38.9888 2.87791 38.9288 2.70191 38.8408C2.35108 38.6634 2.06645 38.3781 1.88991 38.0268C1.79853 37.8454 1.73514 37.6512 1.70191 37.4508C1.66219 37.2041 1.6408 36.9547 1.63791 36.7048C1.63523 36.5735 1.63389 36.4422 1.63391 36.3108V13.2068C1.63391 13.0768 1.63391 12.9448 1.63791 12.8128C1.64591 12.5848 1.65791 12.3168 1.70191 12.0628C1.74191 11.8468 1.80191 11.6648 1.88991 11.4888C2.06811 11.1386 2.35322 10.8542 2.70391 10.6768C2.88497 10.5863 3.07838 10.5229 3.27791 10.4888C3.52791 10.4448 3.79791 10.4308 4.02791 10.4248C4.15791 10.4208 4.28991 10.4208 4.41991 10.4188H4.90791ZM14.3279 17.8208C14.3279 17.8197 14.327 17.8189 14.3259 17.8189C13.7263 17.8516 12.9914 18.2174 12.5679 18.7308C11.8036 19.6112 12.9146 20.6348 13.686 19.7606C13.6948 19.7507 13.7034 19.7408 13.7119 19.7308C14.1219 19.2148 14.4019 18.5248 14.3279 17.8208ZM22.8599 18.6568C20.5853 18.6579 18.7419 20.5022 18.7419 22.7768V28.7928C18.7419 29.2634 19.1234 29.6448 19.5939 29.6448C20.0645 29.6448 20.4459 29.2634 20.4459 28.7928V27.7678C20.4459 26.7312 21.2863 25.8908 22.3229 25.8908H22.8059C24.9619 25.8908 26.4759 24.4128 26.4759 22.2668C26.4759 20.1268 24.9919 18.6568 22.8599 18.6568ZM20.4459 22.0608C20.4459 20.9761 21.3252 20.0968 22.4099 20.0968C23.8879 20.0968 24.7319 20.8888 24.7319 22.2748C24.7319 23.6588 23.8879 24.4588 22.4039 24.4588C21.3225 24.4588 20.4459 23.5822 20.4459 22.5008V22.0608ZM14.1379 20.6968C13.2379 20.7168 12.4779 21.2568 12.0379 21.2568C11.5679 21.2568 10.8519 20.7288 10.0759 20.7428C9.57113 20.7554 9.07844 20.9 8.64686 21.1621C8.21528 21.4242 7.85984 21.7947 7.61591 22.2368C6.56191 24.0528 7.33791 26.7468 8.36391 28.2268C8.86191 28.9588 9.46191 29.7648 10.2519 29.7348C10.9979 29.7068 11.2919 29.2508 12.1979 29.2508C13.1059 29.2508 13.3699 29.7348 14.1579 29.7208C14.9779 29.7068 15.4919 28.9888 15.9879 28.2548C16.6458 27.2956 15.9837 26.3492 15.4734 25.304C15.3208 24.9915 15.2175 24.6118 15.2139 24.1548C15.2134 24.1021 15.2143 24.0504 15.2168 23.9996C15.2854 22.5585 15.7602 20.8124 14.3219 20.6988C14.2607 20.695 14.1993 20.6956 14.1379 20.6968ZM30.5459 21.4908C28.9796 21.4908 27.8814 22.1579 27.4453 23.1524C27.2542 23.5884 27.6446 24.0028 28.1207 24.0028C28.5134 24.0028 28.8278 23.7004 29.0748 23.395C29.3628 23.0391 29.8426 22.8308 30.4859 22.8308C31.4899 22.8308 32.0919 23.3628 32.0919 24.2528C32.0919 24.5998 31.8214 24.8866 31.475 24.9068L29.8979 24.9988C27.9959 25.1068 26.9219 25.9668 26.9219 27.3668C26.9219 28.8068 28.0179 29.7808 29.5859 29.7808C30.6329 29.7808 31.6403 29.2242 32.1073 28.3396C32.1114 28.3318 32.1195 28.3268 32.1283 28.3268C32.1413 28.3268 32.1519 28.3374 32.1519 28.3505V28.9858C32.1519 29.3498 32.447 29.6448 32.8109 29.6448H32.9399C33.3751 29.6448 33.7279 29.292 33.7279 28.8568V24.1248C33.7279 22.5188 32.4879 21.4908 30.5459 21.4908ZM35.5982 21.6335C35.0274 21.6342 34.63 22.2006 34.8237 22.7375L37.2236 29.3912C37.286 29.5643 37.2893 29.7495 37.2362 29.9257C37.1909 30.0762 37.1518 30.2246 37.0947 30.371C36.8393 31.0261 36.4382 31.2888 35.7499 31.2888C35.4774 31.2888 35.2159 31.522 35.2159 31.7946V32.0645C35.2159 32.3694 35.4361 32.6166 35.7408 32.626C35.8006 32.6278 35.8519 32.6288 35.8859 32.6288C37.5459 32.6288 38.3379 32.0048 39.0219 30.0628L41.6388 22.711C41.8256 22.1863 41.4365 21.6348 40.8796 21.6348C40.5265 21.6348 40.2146 21.8646 40.1099 22.2018L38.2664 28.1385C38.2637 28.147 38.2558 28.1528 38.2469 28.1528C38.238 28.1528 38.2301 28.147 38.2275 28.1385L36.3863 22.2132C36.279 21.8681 35.9595 21.6331 35.5982 21.6335ZM31.4611 26.0519C31.803 26.0307 32.0919 26.3023 32.0919 26.6448C32.0919 27.6868 31.1919 28.4788 30.0439 28.4788C29.1599 28.4788 28.5819 28.0228 28.5819 27.3208C28.5819 26.6368 29.1379 26.2008 30.1199 26.1348L31.4611 26.0519Z" fill="#383940"/>
</g>
<defs>
<clipPath id="clip0_5088_14191">
<rect width="48" height="48" fill="white" transform="translate(0.60791 0.756714)"/>
</clipPath>
</defs>
</svg>
