<svg width="9" height="9" viewBox="0 0 9 9" fill="none" xmlns="http://www.w3.org/2000/svg">
<path d="M8.31467 0.167172C8.16162 0.0820067 7.99328 0.0278471 7.81929 0.00779014C7.64529 -0.0122669 7.46904 0.00217209 7.30063 0.0502814C7.13222 0.0983908 6.97494 0.179227 6.83779 0.288167C6.70064 0.397106 6.58631 0.532013 6.50134 0.685172L4.02601 5.13984L2.60934 3.72317C2.48634 3.59582 2.33922 3.49425 2.17655 3.42437C2.01387 3.35449 1.83891 3.31771 1.66188 3.31617C1.48484 3.31463 1.30926 3.34837 1.1454 3.41541C0.981539 3.48245 0.83267 3.58146 0.70748 3.70665C0.58229 3.83184 0.483285 3.9807 0.416244 4.14457C0.349203 4.30843 0.315467 4.484 0.317006 4.66104C0.318544 4.83808 0.355326 5.01304 0.425205 5.17571C0.495083 5.33838 0.59666 5.48551 0.724006 5.60851L3.39067 8.27517C3.64267 8.52784 3.98267 8.66651 4.33334 8.66651L4.51801 8.65317C4.72237 8.62458 4.91732 8.54895 5.08749 8.43222C5.25766 8.3155 5.39841 8.16087 5.49867 7.98051L8.83201 1.9805C8.91711 1.82747 8.97124 1.65918 8.99129 1.48522C9.01135 1.31127 8.99695 1.13507 8.94891 0.96669C8.90087 0.798304 8.82014 0.64103 8.71131 0.503849C8.60249 0.366667 8.46771 0.252264 8.31467 0.167172Z"/>
</svg>
