<svg width="24" height="24" viewBox="0 0 24 24" fill="none" xmlns="http://www.w3.org/2000/svg">
<path d="M12 18L13.0725 16.9553L8.8875 12.75L18 12.75V11.25L8.8875 11.25L13.0725 7.07025L12 6L6 12L12 18Z" fill="#FFD601"/>
<path d="M22.4852 12.5576C22.3749 14.6313 21.6522 16.6259 20.4084 18.2889C19.1646 19.9519 17.4555 21.2087 15.4974 21.9005C13.5393 22.5922 11.42 22.6877 9.40762 22.175C7.39521 21.6623 5.58002 20.5643 4.19161 19.02C2.8032 17.4756 1.90393 15.5543 1.6075 13.4988C1.31107 11.4434 1.63081 9.34619 2.52628 7.47247C3.42176 5.59875 4.85274 4.03265 6.63828 2.9722C8.42382 1.91176 10.4837 1.4046 12.5575 1.51487C15.3372 1.66585 17.9435 2.91326 19.8047 4.98345C21.6658 7.05363 22.6298 9.77753 22.4852 12.5576ZM3.01268 11.5222C2.91817 13.2997 3.35287 15.0653 4.26182 16.5958C5.17078 18.1263 6.51315 19.3528 8.1192 20.1204C9.72524 20.8879 11.5228 21.162 13.2846 20.9079C15.0464 20.6538 16.6933 19.883 18.0171 18.6929C19.3408 17.5029 20.2819 15.947 20.7214 14.2221C21.1608 12.4972 21.079 10.6806 20.486 9.00226C19.8931 7.32387 18.8158 5.859 17.3904 4.79288C15.965 3.72675 14.2554 3.10727 12.4779 3.01275C10.095 2.88883 7.76024 3.71514 5.98581 5.31039C4.21138 6.90565 3.14215 9.1396 3.01268 11.5222Z" fill="#FFD601"/>
</svg>
