<svg width="27" height="28" viewBox="0 0 27 28" fill="none" xmlns="http://www.w3.org/2000/svg">
<path d="M27 23.3333C27 25.263 25.4297 26.8333 23.5 26.8333V28H21.1667V26.8333C19.237 26.8333 17.6667 25.263 17.6667 23.3333H20C20 23.9762 20.5227 24.5 21.1667 24.5H23.5C24.144 24.5 24.6667 23.9762 24.6667 23.3333C24.6667 22.8923 24.3505 22.519 23.9154 22.4467L20.3675 21.8552C18.8019 21.595 17.6667 20.2533 17.6667 18.6667C17.6667 16.737 19.237 15.1667 21.1667 15.1667V14H23.5V15.1667C25.4297 15.1667 27 16.737 27 18.6667H24.6667C24.6667 18.0238 24.144 17.5 23.5 17.5H21.1667C20.5227 17.5 20 18.0238 20 18.6667C20 19.1077 20.3162 19.481 20.7514 19.5533L24.2992 20.1448C25.8649 20.405 27 21.7467 27 23.3333ZM15.4512 17.5C15.6285 16.6332 16.0135 15.848 16.5292 15.1667H4.83335V23.3333H15.3334V21H7.16669V17.5H15.4512ZM4.83335 12.8333H10.6667V10.5H4.83335V12.8333ZM10.6667 5.83333H4.83335V8.16667H10.6667V5.83333ZM17.7029 28H0.166687V3.5C0.166687 1.57033 1.73702 0 3.66669 0H14.6497L23.5 8.85033V11.6667H21.1667V10.5H13V2.33333H3.66669C3.02385 2.33333 2.50002 2.85717 2.50002 3.5V25.6667H15.828C16.2387 26.6012 16.8932 27.3968 17.7029 28ZM15.3334 8.16667H19.517L15.3334 3.983V8.16667Z" fill="white"/>
</svg>
