<svg width="16" height="16" viewBox="0 0 16 16" fill="none" xmlns="http://www.w3.org/2000/svg">
<path d="M15.6522 0H4.52174C4.42949 0 4.34102 0.0366459 4.27579 0.101876C4.21056 0.167106 4.17391 0.255577 4.17391 0.347826V4.17391H0.347826C0.255577 4.17391 0.167106 4.21056 0.101876 4.27579C0.0366459 4.34102 0 4.42949 0 4.52174V15.6522C0 15.7444 0.0366459 15.8329 0.101876 15.8981C0.167106 15.9634 0.255577 16 0.347826 16H11.4783C11.5705 16 11.659 15.9634 11.7242 15.8981C11.7894 15.8329 11.8261 15.7444 11.8261 15.6522V11.8261H15.6522C15.7444 11.8261 15.8329 11.7894 15.8981 11.7242C15.9634 11.659 16 11.5705 16 11.4783V0.347826C16 0.255577 15.9634 0.167106 15.8981 0.101876C15.8329 0.0366459 15.7444 0 15.6522 0ZM11.1304 15.3043H0.695652V4.86957H11.1304V15.3043ZM15.3043 11.1304H11.8261V4.52174C11.8261 4.42949 11.7894 4.34102 11.7242 4.27579C11.659 4.21056 11.5705 4.17391 11.4783 4.17391H4.86957V0.695652H15.3043V11.1304Z" fill="#696161"/>
</svg>
