<svg width="422" height="788" viewBox="0 0 422 788" fill="none" xmlns="http://www.w3.org/2000/svg">
<path fill-rule="evenodd" clip-rule="evenodd" d="M1.03191 0C0.349399 6.90753 0 13.913 0 21V577C0 693.532 94.4679 788 211 788C327.532 788 422 693.532 422 577V21C422 13.913 421.651 6.90754 420.968 0H1.03191Z" fill="#6484E6"/>
<path d="M110.111 696.26L109.134 701.816L109.008 702.531L109.65 702.872L114.631 705.518L109.046 706.306L108.326 706.407L108.201 707.123L107.224 712.678L104.749 707.609L104.43 706.957L103.71 707.058L98.1247 707.846L102.181 703.925L102.703 703.42L102.384 702.768L99.9092 697.699L104.891 700.345L105.533 700.685L106.055 700.181L110.111 696.26Z" stroke="white" stroke-width="2"/>
<circle cx="212" cy="374" r="2" fill="#D9D9D9"/>
<circle cx="232" cy="374" r="2" fill="#D9D9D9"/>
<circle cx="252" cy="374" r="2" fill="#D9D9D9"/>
<circle cx="272" cy="374" r="2" fill="#D9D9D9"/>
<circle cx="292" cy="374" r="2" fill="#D9D9D9"/>
<circle cx="312" cy="374" r="2" fill="#D9D9D9"/>
<circle cx="212" cy="394" r="2" fill="#D9D9D9"/>
<circle cx="232" cy="394" r="2" fill="#D9D9D9"/>
<circle cx="252" cy="394" r="2" fill="#D9D9D9"/>
<circle cx="272" cy="394" r="2" fill="#D9D9D9"/>
<circle cx="292" cy="394" r="2" fill="#D9D9D9"/>
<circle cx="312" cy="394" r="2" fill="#D9D9D9"/>
<circle cx="212" cy="414" r="2" fill="#D9D9D9"/>
<circle cx="232" cy="414" r="2" fill="#D9D9D9"/>
<circle cx="252" cy="414" r="2" fill="#D9D9D9"/>
<circle cx="272" cy="414" r="2" fill="#D9D9D9"/>
<circle cx="292" cy="414" r="2" fill="#D9D9D9"/>
<circle cx="312" cy="414" r="2" fill="#D9D9D9"/>
<circle cx="212" cy="434" r="2" fill="#D9D9D9"/>
<circle cx="232" cy="434" r="2" fill="#D9D9D9"/>
<circle cx="252" cy="434" r="2" fill="#D9D9D9"/>
<circle cx="272" cy="434" r="2" fill="#D9D9D9"/>
<circle cx="292" cy="434" r="2" fill="#D9D9D9"/>
<circle cx="312" cy="434" r="2" fill="#D9D9D9"/>
<circle cx="212" cy="454" r="2" fill="#D9D9D9"/>
<circle cx="232" cy="454" r="2" fill="#D9D9D9"/>
<circle cx="252" cy="454" r="2" fill="#D9D9D9"/>
<circle cx="272" cy="454" r="2" fill="#D9D9D9"/>
<circle cx="292" cy="454" r="2" fill="#D9D9D9"/>
<circle cx="312" cy="454" r="2" fill="#D9D9D9"/>
<circle cx="212" cy="474" r="2" fill="#D9D9D9"/>
<circle cx="232" cy="474" r="2" fill="#D9D9D9"/>
<circle cx="252" cy="474" r="2" fill="#D9D9D9"/>
<circle cx="272" cy="474" r="2" fill="#D9D9D9"/>
<circle cx="292" cy="474" r="2" fill="#D9D9D9"/>
<circle cx="312" cy="474" r="2" fill="#D9D9D9"/>
<circle cx="212" cy="494" r="2" fill="#D9D9D9"/>
<circle cx="232" cy="494" r="2" fill="#D9D9D9"/>
<circle cx="252" cy="494" r="2" fill="#D9D9D9"/>
<circle cx="272" cy="494" r="2" fill="#D9D9D9"/>
<circle cx="292" cy="494" r="2" fill="#D9D9D9"/>
<circle cx="312" cy="494" r="2" fill="#D9D9D9"/>
<circle cx="212" cy="514" r="2" fill="#D9D9D9"/>
<circle cx="232" cy="514" r="2" fill="#D9D9D9"/>
<circle cx="252" cy="514" r="2" fill="#D9D9D9"/>
<circle cx="272" cy="514" r="2" fill="#D9D9D9"/>
<circle cx="292" cy="514" r="2" fill="#D9D9D9"/>
<circle cx="312" cy="514" r="2" fill="#D9D9D9"/>
<circle cx="212" cy="534" r="2" fill="#D9D9D9"/>
<circle cx="232" cy="534" r="2" fill="#D9D9D9"/>
<circle cx="252" cy="534" r="2" fill="#D9D9D9"/>
<circle cx="272" cy="534" r="2" fill="#D9D9D9"/>
<circle cx="292" cy="534" r="2" fill="#D9D9D9"/>
<circle cx="312" cy="534" r="2" fill="#D9D9D9"/>
<circle cx="212" cy="554" r="2" fill="#D9D9D9"/>
<circle cx="232" cy="554" r="2" fill="#D9D9D9"/>
<circle cx="252" cy="554" r="2" fill="#D9D9D9"/>
<circle cx="272" cy="554" r="2" fill="#D9D9D9"/>
<circle cx="292" cy="554" r="2" fill="#D9D9D9"/>
<circle cx="312" cy="554" r="2" fill="#D9D9D9"/>
<circle cx="212" cy="574" r="2" fill="#D9D9D9"/>
<circle cx="232" cy="574" r="2" fill="#D9D9D9"/>
<circle cx="252" cy="574" r="2" fill="#D9D9D9"/>
<circle cx="272" cy="574" r="2" fill="#D9D9D9"/>
<circle cx="292" cy="574" r="2" fill="#D9D9D9"/>
<circle cx="312" cy="574" r="2" fill="#D9D9D9"/>
<circle cx="212" cy="594" r="2" fill="#D9D9D9"/>
<circle cx="232" cy="594" r="2" fill="#D9D9D9"/>
<circle cx="252" cy="594" r="2" fill="#D9D9D9"/>
<circle cx="272" cy="594" r="2" fill="#D9D9D9"/>
<circle cx="292" cy="594" r="2" fill="#D9D9D9"/>
<circle cx="312" cy="594" r="2" fill="#D9D9D9"/>
<circle cx="212" cy="614" r="2" fill="#D9D9D9"/>
<circle cx="232" cy="614" r="2" fill="#D9D9D9"/>
<circle cx="252" cy="614" r="2" fill="#D9D9D9"/>
<circle cx="272" cy="614" r="2" fill="#D9D9D9"/>
<circle cx="292" cy="614" r="2" fill="#D9D9D9"/>
<circle cx="312" cy="614" r="2" fill="#D9D9D9"/>
<circle cx="212" cy="634" r="2" fill="#D9D9D9"/>
<circle cx="232" cy="634" r="2" fill="#D9D9D9"/>
<circle cx="252" cy="634" r="2" fill="#D9D9D9"/>
<circle cx="272" cy="634" r="2" fill="#D9D9D9"/>
<circle cx="292" cy="634" r="2" fill="#D9D9D9"/>
<circle cx="312" cy="634" r="2" fill="#D9D9D9"/>
<circle cx="212" cy="654" r="2" fill="#D9D9D9"/>
<circle cx="232" cy="654" r="2" fill="#D9D9D9"/>
<circle cx="252" cy="654" r="2" fill="#D9D9D9"/>
<circle cx="272" cy="654" r="2" fill="#D9D9D9"/>
<circle cx="292" cy="654" r="2" fill="#D9D9D9"/>
<circle cx="312" cy="654" r="2" fill="#D9D9D9"/>
<circle cx="212" cy="674" r="2" fill="#D9D9D9"/>
<circle cx="232" cy="674" r="2" fill="#D9D9D9"/>
<circle cx="252" cy="674" r="2" fill="#D9D9D9"/>
<circle cx="272" cy="674" r="2" fill="#D9D9D9"/>
<circle cx="292" cy="674" r="2" fill="#D9D9D9"/>
<circle cx="312" cy="674" r="2" fill="#D9D9D9"/>
<circle cx="212" cy="694" r="2" fill="#D9D9D9"/>
<circle cx="232" cy="694" r="2" fill="#D9D9D9"/>
<circle cx="252" cy="694" r="2" fill="#D9D9D9"/>
<circle cx="272" cy="694" r="2" fill="#D9D9D9"/>
<circle cx="292" cy="694" r="2" fill="#D9D9D9"/>
<circle cx="312" cy="694" r="2" fill="#D9D9D9"/>
<rect x="117" y="406" width="278" height="206" fill="white" fill-opacity="0.2"/>
<circle cx="314" cy="267" r="31.5" stroke="white"/>
<circle cx="334" cy="246" r="32" fill="white"/>
<line y1="-0.5" x2="42.8219" y2="-0.5" transform="matrix(-0.480552 0.876966 -0.971999 -0.234985 280.578 54)" stroke="white"/>
<line y1="-0.5" x2="42.8219" y2="-0.5" transform="matrix(-0.480552 0.876966 -0.971999 -0.234985 309.156 54.1797)" stroke="white"/>
<line y1="-0.5" x2="42.8219" y2="-0.5" transform="matrix(-0.480552 0.876966 -0.971999 -0.234985 337.734 54.3574)" stroke="white"/>
<line y1="-0.5" x2="42.8219" y2="-0.5" transform="matrix(-0.480552 0.876966 -0.971999 -0.234985 366.312 54.5371)" stroke="white"/>
<line y1="-0.5" x2="42.8219" y2="-0.5" transform="matrix(-0.480552 0.876966 -0.971999 -0.234985 394.891 54.7168)" stroke="white"/>
<rect width="236" height="92" fill="white" fill-opacity="0.2"/>
</svg>
