<svg width="20" height="20" viewBox="0 0 20 20" fill="none" xmlns="http://www.w3.org/2000/svg">
<g id="ep:arrow-left-bold" clip-path="url(#clip0_5088_5965)">
<path id="Vector" d="M2.04506 6.77802C2.27947 6.56275 2.59735 6.44182 2.92881 6.44182C3.26027 6.44182 3.57815 6.56275 3.81256 6.77802L10.0001 12.462L16.1876 6.77802C16.4233 6.56885 16.7391 6.45311 17.0668 6.45573C17.3946 6.45834 17.7081 6.5791 17.9398 6.792C18.1716 7.0049 18.3031 7.2929 18.3059 7.59398C18.3088 7.89505 18.1828 8.1851 17.9551 8.40167L10.8838 14.8974C10.6494 15.1127 10.3315 15.2336 10.0001 15.2336C9.6686 15.2336 9.35072 15.1127 9.11631 14.8974L2.04506 8.40167C1.81072 8.18634 1.67908 7.89432 1.67908 7.58984C1.67908 7.28536 1.81072 6.99335 2.04506 6.77802Z" fill="#383940"/>
</g>
<defs>
<clipPath id="clip0_5088_5965">
<rect width="18.3723" height="20" fill="white" transform="matrix(0 -1 1 0 0 19.0723)"/>
</clipPath>
</defs>
</svg>
