<svg width="28" height="26" viewBox="0 0 28 26" fill="none" xmlns="http://www.w3.org/2000/svg">
<path d="M18.8529 5.85848L21.2293 8.1519M20.3811 3.83806L13.9553 10.0423C13.6232 10.3624 13.3968 10.7703 13.3045 11.2145L12.7109 14.0831L15.6821 13.509C16.1421 13.4201 16.564 13.2024 16.8961 12.8817L23.3219 6.67748C23.515 6.49104 23.6682 6.26971 23.7727 6.02611C23.8772 5.78252 23.931 5.52143 23.931 5.25777C23.931 4.99411 23.8772 4.73302 23.7727 4.48943C23.6682 4.24584 23.515 4.0245 23.3219 3.83806C23.1288 3.65162 22.8996 3.50373 22.6473 3.40283C22.395 3.30193 22.1246 3.25 21.8515 3.25C21.5784 3.25 21.308 3.30193 21.0557 3.40283C20.8034 3.50373 20.5742 3.65162 20.3811 3.83806Z" stroke="#383940" stroke-opacity="0.8" stroke-width="2.16667" stroke-linecap="round" stroke-linejoin="round"/>
<path d="M21.6874 16.2493V19.4993C21.6874 20.074 21.451 20.6251 21.0301 21.0314C20.6093 21.4377 20.0385 21.666 19.4434 21.666H7.1011C6.50594 21.666 5.93516 21.4377 5.51432 21.0314C5.09348 20.6251 4.85706 20.074 4.85706 19.4993V7.58268C4.85706 7.00805 5.09348 6.45695 5.51432 6.05062C5.93516 5.64429 6.50594 5.41602 7.1011 5.41602H10.4672" stroke="#383940" stroke-opacity="0.8" stroke-width="2.16667" stroke-linecap="round" stroke-linejoin="round"/>
</svg>
