<svg width="600" height="454" viewBox="0 0 600 454" fill="none" xmlns="http://www.w3.org/2000/svg">
<path d="M600 398.888H0V399.188H600V398.888Z" fill="#E6E6E6"/>
<path d="M93.8637 412.28H61.9797V412.58H93.8637V412.28Z" fill="#E6E6E6"/>
<path d="M105.396 406.28H77.916V406.58H105.396V406.28Z" fill="#E6E6E6"/>
<path d="M390.492 407.168H316.752V407.468H390.492V407.168Z" fill="#E6E6E6"/>
<path d="M415.092 407.168H397.404V407.468H415.092V407.168Z" fill="#E6E6E6"/>
<path d="M515.664 409.22H457.272V409.52H515.664V409.22Z" fill="#E6E6E6"/>
<path d="M231.804 414.008H127.848V414.308H231.804V414.008Z" fill="#E6E6E6"/>
<path d="M534.708 409.22H526.2V409.52H534.708V409.22Z" fill="#E6E6E6"/>
<path d="M284.4 345.369H52.6921C50.8769 345.366 49.1371 344.642 47.8547 343.358C46.5723 342.073 45.852 340.332 45.8521 338.517V12.8037C45.8679 10.9989 46.5951 9.27326 47.8758 8.00156C49.1565 6.72986 50.8872 6.01481 52.6921 6.01172H284.4C286.217 6.01172 287.96 6.73362 289.245 8.01861C290.53 9.30359 291.252 11.0464 291.252 12.8637V338.517C291.252 340.334 290.53 342.077 289.245 343.362C287.96 344.647 286.217 345.369 284.4 345.369ZM52.6921 6.25172C50.9564 6.2549 49.293 6.94659 48.0668 8.17497C46.8407 9.40335 46.152 11.0681 46.1521 12.8037V338.517C46.152 340.252 46.8407 341.917 48.0668 343.145C49.293 344.374 50.9564 345.066 52.6921 345.069H284.4C286.137 345.066 287.801 344.374 289.029 343.146C290.258 341.918 290.949 340.253 290.952 338.517V12.8037C290.949 11.0669 290.258 9.40228 289.029 8.17424C287.801 6.9462 286.137 6.25489 284.4 6.25172H52.6921Z" fill="#E6E6E6"/>
<path d="M543.972 345.369H312.252C310.436 345.366 308.695 344.643 307.41 343.358C306.126 342.074 305.403 340.333 305.4 338.517V12.8037C305.419 10.9978 306.149 9.27218 307.431 8.00081C308.714 6.72944 310.446 6.01478 312.252 6.01172H543.972C545.775 6.01796 547.502 6.73441 548.78 8.00577C550.059 9.27714 550.784 11.001 550.8 12.8037V338.517C550.8 340.33 550.081 342.069 548.801 343.353C547.522 344.638 545.785 345.362 543.972 345.369ZM312.252 6.25172C310.515 6.25489 308.85 6.9462 307.622 8.17424C306.394 9.40228 305.703 11.0669 305.7 12.8037V338.517C305.703 340.253 306.394 341.918 307.622 343.146C308.85 344.374 310.515 345.066 312.252 345.069H543.972C545.709 345.066 547.373 344.374 548.601 343.146C549.829 341.918 550.521 340.253 550.524 338.517V12.8037C550.521 11.0669 549.829 9.40228 548.601 8.17424C547.373 6.9462 545.709 6.25489 543.972 6.25172H312.252Z" fill="#E6E6E6"/>
<path d="M184.114 192.517C187.455 178.025 178.415 163.569 163.923 160.229C149.431 156.889 134.975 165.929 131.635 180.42C128.294 194.912 137.334 209.368 151.826 212.708C166.318 216.049 180.774 207.009 184.114 192.517Z" fill="#F0F0F0"/>
<path d="M341.496 180.898C338.148 173.698 340.812 168.479 349.02 168.479C354.156 168.479 360.54 170.518 366.756 173.818C367.464 171.934 369.432 170.806 372.612 170.806C378.216 170.806 385.932 174.298 391.98 179.206C393.847 177.958 396.046 177.301 398.292 177.322C403.656 177.106 410.136 179.11 415.776 182.374C416.107 182.061 416.497 181.816 416.924 181.656C417.35 181.495 417.804 181.421 418.26 181.438C420.048 181.498 421.803 181.932 423.413 182.711C425.023 183.49 426.452 184.598 427.608 185.962C427.74 186.118 427.848 186.286 427.968 186.442H337.332C334.464 183.886 337.632 181.03 341.496 180.898Z" fill="#F5F5F5"/>
<path d="M164.928 236.614L239.184 219.61V398.889H164.928V236.614Z" fill="#FAFAFA"/>
<path d="M277.716 219.61H239.184V398.889H277.716V219.61Z" fill="#EBEBEB"/>
<path d="M265.128 398.888H328.332V176.734H265.128V398.888Z" fill="#FAFAFA"/>
<path d="M361.128 176.734H328.332V398.888H361.128V176.734Z" fill="#EBEBEB"/>
<path d="M273.636 176.734H328.332V160.223H273.636V176.734Z" fill="#FAFAFA"/>
<path d="M273.636 176.734H328.332V173.026H273.636V176.734Z" fill="#EBEBEB"/>
<path d="M352.632 160.223H328.332V176.735H352.632V160.223Z" fill="#EBEBEB"/>
<path d="M282.132 160.223H328.32V143.711H282.132V160.223Z" fill="#FAFAFA"/>
<path d="M282.132 160.223H328.32V156.515H282.132V160.223Z" fill="#EBEBEB"/>
<path d="M344.124 143.723H328.332V160.235H344.124V143.723Z" fill="#EBEBEB"/>
<path d="M314.664 120.659H311.592V143.723H314.664V120.659Z" fill="#EBEBEB"/>
<path d="M350.652 398.888H396.804V205.606H350.652V398.888Z" fill="#FAFAFA"/>
<path d="M420.768 205.606H396.816V398.889H420.768V205.606Z" fill="#EBEBEB"/>
<path d="M408.792 244.81L443.784 274.809V398.888H408.792V244.81Z" fill="#FAFAFA"/>
<path d="M461.952 274.81H443.784V398.888H461.952V274.81Z" fill="#EBEBEB"/>
<path d="M461.952 274.809H443.784L408.792 244.81H426.948L461.952 274.809Z" fill="#EBEBEB"/>
<path d="M527.88 398.888C528.395 396.006 529.62 393.297 531.445 391.007C533.27 388.717 535.637 386.918 538.332 385.772C535.966 389.717 534.892 394.303 535.26 398.888H527.88Z" fill="#EBEBEB"/>
<path d="M223.56 398.888C223.045 396.006 221.82 393.297 219.995 391.007C218.17 388.717 215.803 386.918 213.108 385.772C215.474 389.717 216.548 394.303 216.18 398.888H223.56Z" fill="#EBEBEB"/>
<path d="M70.644 398.889C70.644 398.889 70.056 383.529 63.636 379.065C66.264 385.341 65.7 398.889 65.7 398.889H70.644Z" fill="#EBEBEB"/>
<path d="M68.2322 398.889C68.2322 398.889 68.8322 390.069 75.2522 387.513C72.6122 391.113 73.1882 398.889 73.1882 398.889H68.2322Z" fill="#EBEBEB"/>
<path d="M229.056 398.889C229.056 398.889 228.408 384.345 216.768 379.065C221.976 386.529 221.676 398.889 221.676 398.889H229.056Z" fill="#EBEBEB"/>
<path d="M112.416 300.981L120.888 360.741L121.728 366.717H127.164L126.312 360.741L117.84 300.981H112.416Z" fill="#E0E0E0"/>
<path d="M345.204 300.981L353.676 360.741L354.516 366.717H359.952L359.1 360.741L350.628 300.981H345.204Z" fill="#E0E0E0"/>
<path d="M147.204 360.741L148.056 366.717L152.628 398.936H158.064L153.492 366.717L152.652 360.741H147.204Z" fill="#E6E6E6"/>
<path d="M380.004 360.741L380.856 366.717L385.416 398.936H390.84L386.28 366.717L385.44 360.741H380.004Z" fill="#E6E6E6"/>
<path d="M352.572 360.741L351.72 366.717L347.148 398.936H341.712L346.284 366.717L347.124 360.741H352.572Z" fill="#E6E6E6"/>
<path d="M119.772 360.741L118.92 366.717L114.36 398.936H108.936L113.496 366.717L114.348 360.741H119.772Z" fill="#E6E6E6"/>
<path d="M104.604 309.297H353.4L348.78 292.653H99.9841L104.604 309.297Z" fill="#F5F5F5"/>
<path d="M110.28 309.297H359.088L354.468 292.653H105.66L110.28 309.297Z" fill="#E6E6E6"/>
<path d="M108.072 330.045H356.868L352.248 313.413H103.44L108.072 330.045Z" fill="#F5F5F5"/>
<path d="M113.748 330.045H362.544L357.924 313.413H109.128L113.748 330.045Z" fill="#E6E6E6"/>
<path d="M111.528 350.829H360.336L355.716 334.197H106.908L111.528 350.829Z" fill="#F5F5F5"/>
<path d="M117.216 350.829H366.012L361.392 334.197H112.596L117.216 350.829Z" fill="#E6E6E6"/>
<path d="M388.656 360.741H140.952V366.717H388.656V360.741Z" fill="#E6E6E6"/>
<path d="M140.952 360.741H106.908V366.717H140.952V360.741Z" fill="#F5F5F5"/>
<path d="M88.2 116.975C83.556 106.943 87.252 99.8032 98.604 99.8032C105.72 99.8032 114.54 102.611 123.144 107.183C124.116 104.579 126.852 103.019 131.244 103.019C138.996 103.019 149.664 107.819 158.04 114.671C160.618 112.941 163.66 112.034 166.764 112.067C174.18 111.755 183.156 114.539 190.956 119.051C191.883 118.182 193.118 117.716 194.388 117.755C198.66 117.575 204.444 120.383 207.312 124.007C207.492 124.235 207.648 124.451 207.804 124.679H82.44C78.48 121.115 82.86 117.155 88.2 116.975Z" fill="#F5F5F5"/>
<path d="M417.492 137.663C417.808 137.645 418.124 137.645 418.44 137.663C418.152 134.387 419.844 132.287 423.48 132.287C426.711 132.506 429.839 133.515 432.588 135.227C431.652 128.867 434.664 124.727 441.456 124.727C446.94 124.727 453.888 127.415 460.752 131.807C461.352 129.311 463.368 127.811 466.752 127.811C472.752 127.811 481.152 132.443 487.992 138.971C489.789 137.337 492.139 136.445 494.568 136.475C500.244 136.175 507.3 138.875 513.552 143.171C513.853 142.777 514.245 142.462 514.694 142.253C515.144 142.044 515.637 141.947 516.132 141.971C519.24 141.815 523.512 144.203 526.008 147.395H412.5C409.824 142.451 411.948 138.215 417.492 137.663Z" fill="#F5F5F5"/>
<path d="M226.536 65.087C226.848 65.0688 227.16 65.0688 227.472 65.087C227.184 61.7991 228.888 59.7111 232.512 59.7111C235.747 59.9277 238.88 60.9374 241.632 62.6511C240.696 56.2791 243.696 52.1392 250.488 52.1392C255.984 52.1392 262.92 54.8391 269.784 59.2311C270.384 56.7351 272.4 55.2351 275.784 55.2351C281.784 55.2351 290.184 59.8551 297.024 66.395C298.825 64.7659 301.172 63.8711 303.6 63.8871C309.276 63.5991 316.332 66.287 322.584 70.583C322.886 70.1897 323.278 69.8752 323.727 69.6663C324.176 69.4573 324.669 69.3601 325.164 69.383C328.272 69.215 332.556 71.603 335.04 74.807H221.532C218.868 69.875 220.992 65.639 226.536 65.087Z" fill="#F5F5F5"/>
<path d="M509.724 378.129L488.4 356.805H471.792L490.224 375.237H485.16V398.888H504.66V378.129H509.724Z" fill="#EBEBEB"/>
<path d="M493.116 378.129L471.792 356.805L450.468 378.129H458.424V398.888H485.16V378.129H493.116Z" fill="#FAFAFA"/>
<path d="M300 453.08C428.499 453.08 532.668 446.998 532.668 439.496C532.668 431.994 428.499 425.912 300 425.912C171.501 425.912 67.332 431.994 67.332 439.496C67.332 446.998 171.501 453.08 300 453.08Z" fill="#F5F5F5"/>
<path d="M481.392 69.2756L449.412 37.2959H424.5L452.148 64.9437H444.54V100.403H473.784V69.2756H481.392Z" fill="#6484E6"/>
<path opacity="0.4" d="M481.392 69.2756L449.412 37.2959H424.5L452.148 64.9437H444.54V100.403H473.784V69.2756H481.392Z" fill="white"/>
<path d="M456.48 69.2756L424.5 37.2959L392.52 69.2756H404.46V100.403H444.54V69.2756H456.48Z" fill="#6484E6"/>
<path opacity="0.7" d="M456.48 69.2756L424.5 37.2959L392.52 69.2756H404.46V100.403H444.54V69.2756H456.48Z" fill="white"/>
<path d="M501.984 196.931L470.004 164.939H445.092L472.74 192.587H465.132V228.046H494.376V196.931H501.984Z" fill="#6484E6"/>
<path opacity="0.4" d="M501.984 196.931L470.004 164.939H445.092L472.74 192.587H465.132V228.046H494.376V196.931H501.984Z" fill="white"/>
<path d="M477.072 196.931L445.092 164.939L413.112 196.931H425.04V228.046H465.132V196.931H477.072Z" fill="#6484E6"/>
<path opacity="0.7" d="M477.072 196.931L445.092 164.939L413.112 196.931H425.04V228.046H465.132V196.931H477.072Z" fill="white"/>
<path d="M358.056 230.182L326.064 198.202H301.164L328.812 225.838H321.204V261.31H350.448V230.182H358.056Z" fill="#6484E6"/>
<path opacity="0.4" d="M358.056 230.182L326.064 198.202H301.164L328.812 225.838H321.204V261.31H350.448V230.182H358.056Z" fill="white"/>
<path d="M333.144 230.182L301.164 198.202L269.184 230.182H281.112V261.298H321.204V230.182H333.144Z" fill="#6484E6"/>
<path opacity="0.7" d="M333.144 230.182L301.164 198.202L269.184 230.182H281.112V261.298H321.204V230.182H333.144Z" fill="white"/>
<path d="M356.148 122.723H338.94L336.48 120.275L316.5 83.0752L356.148 122.723Z" fill="#2F54C6"/>
<path d="M338.88 158.854H375.132V114.887H338.88V158.854Z" fill="#6484E6"/>
<path opacity="0.3" d="M338.88 158.854H375.132V114.887H338.88V158.854Z" fill="black"/>
<path d="M353.688 120.275H384.576L344.916 80.6152H314.04L353.688 120.275Z" fill="#6484E6"/>
<path opacity="0.3" d="M353.688 120.275H384.576L344.916 80.6152H314.04L353.688 120.275Z" fill="black"/>
<path d="M338.88 109.151V158.854H289.188V109.151L314.04 85.019L314.292 85.271L316.5 87.407L338.88 109.151Z" fill="#6484E6"/>
<path opacity="0.3" d="M316.5 83.0752V100.283L294.048 122.723H289.188V110.387L314.292 85.2712L316.5 83.0752Z" fill="black"/>
<path d="M353.688 120.275H336.48L314.04 97.8231V80.6152L353.688 120.275Z" fill="#6484E6"/>
<path d="M274.38 120.275H291.588L314.04 97.8231V80.6152L274.38 120.275Z" fill="#6484E6"/>
<path d="M268.8 170.866C258.564 179.17 248.004 186.982 237.384 194.662C226.764 202.342 216 209.806 205.2 217.21C194.4 224.613 183.42 231.741 172.392 238.809C166.908 242.409 161.34 245.817 155.808 249.321C153.079 251.202 150.064 252.628 146.88 253.545C145.153 254.011 143.384 254.3 141.6 254.409C139.594 254.575 137.576 254.466 135.6 254.085C134.053 253.77 132.583 253.154 131.275 252.27C129.967 251.386 128.846 250.253 127.976 248.936C127.107 247.618 126.506 246.142 126.208 244.591C125.91 243.041 125.921 241.447 126.24 239.901C126.24 239.721 126.324 239.493 126.372 239.301C126.91 237.358 127.718 235.5 128.772 233.781C129.658 232.251 130.7 230.815 131.88 229.497C134.103 227.039 136.708 224.956 139.596 223.329C145.176 219.897 150.708 216.406 156.312 213.046C167.484 206.218 178.764 199.582 190.104 193.03C201.444 186.478 212.904 180.13 224.46 173.938C236.016 167.746 247.668 161.71 259.62 156.142C261.548 155.306 263.713 155.19 265.719 155.815C267.726 156.44 269.441 157.765 270.553 159.549C271.665 161.333 272.1 163.456 271.778 165.533C271.456 167.61 270.399 169.503 268.8 170.866Z" fill="#6484E6"/>
<path d="M268.8 170.866C258.564 179.17 248.004 186.982 237.384 194.662C226.764 202.342 216 209.806 205.2 217.21C194.4 224.613 183.42 231.741 172.392 238.809C166.908 242.409 161.34 245.817 155.808 249.321C153.079 251.202 150.064 252.628 146.88 253.545C145.153 254.011 143.384 254.3 141.6 254.409C139.594 254.575 137.576 254.466 135.6 254.085C134.053 253.77 132.583 253.154 131.275 252.27C129.967 251.386 128.846 250.253 127.976 248.936C127.107 247.618 126.506 246.142 126.208 244.591C125.91 243.041 125.921 241.447 126.24 239.901C126.24 239.721 126.324 239.493 126.372 239.301C126.91 237.358 127.718 235.5 128.772 233.781C129.658 232.251 130.7 230.815 131.88 229.497C134.103 227.039 136.708 224.956 139.596 223.329C145.176 219.897 150.708 216.406 156.312 213.046C167.484 206.218 178.764 199.582 190.104 193.03C201.444 186.478 212.904 180.13 224.46 173.938C236.016 167.746 247.668 161.71 259.62 156.142C261.548 155.306 263.713 155.19 265.719 155.815C267.726 156.44 269.441 157.765 270.553 159.549C271.665 161.333 272.1 163.456 271.778 165.533C271.456 167.61 270.399 169.503 268.8 170.866Z" fill="#6484E6"/>
<path opacity="0.5" d="M268.8 170.866C258.564 179.17 248.004 186.982 237.384 194.662C226.764 202.342 216 209.806 205.2 217.21C194.4 224.613 183.42 231.741 172.392 238.809C166.908 242.409 161.34 245.817 155.808 249.321C153.079 251.202 150.064 252.628 146.88 253.545C145.153 254.011 143.384 254.3 141.6 254.409C139.594 254.575 137.576 254.466 135.6 254.085C134.053 253.77 132.583 253.154 131.275 252.27C129.967 251.386 128.846 250.253 127.976 248.936C127.107 247.618 126.506 246.142 126.208 244.591C125.91 243.041 125.921 241.447 126.24 239.901C126.24 239.721 126.324 239.493 126.372 239.301C126.91 237.358 127.718 235.5 128.772 233.781C129.658 232.251 130.7 230.815 131.88 229.497C134.103 227.039 136.708 224.956 139.596 223.329C145.176 219.897 150.708 216.406 156.312 213.046C167.484 206.218 178.764 199.582 190.104 193.03C201.444 186.478 212.904 180.13 224.46 173.938C236.016 167.746 247.668 161.71 259.62 156.142C261.548 155.306 263.713 155.19 265.719 155.815C267.726 156.44 269.441 157.765 270.553 159.549C271.665 161.333 272.1 163.456 271.778 165.533C271.456 167.61 270.399 169.503 268.8 170.866Z" fill="white"/>
<path d="M224.52 429.164L234.312 426.896L229.728 404.06L219.936 406.328L224.52 429.164Z" fill="#EBB376"/>
<path d="M158.496 156.287C157.14 161.087 155.832 166.139 154.584 171.083C153.336 176.027 152.184 181.043 151.224 186.034C150.696 188.518 150.24 191.062 149.844 193.402C149.448 195.742 149.22 198.202 149.076 200.662C148.95 203.109 148.95 205.56 149.076 208.006C149.076 209.206 149.232 210.406 149.352 211.678C149.472 212.95 149.688 214.162 149.856 215.206L145.056 217.018C144.426 215.729 143.885 214.397 143.436 213.034C142.967 211.724 142.566 210.39 142.236 209.038C141.58 206.341 141.13 203.597 140.892 200.83C140.67 198.036 140.63 195.23 140.772 192.43C140.964 189.598 141.3 186.994 141.672 184.354C142.428 179.087 143.4 173.867 144.552 168.755C145.704 163.643 146.952 158.495 148.572 153.323L158.496 156.287Z" fill="#EBB376"/>
<path d="M144.372 157.942L154.464 165.982L160.524 170.782C160.524 170.782 161.16 169.09 161.928 166.666C163.392 161.986 165.3 154.571 163.98 151.163C161.904 145.763 157.98 140.891 153.012 141.971C148.8 142.919 144.372 157.942 144.372 157.942Z" fill="#263238"/>
<path d="M158.316 429.236H168.36L167.58 405.956H157.524L158.316 429.236Z" fill="#EBB376"/>
<path d="M229.728 404.072L232.188 416.3L222.3 418.1L219.924 406.34L229.728 404.072Z" fill="#DA9D62"/>
<path d="M157.524 405.956H167.58L167.976 417.956H157.92L157.524 405.956Z" fill="#DA9D62"/>
<path d="M190.284 202.954C190.284 202.954 184.452 271.941 178.404 310.821C173.52 342.225 169.656 415.64 169.656 415.64H156C156 415.64 149.472 344.745 151.956 313.641C158.232 235.054 147.156 221.134 160.296 202.918L190.284 202.954Z" fill="#6484E6"/>
<path opacity="0.6" d="M190.284 202.954C190.284 202.954 184.452 271.941 178.404 310.821C173.52 342.225 169.656 415.64 169.656 415.64H156C156 415.64 149.472 344.745 151.956 313.641C158.232 235.054 147.156 221.134 160.296 202.918L190.284 202.954Z" fill="black"/>
<path d="M145.716 216.238L139.788 220.27L140.628 223.714C140.628 223.714 152.976 217.306 149.676 214.738L145.716 216.238Z" fill="#EBB376"/>
<path d="M172.596 429.824C171.701 429.801 170.812 429.681 169.944 429.464C169.9 429.451 169.86 429.426 169.828 429.392C169.797 429.358 169.775 429.317 169.764 429.272C169.757 429.226 169.763 429.179 169.782 429.136C169.801 429.093 169.833 429.057 169.872 429.032C170.22 428.804 173.256 426.836 174.432 427.364C174.565 427.422 174.68 427.515 174.765 427.634C174.849 427.752 174.9 427.891 174.912 428.036C174.959 428.262 174.947 428.497 174.878 428.717C174.808 428.938 174.684 429.137 174.516 429.296C173.96 429.697 173.279 429.884 172.596 429.824ZM170.616 429.116C172.368 429.476 173.688 429.404 174.216 428.948C174.326 428.839 174.407 428.703 174.451 428.554C174.495 428.405 174.501 428.248 174.468 428.096C174.464 428.032 174.442 427.971 174.407 427.918C174.371 427.866 174.321 427.823 174.264 427.796C173.628 427.52 171.864 428.408 170.616 429.116Z" fill="#6484E6"/>
<path d="M170.004 429.464C169.965 429.477 169.923 429.477 169.884 429.464C169.849 429.442 169.819 429.412 169.798 429.377C169.778 429.341 169.766 429.301 169.764 429.26C169.764 429.128 169.764 426.236 170.868 425.264C171.001 425.139 171.161 425.045 171.336 424.991C171.51 424.937 171.695 424.924 171.876 424.952C172.065 424.953 172.248 425.02 172.395 425.14C172.541 425.26 172.642 425.427 172.68 425.612C172.908 426.812 171.072 428.924 170.124 429.464C170.085 429.475 170.043 429.475 170.004 429.464ZM171.708 425.396C171.514 425.401 171.327 425.473 171.18 425.6C170.55 426.534 170.227 427.642 170.256 428.768C171.204 428 172.356 426.368 172.212 425.684C172.212 425.576 172.128 425.432 171.816 425.396H171.708Z" fill="#6484E6"/>
<path d="M235.2 425.384C235.155 425.381 235.112 425.367 235.074 425.342C235.037 425.317 235.007 425.283 234.987 425.242C234.968 425.202 234.959 425.157 234.963 425.112C234.967 425.068 234.982 425.025 235.008 424.988C235.332 424.604 238.128 421.316 239.556 421.316H239.652C239.782 421.325 239.907 421.369 240.015 421.443C240.122 421.516 240.208 421.618 240.264 421.736C240.36 421.921 240.411 422.127 240.411 422.336C240.411 422.545 240.36 422.751 240.264 422.936C239.64 424.256 236.82 425 235.188 425.336L235.2 425.384ZM239.544 421.784C238.764 421.784 237.036 423.416 235.848 424.748C238.044 424.232 239.532 423.548 239.88 422.768C239.95 422.646 239.987 422.507 239.987 422.366C239.987 422.225 239.95 422.086 239.88 421.964C239.859 421.915 239.826 421.873 239.784 421.842C239.742 421.81 239.692 421.79 239.64 421.784H239.544Z" fill="#6484E6"/>
<path d="M235.2 425.384C235.16 425.378 235.122 425.36 235.092 425.332C235.062 425.304 235.041 425.268 235.032 425.228C235.032 425.12 234.168 422.528 234.936 421.076C235.042 420.863 235.19 420.675 235.372 420.522C235.553 420.369 235.764 420.255 235.992 420.188C236.628 419.996 236.94 420.188 237.072 420.464C237.684 421.448 236.328 424.352 235.428 425.264C235.404 425.303 235.371 425.334 235.331 425.355C235.29 425.376 235.245 425.386 235.2 425.384ZM236.4 420.584C236.309 420.57 236.215 420.57 236.124 420.584C235.956 420.632 235.8 420.714 235.666 420.826C235.532 420.938 235.422 421.076 235.344 421.232C234.996 422.325 234.996 423.499 235.344 424.592C236.196 423.392 237.024 421.244 236.664 420.656C236.624 420.608 236.57 420.574 236.509 420.561C236.448 420.548 236.384 420.556 236.328 420.584H236.4Z" fill="#6484E6"/>
<path d="M170.88 117.695C172.08 123.695 174.48 135.695 170.34 139.715C170.34 139.715 171.972 145.715 183.06 145.715C195.24 145.715 188.88 139.715 188.88 139.715C182.232 138.131 182.4 133.199 183.564 128.555L170.88 117.695Z" fill="#EBB376"/>
<path d="M195.096 104.903C194.997 104.905 194.901 104.875 194.82 104.819C194.769 104.782 194.725 104.735 194.692 104.681C194.659 104.628 194.636 104.568 194.626 104.505C194.616 104.443 194.619 104.379 194.633 104.318C194.648 104.256 194.675 104.198 194.712 104.147C195.145 103.53 195.717 103.024 196.382 102.67C197.047 102.315 197.786 102.123 198.54 102.107C198.653 102.125 198.755 102.183 198.829 102.269C198.904 102.356 198.944 102.467 198.944 102.581C198.944 102.695 198.904 102.806 198.829 102.892C198.755 102.979 198.653 103.037 198.54 103.055C197.941 103.071 197.354 103.23 196.828 103.518C196.302 103.806 195.853 104.215 195.516 104.711C195.468 104.776 195.405 104.829 195.331 104.862C195.258 104.896 195.177 104.91 195.096 104.903Z" fill="#263238"/>
<path d="M197.76 110.626C198.407 112.506 199.312 114.287 200.448 115.918C200.021 116.195 199.54 116.376 199.036 116.449C198.533 116.521 198.019 116.484 197.532 116.338L197.76 110.626Z" fill="#DE5753"/>
<path d="M197.088 109.21C197.088 110.026 197.46 110.698 197.988 110.71C198.516 110.722 198.972 110.098 199.008 109.282C199.044 108.466 198.636 107.806 198.108 107.782C197.58 107.758 197.124 108.406 197.088 109.21Z" fill="#263238"/>
<path d="M197.868 107.818L199.836 107.338C199.836 107.338 198.78 108.814 197.868 107.818Z" fill="#263238"/>
<path d="M169.2 428.072H157.908C157.713 428.064 157.522 428.131 157.373 428.257C157.224 428.384 157.128 428.562 157.104 428.756L155.82 437.684C155.793 437.91 155.814 438.139 155.883 438.357C155.951 438.574 156.066 438.774 156.218 438.943C156.37 439.113 156.557 439.247 156.766 439.339C156.975 439.43 157.2 439.475 157.428 439.472C161.364 439.412 163.26 439.172 168.228 439.172C171.288 439.172 175.74 439.496 179.964 439.496C184.188 439.496 184.404 435.32 182.652 434.948C174.78 433.244 173.532 430.916 170.88 428.684C170.408 428.292 169.814 428.075 169.2 428.072Z" fill="#263238"/>
<path d="M234.12 424.316L223.692 428.648C223.511 428.718 223.363 428.852 223.274 429.025C223.186 429.197 223.163 429.396 223.212 429.584L225.444 438.332C225.507 438.55 225.616 438.752 225.763 438.925C225.911 439.098 226.093 439.238 226.298 439.336C226.503 439.433 226.727 439.486 226.954 439.491C227.181 439.496 227.407 439.452 227.616 439.364C231.216 437.792 232.896 436.856 237.48 434.948C240.3 433.748 246.264 431.648 250.164 430.028C254.064 428.408 252.66 424.472 250.896 424.796C242.976 426.26 239.208 425.288 235.908 424.244C235.322 424.057 234.689 424.082 234.12 424.316Z" fill="#263238"/>
<path d="M211.416 152.159C213.372 156.767 215.484 161.483 217.62 166.067C218.7 168.371 219.824 170.635 220.992 172.859C222.192 175.09 223.392 177.274 224.592 179.362C225.228 180.394 225.864 181.426 226.524 182.374L227.508 183.742C227.71 184.028 227.939 184.293 228.192 184.534C229.5 185.671 231.133 186.368 232.86 186.526C236.952 187.114 242.088 186.286 246.684 185.05L248.82 189.67C247.605 190.4 246.347 191.053 245.052 191.626C243.777 192.22 242.467 192.733 241.128 193.162C238.306 194.123 235.349 194.629 232.368 194.662C230.706 194.677 229.049 194.459 227.448 194.014C225.67 193.525 223.998 192.711 222.516 191.614C221.757 191.037 221.054 190.391 220.416 189.682C219.876 189.07 219.48 188.554 219 187.978C218.1 186.85 217.296 185.71 216.492 184.57C213.502 180.071 210.808 175.381 208.428 170.531C206.028 165.731 203.868 160.931 201.876 155.963L211.416 152.159Z" fill="#EBB376"/>
<path d="M245.652 190.234L256.62 188.506L253.704 182.29C253.704 182.29 245.208 183.766 243.576 187.606L245.652 190.234Z" fill="#EBB376"/>
<path d="M256.608 183.658L255.408 181.006L253.704 182.29L256.608 188.506V183.658Z" fill="#EBB376"/>
<path d="M169.968 105.359C170.184 115.331 170.064 119.555 174.888 124.859C182.088 132.839 194.352 130.391 197.112 120.551C199.596 111.695 198.816 96.8752 189.24 92.5313C187.132 91.5645 184.811 91.1528 182.499 91.3351C180.186 91.5174 177.959 92.2878 176.028 93.573C174.097 94.8582 172.527 96.6157 171.466 98.6785C170.406 100.741 169.89 103.041 169.968 105.359Z" fill="#EBB376"/>
<path d="M161.928 87.3471C172.176 79.9192 183.624 84.1312 189.888 89.2671C196.44 94.6431 195.396 104.975 191.388 109.247C191.804 109.879 192.079 110.593 192.195 111.34C192.311 112.087 192.265 112.851 192.06 113.579C192.566 116.776 191.863 120.047 190.088 122.753C188.313 125.46 185.594 127.408 182.46 128.219L181.896 128.363C169.092 131.411 154.296 122.747 152.064 109.787C150.708 101.879 152.868 93.8991 161.928 87.3471Z" fill="#263238"/>
<path d="M189.096 109.979C189.26 111.859 190.065 113.626 191.376 114.983C193.152 116.819 194.976 115.763 195.3 113.591C195.576 111.635 194.988 108.323 192.828 107.279C190.668 106.235 188.94 107.759 189.096 109.979Z" fill="#EBB376"/>
<path opacity="0.3" d="M176.4 235.21C175.26 255.826 180.228 271.39 182.496 280.498C184.104 267.034 185.58 252.982 186.816 240.586C182.58 226.546 177.228 219.694 176.4 235.21Z" fill="black"/>
<path d="M171.54 415.904H154.08L153.156 409.784L171.636 409.16L171.54 415.904Z" fill="#6484E6"/>
<path opacity="0.3" d="M154.464 165.982L160.524 170.782C160.524 170.782 161.16 169.09 161.928 166.666L158.328 148.846L154.464 165.982Z" fill="black"/>
<path d="M167.64 89.015C170.772 85.5471 181.416 80.2551 190.548 84.4071C193.153 85.5935 195.36 87.5061 196.905 89.9155C198.451 92.3248 199.268 95.1287 199.26 97.991L191.028 103.511L167.64 89.015Z" fill="#263238"/>
<path d="M159.24 98.1229C163.764 94.4149 168.84 80.9751 159.24 85.655C149.64 90.335 146.724 108.383 159.24 98.1229Z" fill="#6484E6"/>
<path d="M160.26 89.5073C162.216 83.7953 149.316 72.4314 140.616 83.2313C131.916 94.0312 154.632 105.947 160.26 89.5073Z" fill="#263238"/>
<path d="M180.444 97.4751C172.944 94.2831 169.212 82.1872 182.088 82.5352C194.964 82.8832 194.592 103.511 180.444 97.4751Z" fill="#6484E6"/>
<path d="M178.02 91.2113C173.472 85.5353 178.5 70.9435 191.544 75.6114C204.588 80.2794 188.46 104.183 178.02 91.2113Z" fill="#263238"/>
<path d="M201.072 202.954C201.072 202.954 212.4 280.353 216.384 310.809C220.524 342.428 232.62 413.324 232.62 413.324L219.18 415.376C219.18 415.376 197.94 347.756 192.024 316.977C185.568 283.437 172.824 202.978 172.824 202.978L201.072 202.954Z" fill="#6484E6"/>
<path opacity="0.6" d="M201.072 202.954C201.072 202.954 212.4 280.353 216.384 310.809C220.524 342.428 232.62 413.324 232.62 413.324L219.18 415.376C219.18 415.376 197.94 347.756 192.024 316.977C185.568 283.437 172.824 202.978 172.824 202.978L201.072 202.954Z" fill="black"/>
<path d="M205.872 142.295C210.864 143.495 217.02 157.222 217.02 157.222L205.128 172.462C205.128 172.462 192.84 155.074 194.484 149.771C196.188 144.239 199.812 140.819 205.872 142.295Z" fill="#263238"/>
<path d="M189.6 141.671C191.244 141.911 189.72 138.155 189.036 137.759C187.464 136.823 167.436 134.939 167.664 137.051C167.785 138.311 168.326 139.495 169.2 140.411C170.1 141.011 175.2 139.355 189.6 141.671Z" fill="#6484E6"/>
<path opacity="0.6" d="M189.6 141.671C191.244 141.911 189.72 138.155 189.036 137.759C187.464 136.823 167.436 134.939 167.664 137.051C167.785 138.311 168.326 139.495 169.2 140.411C170.1 141.011 175.2 139.355 189.6 141.671Z" fill="white"/>
<path d="M205.872 142.294C205.872 142.294 210.672 143.974 201.072 202.954H160.272C160.956 186.346 160.98 176.098 153.072 141.994C158.785 140.815 164.576 140.053 170.4 139.714C176.572 139.27 182.768 139.27 188.94 139.714C196.8 140.41 205.872 142.294 205.872 142.294Z" fill="#263238"/>
<path d="M159.6 200.566L157.764 204.166C157.62 204.454 157.956 204.742 158.424 204.742H201.24C201.6 204.742 201.912 204.562 201.936 204.322L202.296 200.722C202.296 200.47 202.008 200.254 201.6 200.254H160.296C160.162 200.235 160.026 200.255 159.903 200.31C159.78 200.365 159.675 200.454 159.6 200.566Z" fill="#6484E6"/>
<path opacity="0.6" d="M159.6 200.566L157.764 204.166C157.62 204.454 157.956 204.742 158.424 204.742H201.24C201.6 204.742 201.912 204.562 201.936 204.322L202.296 200.722C202.296 200.47 202.008 200.254 201.6 200.254H160.296C160.162 200.235 160.026 200.255 159.903 200.31C159.78 200.365 159.675 200.454 159.6 200.566Z" fill="white"/>
<path d="M165.192 205.21H164.076C163.86 205.21 163.692 205.09 163.704 204.958L164.232 200.158C164.232 200.014 164.436 199.906 164.652 199.906H165.768C165.984 199.906 166.152 200.014 166.14 200.158L165.612 204.958C165.6 205.066 165.408 205.21 165.192 205.21Z" fill="#6484E6"/>
<path d="M192 205.21H190.896C190.668 205.21 190.5 205.09 190.524 204.958L191.04 200.158C191.04 200.014 191.244 199.906 191.472 199.906H192.576C192.792 199.906 192.96 200.014 192.948 200.158L192.432 204.958C192.432 205.066 192.24 205.21 192 205.21Z" fill="#6484E6"/>
<path opacity="0.6" d="M165.192 205.21H164.076C163.86 205.21 163.692 205.09 163.704 204.958L164.232 200.158C164.232 200.014 164.436 199.906 164.652 199.906H165.768C165.984 199.906 166.152 200.014 166.14 200.158L165.612 204.958C165.6 205.066 165.408 205.21 165.192 205.21Z" fill="black"/>
<path opacity="0.6" d="M192 205.21H190.896C190.668 205.21 190.5 205.09 190.524 204.958L191.04 200.158C191.04 200.014 191.244 199.906 191.472 199.906H192.576C192.792 199.906 192.96 200.014 192.948 200.158L192.432 204.958C192.432 205.066 192.24 205.21 192 205.21Z" fill="black"/>
<path d="M234.6 413.324L217.392 416.252L215.436 409.76L233.856 406.604L234.6 413.324Z" fill="#6484E6"/>
<path d="M406.092 78.3233C396.939 63.6668 383.646 52.0534 367.892 44.9518C352.139 37.8501 334.634 35.5791 317.59 38.4258C300.546 41.2725 284.729 49.1092 272.139 60.9448C259.549 72.7805 250.751 88.0836 246.858 104.919C242.965 121.755 244.152 139.367 250.268 155.528C256.384 171.689 267.155 185.674 281.219 195.714C295.283 205.754 312.008 211.398 329.28 211.933C346.552 212.467 363.594 207.869 378.252 198.718C387.986 192.642 396.428 184.707 403.095 175.368C409.762 166.028 414.525 155.467 417.11 144.287C419.695 133.107 420.053 121.528 418.162 110.209C416.272 98.8912 412.17 88.0563 406.092 78.3233ZM273.504 161.123C266.284 149.556 262.656 136.109 263.078 122.481C263.501 108.853 267.955 95.656 275.877 84.5592C283.8 73.4625 294.835 64.9641 307.588 60.1389C320.34 55.3137 334.237 54.3782 347.521 57.4509C360.805 60.5235 372.88 67.4662 382.218 77.4011C391.556 87.3359 397.739 99.8167 399.984 113.265C402.229 126.714 400.436 140.526 394.831 152.956C389.226 165.385 380.062 175.873 368.496 183.094C360.816 187.889 352.266 191.123 343.335 192.613C334.404 194.103 325.268 193.819 316.447 191.778C307.626 189.736 299.293 185.977 291.925 180.715C284.557 175.454 278.297 168.792 273.504 161.111V161.123Z" fill="#6484E6"/>
<path d="M406.092 78.3233C396.939 63.6668 383.646 52.0534 367.892 44.9518C352.139 37.8501 334.634 35.5791 317.59 38.4258C300.546 41.2725 284.729 49.1092 272.139 60.9448C259.549 72.7805 250.751 88.0836 246.858 104.919C242.965 121.755 244.152 139.367 250.268 155.528C256.384 171.689 267.155 185.674 281.219 195.714C295.283 205.754 312.008 211.398 329.28 211.933C346.552 212.467 363.594 207.869 378.252 198.718C387.986 192.642 396.428 184.707 403.095 175.368C409.762 166.028 414.525 155.467 417.11 144.287C419.695 133.107 420.053 121.528 418.162 110.209C416.272 98.8912 412.17 88.0563 406.092 78.3233ZM273.504 161.123C266.284 149.556 262.656 136.109 263.078 122.481C263.501 108.853 267.955 95.656 275.877 84.5592C283.8 73.4625 294.835 64.9641 307.588 60.1389C320.34 55.3137 334.237 54.3782 347.521 57.4509C360.805 60.5235 372.88 67.4662 382.218 77.4011C391.556 87.3359 397.739 99.8167 399.984 113.265C402.229 126.714 400.436 140.526 394.831 152.956C389.226 165.385 380.062 175.873 368.496 183.094C360.816 187.889 352.266 191.123 343.335 192.613C334.404 194.103 325.268 193.819 316.447 191.778C307.626 189.736 299.293 185.977 291.925 180.715C284.557 175.454 278.297 168.792 273.504 161.111V161.123Z" fill="#6484E6"/>
<path opacity="0.5" d="M406.092 78.3233C396.939 63.6668 383.646 52.0534 367.892 44.9518C352.139 37.8501 334.634 35.5791 317.59 38.4258C300.546 41.2725 284.729 49.1092 272.139 60.9448C259.549 72.7805 250.751 88.0836 246.858 104.919C242.965 121.755 244.152 139.367 250.268 155.528C256.384 171.689 267.155 185.674 281.219 195.714C295.283 205.754 312.008 211.398 329.28 211.933C346.552 212.467 363.594 207.869 378.252 198.718C387.986 192.642 396.428 184.707 403.095 175.368C409.762 166.028 414.525 155.467 417.11 144.287C419.695 133.107 420.053 121.528 418.162 110.209C416.272 98.8912 412.17 88.0563 406.092 78.3233ZM273.504 161.123C266.284 149.556 262.656 136.109 263.078 122.481C263.501 108.853 267.955 95.656 275.877 84.5592C283.8 73.4625 294.835 64.9641 307.588 60.1389C320.34 55.3137 334.237 54.3782 347.521 57.4509C360.805 60.5235 372.88 67.4662 382.218 77.4011C391.556 87.3359 397.739 99.8167 399.984 113.265C402.229 126.714 400.436 140.526 394.831 152.956C389.226 165.385 380.062 175.873 368.496 183.094C360.816 187.889 352.266 191.123 343.335 192.613C334.404 194.103 325.268 193.819 316.447 191.778C307.626 189.736 299.293 185.977 291.925 180.715C284.557 175.454 278.297 168.792 273.504 161.111V161.123Z" fill="white"/>
<path opacity="0.2" d="M396.24 84.479C404.172 97.1888 408.157 111.965 407.692 126.94C407.227 141.914 402.332 156.414 393.626 168.607C384.92 180.8 372.794 190.138 358.782 195.44C344.77 200.742 329.5 201.77 314.903 198.394C300.307 195.019 287.039 187.391 276.777 176.475C266.515 165.559 259.72 151.846 257.252 137.069C254.783 122.292 256.752 107.115 262.908 93.4566C269.065 79.7982 279.133 68.272 291.84 60.3352C300.28 55.0637 309.675 51.5066 319.49 49.867C329.305 48.2274 339.347 48.5375 349.042 50.7796C358.736 53.0216 367.895 57.1518 375.993 62.934C384.092 68.7162 390.971 76.0373 396.24 84.479Z" fill="#FAFAFA"/>
<path opacity="0.1" d="M407.004 113.879L289.404 187.294C279.814 180.787 271.846 172.166 266.112 162.095L394.512 81.9233C401.064 91.4803 405.338 102.412 407.004 113.879Z" fill="#E6E6E6"/>
</svg>
