<svg width="600" height="599" viewBox="0 0 600 599" fill="none" xmlns="http://www.w3.org/2000/svg">
<path d="M300 598.898C465.685 598.898 600 521.347 600 425.684C600 330.021 465.685 252.471 300 252.471C134.315 252.471 0 330.021 0 425.684C0 521.347 134.315 598.898 300 598.898Z" fill="#F5F5F5"/>
<path d="M418.068 368.779L519.116 427.108C520.389 427.848 521.835 428.237 523.307 428.237C524.78 428.237 526.226 427.848 527.499 427.108L583.719 394.626C584.098 394.406 584.413 394.091 584.632 393.711C584.851 393.332 584.966 392.901 584.966 392.463C584.966 392.025 584.851 391.594 584.632 391.214C584.413 390.835 584.098 390.519 583.719 390.3L482.698 332.119C481.427 331.387 479.986 331.001 478.52 331.001C477.053 331.001 475.613 331.387 474.342 332.119L418.082 364.44C417.702 364.66 417.387 364.976 417.167 365.356C416.947 365.736 416.831 366.167 416.829 366.606C416.828 367.045 416.942 367.476 417.159 367.858C417.376 368.239 417.69 368.557 418.068 368.779Z" fill="#E0E0E0"/>
<path d="M338.555 347.083L95.4999 487.747C93.5206 488.896 91.2752 489.506 88.9868 489.518C86.6984 489.53 84.4468 488.942 82.4558 487.814L19.3177 452.081C18.6619 451.704 18.117 451.161 17.7381 450.507C17.3592 449.852 17.1597 449.109 17.1597 448.353C17.1597 447.597 17.3592 446.854 17.7381 446.199C18.117 445.545 18.6619 445.002 19.3177 444.625L261.916 304.512C263.89 303.378 266.124 302.774 268.4 302.76C270.677 302.746 272.918 303.322 274.906 304.432L338.501 340.071C339.124 340.418 339.644 340.924 340.007 341.537C340.371 342.15 340.566 342.849 340.571 343.562C340.576 344.274 340.393 344.976 340.038 345.595C339.684 346.213 339.172 346.727 338.555 347.083Z" fill="#E0E0E0"/>
<path d="M377.458 488.258C414.295 488.258 444.156 471.015 444.156 449.744C444.156 428.473 414.295 411.229 377.458 411.229C340.622 411.229 310.76 428.473 310.76 449.744C310.76 471.015 340.622 488.258 377.458 488.258Z" fill="#E0E0E0"/>
<path d="M521.722 471.895C534.565 471.895 544.976 465.881 544.976 458.461C544.976 451.042 534.565 445.028 521.722 445.028C508.88 445.028 498.469 451.042 498.469 458.461C498.469 465.881 508.88 471.895 521.722 471.895Z" fill="#E0E0E0"/>
<path d="M522.474 246.802L522.501 424.086L579.916 390.905V213.795L522.474 246.802Z" fill="#E6E6E6"/>
<path d="M424.959 367.772L522.501 424.086V246.963L424.986 190.824L424.959 367.772Z" fill="#EBEBEB"/>
<path d="M424.959 190.649L522.501 246.963L579.916 213.795L482.415 157.643L424.959 190.649Z" fill="#F5F5F5"/>
<path d="M436.391 255.48L510.505 298.28C510.829 298.465 511.195 298.562 511.569 298.562C511.942 298.562 512.308 298.463 512.632 298.277C512.955 298.091 513.224 297.823 513.412 297.501C513.6 297.178 513.7 296.812 513.702 296.439V258.838C513.697 257.91 513.445 256.999 512.974 256.199C512.502 255.399 511.826 254.738 511.015 254.284L437.023 211.646C436.698 211.46 436.33 211.363 435.956 211.364C435.581 211.365 435.214 211.464 434.89 211.652C434.566 211.84 434.298 212.109 434.111 212.434C433.924 212.758 433.826 213.126 433.826 213.5V250.926C433.817 251.843 434.05 252.747 434.5 253.546C434.95 254.345 435.603 255.012 436.391 255.48Z" fill="#FAFAFA"/>
<path d="M480.266 246.063C480.01 246.061 479.76 245.991 479.54 245.862L466.456 238.339C466.155 238.127 465.944 237.81 465.865 237.451C465.785 237.091 465.842 236.715 466.026 236.396C466.209 236.076 466.504 235.837 466.855 235.724C467.205 235.612 467.585 235.634 467.92 235.786L481.005 243.323C481.263 243.493 481.462 243.74 481.571 244.03C481.68 244.32 481.695 244.636 481.613 244.935C481.531 245.233 481.356 245.498 481.114 245.691C480.872 245.884 480.575 245.996 480.266 246.009V246.063Z" fill="#E0E0E0"/>
<path d="M436.392 307.978L510.505 350.765C510.829 350.95 511.196 351.047 511.569 351.047C511.942 351.046 512.309 350.948 512.632 350.762C512.955 350.576 513.224 350.308 513.412 349.986C513.6 349.663 513.7 349.297 513.702 348.924V311.31C513.696 310.381 513.444 309.471 512.972 308.671C512.5 307.871 511.825 307.211 511.016 306.756L437.023 264.212C436.699 264.026 436.333 263.929 435.959 263.929C435.586 263.93 435.22 264.028 434.896 264.214C434.573 264.4 434.304 264.668 434.116 264.99C433.928 265.313 433.828 265.679 433.826 266.052V303.478C433.828 304.386 434.066 305.278 434.515 306.067C434.965 306.855 435.612 307.514 436.392 307.978Z" fill="#FAFAFA"/>
<path d="M480.266 298.549C480.012 298.545 479.763 298.481 479.54 298.36L466.456 290.824C466.155 290.612 465.944 290.295 465.865 289.936C465.785 289.577 465.842 289.2 466.026 288.881C466.209 288.562 466.504 288.322 466.855 288.21C467.205 288.097 467.585 288.119 467.92 288.272L481.005 295.808C481.263 295.978 481.462 296.226 481.571 296.515C481.68 296.805 481.695 297.122 481.613 297.42C481.531 297.719 481.356 297.983 481.114 298.177C480.872 298.37 480.575 298.481 480.266 298.495V298.549Z" fill="#E0E0E0"/>
<path d="M436.392 360.464L510.505 403.25C510.829 403.436 511.196 403.533 511.569 403.533C511.942 403.532 512.309 403.434 512.632 403.248C512.955 403.062 513.224 402.794 513.412 402.471C513.6 402.149 513.7 401.783 513.702 401.41V363.796C513.696 362.867 513.444 361.957 512.972 361.157C512.5 360.357 511.825 359.696 511.016 359.242L437.023 316.603C436.699 316.418 436.332 316.32 435.959 316.321C435.586 316.321 435.22 316.419 434.896 316.606C434.573 316.792 434.304 317.059 434.116 317.382C433.928 317.704 433.828 318.07 433.826 318.444V355.883C433.814 356.805 434.045 357.713 434.495 358.517C434.946 359.321 435.6 359.993 436.392 360.464Z" fill="#FAFAFA"/>
<path d="M480.266 351.034C480.012 351.037 479.761 350.972 479.541 350.846L466.456 343.309C466.289 343.213 466.143 343.085 466.026 342.933C465.908 342.78 465.822 342.606 465.772 342.42C465.723 342.234 465.71 342.04 465.735 341.849C465.76 341.659 465.823 341.475 465.919 341.308C466.015 341.141 466.143 340.995 466.296 340.878C466.449 340.761 466.623 340.675 466.81 340.626C466.996 340.578 467.19 340.566 467.381 340.593C467.572 340.621 467.755 340.685 467.92 340.784L481.005 348.307C481.172 348.403 481.318 348.531 481.435 348.683C481.553 348.836 481.639 349.01 481.689 349.196C481.738 349.382 481.751 349.576 481.726 349.767C481.701 349.958 481.638 350.142 481.542 350.308C481.414 350.533 481.228 350.719 481.004 350.846C480.779 350.974 480.524 351.039 480.266 351.034Z" fill="#E0E0E0"/>
<path d="M485.935 68.2822V115.663L526.975 139.346V91.9657L485.935 68.2822Z" fill="#FAFAFA"/>
<path d="M490.382 70.8347L527.029 91.9658V134.215L490.435 113.097V70.8347M488.205 66.9927L485.989 68.336V115.717L527.029 139.346L529.245 138.003V90.6896L488.152 66.9927H488.205Z" fill="#E0E0E0"/>
<path d="M488.152 72.1111L524.745 93.2422V135.491L488.152 114.36V72.1111ZM485.935 68.269V115.65L527.029 139.346V91.966L485.935 68.2825V68.269Z" fill="#EBEBEB"/>
<path d="M491.953 104.822L522.998 122.742L513.823 98.8843L507.483 106.421L500.981 97.1782L491.953 104.822Z" fill="#E0E0E0"/>
<path d="M502.727 89.9375C502.78 90.9204 503.064 91.8768 503.557 92.7289C504.049 93.581 504.736 94.3046 505.562 94.8408C507.12 95.7409 508.396 95.002 508.396 93.2019C508.341 92.2196 508.056 91.264 507.564 90.4122C507.071 89.5605 506.385 88.8364 505.562 88.2986C503.99 87.3986 502.727 88.124 502.727 89.9375Z" fill="#E0E0E0"/>
<path d="M539.267 125.63V163.379L571.951 182.253V144.505L539.267 125.63Z" fill="#FAFAFA"/>
<path d="M542.8 127.686L571.951 144.505V178.236L542.8 161.404V127.82M541.026 124.744L539.267 125.765V163.513L571.951 182.267L573.724 181.246V143.497L541.026 124.69V124.744Z" fill="#E0E0E0"/>
<path d="M541.026 128.707L570.177 145.526V179.19L541.026 162.358V128.707ZM539.267 125.63V163.379L571.951 182.267V144.518L539.267 125.711V125.63Z" fill="#EBEBEB"/>
<path d="M544.062 154.742L568.78 169.022L561.486 150.013L556.421 156.031L551.25 148.656L544.062 154.742Z" fill="#E0E0E0"/>
<path d="M552.633 142.893C552.676 143.676 552.903 144.438 553.295 145.117C553.687 145.796 554.233 146.373 554.89 146.802C556.139 147.514 557.147 146.936 557.147 145.459C557.106 144.675 556.88 143.913 556.488 143.233C556.095 142.554 555.548 141.977 554.89 141.549C553.641 140.864 552.633 141.455 552.633 142.893Z" fill="#E0E0E0"/>
<path d="M523.092 424.233C523.092 424.233 508.799 410.275 516.94 386.901C521.494 373.803 536.593 364.184 545.15 363.271C542.303 366.655 540.033 370.486 538.434 374.609L527.606 381.809L537.56 378.693L535.438 387.21C535.438 387.21 526.182 392.812 524.812 394.034L534.793 391.428C534.793 391.428 534.068 415.555 523.092 424.233Z" fill="#6484E6"/>
<path opacity="0.4" d="M523.092 424.233C523.092 424.233 508.799 410.275 516.94 386.901C521.494 373.803 536.593 364.184 545.15 363.271C542.303 366.655 540.033 370.486 538.434 374.609L527.606 381.809L537.56 378.693L535.438 387.21C535.438 387.21 526.182 392.812 524.812 394.034L534.793 391.428C534.793 391.428 534.068 415.555 523.092 424.233Z" fill="black"/>
<path d="M523.093 424.233C523.093 424.233 515.691 395.028 526.639 377.994C526.639 377.994 513.81 393.026 523.093 424.233Z" fill="white"/>
<path d="M539.441 428.182L521.977 427.967H521.803L504.339 428.182C504.339 428.182 504.138 449.676 510.774 458.489C512.614 460.826 516.9 462.519 521.91 462.519C526.921 462.519 531.233 460.866 533.06 458.489C539.643 449.703 539.441 428.182 539.441 428.182Z" fill="#37474F"/>
<path d="M539.441 428.182C539.441 433.395 531.582 437.586 521.87 437.586C512.157 437.586 504.299 433.354 504.299 428.182C504.299 423.01 512.171 418.779 521.87 418.779C531.569 418.779 539.441 422.97 539.441 428.182Z" fill="#455A64"/>
<path d="M521.87 425.684C527.915 425.684 533.033 427.618 534.847 430.305C535.288 429.684 535.532 428.944 535.545 428.182C535.545 424.461 529.419 421.465 521.87 421.465C514.32 421.465 508.194 424.488 508.194 428.182C508.206 428.946 508.455 429.688 508.906 430.305C510.706 427.618 515.825 425.684 521.87 425.684Z" fill="#263238"/>
<path d="M521.87 425.684C515.825 425.684 510.707 427.618 508.906 430.305C510.707 432.992 515.825 434.939 521.87 434.939C527.915 434.939 533.033 432.992 534.847 430.305C533.033 427.618 527.915 425.684 521.87 425.684Z" fill="#E0E0E0"/>
<path d="M522.085 431.474C522.085 431.474 515.368 431.218 509.511 422.218C507.106 418.51 505.951 416.562 505.951 416.562L515.355 415.85L504.782 413.163L499.785 405.52L508.557 404.862C504.94 403.6 501.174 402.819 497.353 402.537C497.353 402.537 489.293 388.244 486.889 386.202C493.031 386.576 499.036 388.18 504.547 390.919C510.057 393.659 514.962 397.477 518.968 402.148C532.227 417.879 524.06 431.877 522.085 431.474Z" fill="#6484E6"/>
<path d="M522.085 431.474C522.085 431.474 526.33 405.95 499.248 390.608C499.288 390.608 527.351 404.096 522.085 431.474Z" fill="white"/>
<path d="M522.085 431.473C522.085 431.473 528.224 431.876 534.31 424.313C536.822 421.183 538.044 419.531 538.044 419.531L529.594 418.013L539.387 416.669L544.613 410.235L536.754 408.824C540.137 408.025 543.611 407.677 547.085 407.79C547.085 407.79 555.736 395.699 558.06 394.034C552.508 393.786 546.963 394.652 541.752 396.581C536.54 398.51 531.767 401.462 527.714 405.264C514.226 418.254 520.312 431.648 522.085 431.473Z" fill="#6484E6"/>
<path opacity="0.2" d="M522.085 431.473C522.085 431.473 528.224 431.876 534.31 424.313C536.822 421.183 538.044 419.531 538.044 419.531L529.594 418.013L539.387 416.669L544.613 410.235L536.754 408.824C540.137 408.025 543.611 407.677 547.085 407.79C547.085 407.79 555.736 395.699 558.06 394.034C552.508 393.786 546.963 394.652 541.752 396.581C536.54 398.51 531.767 401.462 527.714 405.264C514.226 418.254 520.312 431.648 522.085 431.473Z" fill="black"/>
<path d="M522.085 431.473C522.085 431.473 520.661 408.058 546.507 396.747C546.507 396.747 519.922 406.272 522.085 431.473Z" fill="white"/>
<path d="M255.387 105.493L249.275 103.008L248.657 102.753H248.59C247.494 102.357 246.325 102.206 245.164 102.31C244.004 102.415 242.88 102.772 241.873 103.357L32.1201 224.421C27.7121 226.961 24.0514 230.618 21.5067 235.024C18.962 239.429 17.6232 244.428 17.6252 249.515V432.132C17.6263 434.073 18.1383 435.979 19.1097 437.66C20.0811 439.34 21.4777 440.735 23.1592 441.704C24.8406 442.674 26.7476 443.183 28.6885 443.182C30.6293 443.181 32.5356 442.669 34.2158 441.697L244.17 320.485C247.166 318.754 249.653 316.265 251.381 313.268C253.11 310.27 254.019 306.871 254.017 303.411V110.396C254.021 109.014 253.669 107.654 252.996 106.447L255.387 105.493Z" fill="#6484E6"/>
<path opacity="0.3" d="M255.387 105.493L249.275 103.008L248.657 102.753H248.59C247.494 102.357 246.325 102.206 245.164 102.31C244.004 102.415 242.88 102.772 241.873 103.357L32.1201 224.421C27.7121 226.961 24.0514 230.618 21.5067 235.024C18.962 239.429 17.6232 244.428 17.6252 249.515V432.132C17.6263 434.073 18.1383 435.979 19.1097 437.66C20.0811 439.34 21.4777 440.735 23.1592 441.704C24.8406 442.674 26.7476 443.183 28.6885 443.182C30.6293 443.181 32.5356 442.669 34.2158 441.697L244.17 320.485C247.166 318.754 249.653 316.265 251.381 313.268C253.11 310.27 254.019 306.871 254.017 303.411V110.396C254.021 109.014 253.669 107.654 252.996 106.447L255.387 105.493Z" fill="black"/>
<path d="M259.579 112.6V305.682C259.581 309.142 258.67 312.541 256.939 315.536C255.208 318.532 252.717 321.017 249.718 322.743L39.7639 443.968C38.0821 444.936 36.1754 445.444 34.235 445.443C32.2946 445.442 30.3886 444.93 28.7081 443.96C27.0277 442.99 25.6318 441.595 24.6603 439.915C23.6889 438.236 23.1761 436.33 23.1733 434.39V251.692C23.1745 246.686 24.4752 241.765 26.9482 237.412C28.8213 234.183 31.5258 231.516 34.78 229.688L251.639 104.473C253.742 104.538 255.739 105.413 257.213 106.915C258.687 108.416 259.525 110.429 259.552 112.533L259.579 112.6Z" fill="#6484E6"/>
<path opacity="0.1" d="M259.579 112.6V305.682C259.581 309.142 258.67 312.541 256.939 315.536C255.208 318.532 252.717 321.017 249.718 322.743L39.7639 443.968C38.0821 444.936 36.1754 445.444 34.235 445.443C32.2946 445.442 30.3886 444.93 28.7081 443.96C27.0277 442.99 25.6318 441.595 24.6603 439.915C23.6889 438.236 23.1761 436.33 23.1733 434.39V251.692C23.1745 246.686 24.4752 241.765 26.9482 237.412C28.8213 234.183 31.5258 231.516 34.78 229.688L251.639 104.473C253.742 104.538 255.739 105.413 257.213 106.915C258.687 108.416 259.525 110.429 259.552 112.533L259.579 112.6Z" fill="black"/>
<path d="M249.718 322.742L39.7638 443.967C38.1386 444.918 36.2958 445.434 34.4132 445.464C32.5307 445.495 30.672 445.039 29.0168 444.142L154.38 255.466L259.578 305.668C259.579 309.129 258.668 312.529 256.937 315.527C255.206 318.524 252.716 321.013 249.718 322.742Z" fill="#6484E6"/>
<path opacity="0.2" d="M249.718 322.742L39.7638 443.967C38.1386 444.918 36.2958 445.434 34.4132 445.464C32.5307 445.495 30.672 445.039 29.0168 444.142L154.38 255.466L259.578 305.668C259.579 309.129 258.668 312.529 256.937 315.527C255.206 318.524 252.716 321.013 249.718 322.742Z" fill="black"/>
<path d="M256.045 105.91L170.433 284.994C168.746 288.512 166.352 291.645 163.399 294.195C160.446 296.746 156.999 298.659 153.272 299.815C149.546 300.972 145.621 301.346 141.743 300.916C137.865 300.485 134.118 299.258 130.736 297.313L26.948 237.452C28.7196 234.306 31.3038 231.694 34.4305 229.889L251.639 104.473C253.217 104.51 254.749 105.01 256.045 105.91Z" fill="#6484E6"/>
<path d="M48.4954 179.956L109.995 144.438V100.416L65.3008 125.053C60.2104 127.855 55.9655 131.972 53.0094 136.974C50.0532 141.977 48.4943 147.681 48.4954 153.492V179.956Z" fill="#6484E6"/>
<path opacity="0.5" d="M48.4954 179.956L109.995 144.438V100.416L65.3008 125.053C60.2104 127.855 55.9655 131.972 53.0094 136.974C50.0532 141.977 48.4943 147.681 48.4954 153.492V179.956Z" fill="white"/>
<path d="M302.687 9.46949L297.058 6.28572C289.909 2.15216 281.794 -0.0164218 273.536 9.36324e-05C265.279 0.0166091 257.172 2.21764 250.04 6.37975L74.1536 108.852C66.3462 113.398 59.8681 119.914 55.3657 127.747C50.8634 135.58 48.4945 144.457 48.4954 153.492C48.4948 148.85 49.7198 144.291 52.0466 140.275C54.3734 136.259 57.7195 132.929 61.7464 130.621C65.7733 128.313 70.3382 127.109 74.9795 127.132C79.6208 127.154 84.1739 128.402 88.1783 130.748L95.54 135.061C103.205 139.547 109.562 145.961 113.981 153.664C118.4 161.368 120.726 170.094 120.728 178.975V440.313L108.732 470.768L131.26 457.052L312.359 351.974C318.791 348.244 324.13 342.889 327.838 336.445C331.547 330.001 333.496 322.695 333.49 315.26V62.922C333.488 52.0947 330.642 41.4578 325.236 32.0767C319.83 22.6956 312.054 14.8996 302.687 9.46949Z" fill="#6484E6"/>
<path opacity="0.7" d="M302.687 9.46949L297.058 6.28572C289.909 2.15216 281.794 -0.0164218 273.536 9.36324e-05C265.279 0.0166091 257.172 2.21764 250.04 6.37975L74.1536 108.852C66.3462 113.398 59.8681 119.914 55.3657 127.747C50.8634 135.58 48.4945 144.457 48.4954 153.492C48.4948 148.85 49.7198 144.291 52.0466 140.275C54.3734 136.259 57.7195 132.929 61.7464 130.621C65.7733 128.313 70.3382 127.109 74.9795 127.132C79.6208 127.154 84.1739 128.402 88.1783 130.748L95.54 135.061C103.205 139.547 109.562 145.961 113.981 153.664C118.4 161.368 120.726 170.094 120.728 178.975V440.313L108.732 470.768L131.26 457.052L312.359 351.974C318.791 348.244 324.13 342.889 327.838 336.445C331.547 330.001 333.496 322.695 333.49 315.26V62.922C333.488 52.0947 330.642 41.4578 325.236 32.0767C319.83 22.6956 312.054 14.8996 302.687 9.46949Z" fill="white"/>
<path d="M55.7898 447.017C55.7898 447.017 68.404 465.461 88.6753 471.573C110.478 478.142 120.728 463.688 120.728 444.518V409.846L55.7898 447.017Z" fill="#6484E6"/>
<path opacity="0.5" d="M55.7898 447.017C55.7898 447.017 68.404 465.461 88.6753 471.573C110.478 478.142 120.728 463.688 120.728 444.518V409.846L55.7898 447.017Z" fill="white"/>
<path d="M159.914 261.525C159.478 261.518 159.057 261.37 158.713 261.102C158.369 260.834 158.123 260.461 158.01 260.04C157.898 259.619 157.926 259.173 158.09 258.769C158.254 258.366 158.545 258.027 158.92 257.804L293.256 180.211C293.714 179.947 294.258 179.876 294.768 180.014C295.278 180.151 295.713 180.485 295.976 180.943C296.24 181.401 296.311 181.945 296.174 182.455C296.036 182.965 295.702 183.4 295.244 183.664L160.908 261.256C160.605 261.429 160.263 261.522 159.914 261.525Z" fill="white"/>
<path d="M159.914 291.28C159.477 291.279 159.053 291.135 158.706 290.868C158.36 290.602 158.111 290.229 157.998 289.807C157.885 289.385 157.914 288.937 158.08 288.534C158.247 288.13 158.542 287.792 158.92 287.573L293.256 209.966C293.714 209.703 294.258 209.632 294.768 209.769C295.278 209.906 295.713 210.241 295.977 210.699C296.24 211.156 296.311 211.7 296.174 212.21C296.037 212.721 295.702 213.155 295.245 213.419L160.908 291.079C160.599 291.229 160.257 291.298 159.914 291.28Z" fill="white"/>
<path d="M159.914 321.023C159.477 321.022 159.052 320.877 158.706 320.611C158.36 320.345 158.111 319.972 157.998 319.55C157.884 319.128 157.913 318.68 158.08 318.276C158.247 317.872 158.542 317.535 158.92 317.315L293.256 239.723C293.71 239.487 294.238 239.435 294.729 239.578C295.221 239.721 295.638 240.048 295.894 240.492C296.151 240.935 296.226 241.46 296.105 241.957C295.984 242.454 295.676 242.886 295.244 243.162L160.908 320.754C160.605 320.927 160.263 321.02 159.914 321.023Z" fill="white"/>
<path d="M159.914 350.765C159.477 350.764 159.052 350.619 158.706 350.353C158.36 350.086 158.111 349.713 157.998 349.291C157.884 348.869 157.913 348.422 158.08 348.018C158.247 347.614 158.542 347.276 158.92 347.057L293.256 269.464C293.71 269.228 294.238 269.176 294.729 269.32C295.221 269.463 295.638 269.79 295.894 270.233C296.151 270.676 296.226 271.201 296.105 271.699C295.984 272.196 295.676 272.628 295.244 272.903L160.908 350.496C160.608 350.675 160.264 350.768 159.914 350.765Z" fill="white"/>
<path d="M159.914 380.506C159.477 380.506 159.052 380.361 158.706 380.094C158.36 379.828 158.111 379.455 157.998 379.033C157.884 378.611 157.913 378.164 158.08 377.76C158.247 377.356 158.542 377.018 158.92 376.799L293.256 299.206C293.71 298.97 294.238 298.918 294.729 299.061C295.221 299.205 295.638 299.532 295.894 299.975C296.151 300.418 296.226 300.943 296.105 301.44C295.984 301.938 295.676 302.369 295.244 302.645L160.908 380.238C160.608 380.417 160.264 380.51 159.914 380.506Z" fill="white"/>
<path d="M248.133 359.309C247.784 359.311 247.44 359.22 247.138 359.045C246.835 358.871 246.585 358.618 246.413 358.315C246.158 357.861 246.092 357.325 246.227 356.823C246.363 356.321 246.69 355.892 247.139 355.628L293.283 328.949C293.737 328.713 294.265 328.661 294.756 328.804C295.248 328.947 295.665 329.275 295.921 329.718C296.178 330.161 296.253 330.686 296.132 331.183C296.011 331.68 295.703 332.112 295.271 332.388L249.127 359.053C248.823 359.222 248.48 359.31 248.133 359.309Z" fill="white"/>
<path d="M253.466 149.542L214.75 171.896V152.82C214.75 139.561 222.81 124.153 232.765 118.403L235.451 116.858C245.392 111.109 253.466 117.207 253.466 130.467V149.542Z" fill="#6484E6"/>
<path d="M262.48 155.87L205.736 188.634L214.75 167.758L253.466 145.405L262.48 155.87Z" fill="#6484E6"/>
<path d="M234.175 123.924C232.496 124.891 231.139 124.112 231.139 122.178V114.749C231.198 113.697 231.503 112.673 232.03 111.76C232.558 110.848 233.292 110.072 234.175 109.496C235.841 108.529 237.198 109.308 237.198 111.243V118.685C237.139 119.734 236.834 120.754 236.31 121.664C235.785 122.574 235.054 123.348 234.175 123.924Z" fill="#6484E6"/>
<path d="M227.66 178.773C227.821 182.629 230.642 184.147 234.108 182.145C235.924 180.958 237.447 179.374 238.561 177.512C239.676 175.65 240.353 173.56 240.543 171.398L227.66 178.773Z" fill="#6484E6"/>
<path d="M424.96 120.686C440.562 120.686 453.211 108.038 453.211 92.4355C453.211 76.833 440.562 64.1846 424.96 64.1846C409.357 64.1846 396.709 76.833 396.709 92.4355C396.709 108.038 409.357 120.686 424.96 120.686Z" fill="#6484E6"/>
<path d="M419.922 114.399C419.922 114.399 422.448 123.373 412.225 131.702C412.225 131.702 427.969 130.117 428.829 115.152L419.922 114.399Z" fill="#6484E6"/>
<path d="M427.74 95.0418H421.668L420.15 80.4663H429.258L427.74 95.0418ZM424.704 104.445C424.145 104.484 423.584 104.409 423.055 104.225C422.526 104.041 422.039 103.753 421.624 103.376C421.209 103 420.874 102.544 420.639 102.035C420.404 101.526 420.275 100.975 420.258 100.415C420.378 99.3202 420.899 98.3082 421.719 97.5731C422.54 96.8379 423.603 96.4314 424.704 96.4314C425.806 96.4314 426.869 96.8379 427.689 97.5731C428.51 98.3082 429.03 99.3202 429.151 100.415C429.131 100.973 428.998 101.521 428.762 102.027C428.526 102.532 428.19 102.985 427.776 103.359C427.361 103.732 426.875 104.018 426.348 104.2C425.82 104.383 425.261 104.457 424.704 104.419V104.445Z" fill="white"/>
<path d="M369.183 201.637C366.275 201.412 363.356 201.907 360.685 203.079C358.014 204.25 355.673 206.062 353.869 208.354C347.891 216.226 335.236 234.845 335.236 234.845C335.236 234.845 329.944 228.975 326.478 224.851C323.012 220.727 319.761 217.234 319.761 217.234C319.305 215.014 318.964 212.772 318.74 210.517C318.444 207.32 318.014 205.144 315.677 202.954C313.34 200.764 311.553 198.709 311.365 197.043C311.177 195.377 310.021 193.712 308.544 195.418C307.066 197.124 307.2 202.363 310.29 205.856C310.29 205.856 304.769 203.29 302.23 200.281C299.691 197.271 296.413 192.032 294.962 193.483C293.512 194.934 290.731 210.557 294.962 214.037C299.194 217.516 309.659 223.44 309.659 223.44C309.659 223.44 323.334 256.917 332.953 256.917C342.571 256.917 358.477 232.172 358.477 232.172L369.183 201.637Z" fill="#FFA8A7"/>
<path d="M352.109 376.409L355.078 421.828C355.078 421.828 357.764 426.637 362.936 426.637L367.638 421.506C367.574 415.431 368.082 409.363 369.156 403.384C370.903 394.209 374.288 380.788 375.268 373.037L352.109 376.409Z" fill="#FFA8A7"/>
<path d="M354.782 273.803C354.782 273.803 352.418 289.077 351.249 303.935C350.322 315.783 349.718 332.212 349.503 338.378C349.452 339.991 349.487 341.606 349.61 343.215L352.109 376.409C352.109 376.409 366.792 382.857 375.296 373.037C375.296 373.037 376.33 363.526 374.852 356.917C373.987 352.744 374.093 348.428 375.161 344.303L384.363 307.333V273.48L354.782 273.803Z" fill="#37474F"/>
<path d="M361.916 286.47C362.537 289.185 363.89 291.678 365.827 293.679C367.764 295.68 370.211 297.112 372.904 297.822L378.399 331.271L386.459 301.959V286.47H361.916Z" fill="#263238"/>
<path d="M390.476 383.18L399.758 434.376H409.793C409.793 434.376 413.595 391.24 413.393 379.472L390.476 383.18Z" fill="#FFA8A7"/>
<path d="M359.471 273.467C359.471 273.467 357.509 293.228 375.188 294.961L384.363 353.814L390.476 383.166C390.476 383.166 404.796 392.503 413.393 379.458C413.393 379.458 414.267 364.681 410.707 354.499C409.778 351.854 409.394 349.048 409.578 346.251C410.572 331.823 413.313 289.493 411.969 280.117L403.13 268.55L359.471 273.467Z" fill="#37474F"/>
<path d="M391.658 203.76H400.631L406.636 233.73L402.687 246.56C401.852 249.219 402.044 252.095 403.224 254.62C405.911 260.477 410.895 271.922 411.983 280.144C409.47 280.328 406.955 279.826 404.705 278.693C402.455 277.56 400.555 275.837 399.207 273.709C399.207 273.709 391.671 283.636 373.334 283.636C364.441 283.636 357.214 277.094 354.782 273.816L358.074 258.959C358.346 257.752 358.446 256.513 358.369 255.278C358.195 252.202 357.859 245.874 357.939 241.065C357.939 241.065 349.422 237.68 351.612 227.202C353.802 216.723 369.183 201.678 369.183 201.678L375.779 201.933L391.658 203.76Z" fill="#6484E6"/>
<path d="M370.016 145.996C370.016 145.996 359.135 142.221 356.475 153.358C353.815 164.494 362.01 175.308 349.758 179.016C349.758 179.016 356.985 185.034 363.353 173.79L368.726 196.627C368.726 196.627 368.726 197.877 366.819 198.83C366.819 198.83 397.716 205.709 403.667 190.287C404.487 191.174 405.047 192.271 405.284 193.456C405.521 194.641 405.426 195.869 405.011 197.004C405.011 197.004 414.132 193.309 411.566 181.501C411.566 181.501 418.78 181.3 420.5 175.429C420.5 175.429 408.96 175.98 409.027 163.245C409.108 148.535 401.37 150.671 401.37 150.671C401.37 150.671 391.899 136.592 370.016 145.996Z" fill="#455A64"/>
<path d="M375.779 192.073V201.893C375.779 201.893 365.61 213.204 375.524 214.104C385.438 215.004 391.644 203.76 391.644 203.76V182.992L375.779 192.073Z" fill="#FFA8A7"/>
<path d="M391.483 179.714V180.278C387.95 194.249 378.748 197.285 375.779 197.997L375.672 176.382L391.04 176.302L391.483 179.714Z" fill="#F28F8F"/>
<path d="M376.786 148.682C370.916 149.166 358.718 153.451 358.544 168.913C358.369 184.375 360.72 196.17 368.74 196.654C376.76 197.137 394.667 189.937 395.5 169.786C396.332 149.636 382.496 148.145 376.786 148.682Z" fill="#FFA8A7"/>
<path d="M369.358 175.052L369.505 184.133L364.159 182.589L369.358 175.052Z" fill="#F28F8F"/>
<path d="M377.337 174.811C377.345 175.178 377.244 175.54 377.046 175.85C376.847 176.16 376.562 176.403 376.224 176.55C375.887 176.697 375.514 176.741 375.152 176.675C374.79 176.609 374.456 176.437 374.192 176.181C373.929 175.924 373.747 175.596 373.671 175.236C373.594 174.876 373.627 174.502 373.764 174.16C373.9 173.819 374.136 173.526 374.44 173.319C374.744 173.112 375.102 173 375.47 172.997C375.712 172.992 375.953 173.035 376.179 173.123C376.404 173.212 376.61 173.344 376.783 173.513C376.957 173.682 377.096 173.883 377.191 174.106C377.286 174.329 377.336 174.568 377.337 174.811Z" fill="#263238"/>
<path d="M365.153 173.695C365.158 173.938 365.116 174.179 365.027 174.406C364.939 174.632 364.806 174.838 364.638 175.013C364.469 175.188 364.268 175.328 364.045 175.424C363.822 175.521 363.582 175.572 363.339 175.576C362.972 175.584 362.611 175.483 362.302 175.285C361.992 175.087 361.748 174.802 361.601 174.466C361.454 174.129 361.41 173.757 361.475 173.396C361.539 173.034 361.71 172.7 361.965 172.436C362.22 172.171 362.547 171.989 362.906 171.911C363.265 171.833 363.639 171.863 363.981 171.998C364.322 172.133 364.616 172.367 364.825 172.669C365.033 172.971 365.148 173.328 365.153 173.695Z" fill="#263238"/>
<path d="M374.355 187.076C372.342 187.589 370.359 188.217 368.417 188.956C368.417 188.956 367.867 185.799 370.486 185.074C371.263 184.91 372.073 185.019 372.778 185.384C373.483 185.749 374.04 186.347 374.355 187.076Z" fill="#F28F8F"/>
<path d="M364.481 166.858L360.895 169.048C360.895 169.048 362.238 170.472 363.662 169.585C364.057 169.266 364.346 168.834 364.493 168.348C364.639 167.861 364.635 167.342 364.481 166.858Z" fill="#263238"/>
<path d="M386.217 174.757C386.217 174.757 386.083 180.48 389.831 180.48H397.179V168.08C397.179 154.163 386.62 139.628 364.159 151.127C364.159 151.127 362.842 170.485 386.217 174.757Z" fill="#455A64"/>
<path d="M361.459 180.171C357.966 180.171 355.118 177.753 355.118 174.797C355.118 171.842 357.966 169.424 361.459 169.424C364.951 169.424 367.799 171.842 367.799 174.797C367.799 177.753 364.951 180.171 361.459 180.171ZM361.459 170.458C358.57 170.458 356.219 172.393 356.219 174.757C356.219 177.121 358.57 179.069 361.459 179.069C364.347 179.069 366.698 177.135 366.698 174.757C366.698 172.379 364.347 170.458 361.459 170.458Z" fill="#6484E6"/>
<path d="M377.055 180.211C373.146 180.211 369.949 177.766 369.949 174.757C369.949 171.748 373.146 169.383 377.055 169.383C380.965 169.383 384.162 171.828 384.162 174.757C384.162 177.685 380.978 180.211 377.055 180.211ZM377.055 170.485C373.791 170.485 371.118 172.406 371.118 174.757C371.118 177.108 373.804 179.042 377.055 179.042C380.306 179.042 382.993 177.121 382.993 174.757C382.993 172.392 380.333 170.485 377.055 170.485Z" fill="#6484E6"/>
<path d="M370.54 174.179H367.249V175.348H370.54V174.179Z" fill="#6484E6"/>
<path d="M392.074 174.179H383.584V175.348H392.074V174.179Z" fill="#6484E6"/>
<path d="M389.804 179.727C389.758 178.309 390.033 176.899 390.61 175.603C390.891 174.796 391.401 174.088 392.079 173.568C392.757 173.047 393.573 172.737 394.425 172.674C398.804 172.607 399.342 176.825 399.274 178.316C399.073 182.252 395.849 186.47 389.871 186.565L389.804 179.727Z" fill="#FFA8A7"/>
<path d="M400.631 203.76C400.631 203.76 390.395 228.236 406.636 233.73L410.196 226.127C410.196 226.127 439.911 198.91 447.179 192.946C454.446 186.981 445.123 178.169 436.109 169.907C427.096 161.645 418.055 153.652 418.055 153.652L413.541 145.659C413.045 144.787 412.369 144.029 411.559 143.436C410.748 142.843 409.821 142.429 408.839 142.22C404.111 141.24 395.204 139.534 390.395 139.816C383.678 140.178 393.82 148.548 395.526 148.548C397.064 148.593 398.563 149.032 399.883 149.823C401.202 150.613 402.297 151.728 403.063 153.061C405.105 156.702 405.467 163.257 411.983 162.962L427.082 185.517L400.631 203.76Z" fill="#FFA8A7"/>
<path d="M427.082 185.517L432.321 192.22L424.154 187.546L427.082 185.517Z" fill="#F28F8F"/>
<path d="M335.236 234.859L339.898 240.246L337.198 231.998L335.236 234.859Z" fill="#F28F8F"/>
<path opacity="0.2" d="M375.497 241.549C375.497 241.549 388.931 242.637 393.095 229.875C393.095 229.875 393.256 246.143 375.497 241.549Z" fill="black"/>
<path d="M353.802 423.79C353.802 423.79 351.934 417.933 354.823 417.624C357.711 417.315 362.816 418.846 363.326 420.377C363.638 421.39 363.765 422.45 363.702 423.507C365.111 423.03 366.445 422.357 367.665 421.506V419.343C367.665 419.343 370.674 419.639 370.903 421.895C371.131 424.152 371.171 426.906 371.265 429.472C371.44 434.657 372.206 438.123 366.308 439.655C362.103 440.711 358.306 442.993 355.4 446.21C353.384 448.339 350.874 449.936 348.092 450.862C345.311 451.788 342.344 452.013 339.454 451.517C330.575 450.281 331.085 442.785 334.215 440.38C337.224 438.165 340.441 436.249 343.82 434.657L353.802 423.79Z" fill="#6484E6"/>
<path d="M350.631 440.354C350.498 440.357 350.366 440.322 350.252 440.253C350.138 440.184 350.045 440.084 349.986 439.964C348.561 437.671 346.295 436.026 343.673 435.383C343.577 435.362 343.487 435.323 343.406 435.267C343.326 435.211 343.258 435.14 343.205 435.058C343.153 434.975 343.117 434.883 343.101 434.787C343.084 434.69 343.087 434.592 343.108 434.496C343.129 434.403 343.168 434.314 343.223 434.235C343.278 434.157 343.349 434.09 343.43 434.039C343.511 433.987 343.602 433.953 343.696 433.937C343.791 433.921 343.888 433.924 343.982 433.946C345.494 434.311 346.918 434.974 348.171 435.897C349.423 436.82 350.479 437.983 351.276 439.319C351.337 439.43 351.368 439.555 351.366 439.682C351.363 439.809 351.328 439.933 351.262 440.042C351.197 440.15 351.104 440.24 350.994 440.302C350.883 440.364 350.758 440.395 350.631 440.394V440.354Z" fill="#FAFAFA"/>
<path d="M354.03 436.726C353.897 436.729 353.765 436.695 353.651 436.626C353.536 436.557 353.444 436.456 353.385 436.336C351.96 434.043 349.694 432.399 347.071 431.756C346.881 431.714 346.715 431.598 346.61 431.435C346.504 431.271 346.467 431.073 346.507 430.882C346.526 430.787 346.564 430.697 346.619 430.617C346.673 430.537 346.743 430.469 346.825 430.416C346.906 430.363 346.997 430.328 347.093 430.311C347.188 430.294 347.286 430.296 347.38 430.318C348.894 430.681 350.319 431.344 351.572 432.267C352.824 433.189 353.88 434.354 354.675 435.692C354.766 435.863 354.786 436.063 354.731 436.249C354.675 436.435 354.549 436.592 354.379 436.686C354.267 436.724 354.148 436.738 354.03 436.726Z" fill="#FAFAFA"/>
<path d="M357.429 433.099C357.296 433.1 357.166 433.063 357.052 432.995C356.938 432.926 356.846 432.827 356.784 432.71C355.352 430.423 353.088 428.781 350.47 428.129C350.283 428.084 350.12 427.968 350.017 427.804C349.914 427.641 349.879 427.444 349.919 427.256C349.937 427.161 349.973 427.071 350.027 426.991C350.08 426.911 350.149 426.843 350.229 426.79C350.309 426.737 350.399 426.701 350.494 426.684C350.589 426.668 350.686 426.67 350.779 426.691C352.294 427.056 353.72 427.719 354.975 428.641C356.23 429.564 357.288 430.728 358.087 432.065C358.177 432.238 358.195 432.439 358.137 432.626C358.08 432.812 357.95 432.968 357.778 433.059C357.666 433.099 357.547 433.113 357.429 433.099Z" fill="#FAFAFA"/>
<path d="M399.758 434.375C399.648 433.802 399.673 433.211 399.829 432.648C399.986 432.086 400.27 431.567 400.661 431.133C401.051 430.698 401.536 430.36 402.078 430.144C402.621 429.928 403.206 429.841 403.788 429.889C408.49 429.889 411.848 430.023 411.432 433.516V436.014C411.432 436.014 411.432 448.467 412.372 452.497C413.312 456.528 415.623 469.29 406.031 471.157C396.44 473.024 392.947 464.843 394.693 457.092C395.776 452.723 396.433 448.261 396.655 443.766C396.87 440.931 395.782 430.56 398.898 429.889L399.758 434.375Z" fill="#6484E6"/>
<path d="M408.544 449.797C408.42 449.794 408.299 449.757 408.194 449.689C405.758 448.521 402.962 448.352 400.403 449.219C400.313 449.254 400.217 449.27 400.121 449.267C400.025 449.263 399.93 449.241 399.843 449.201C399.755 449.161 399.676 449.104 399.611 449.034C399.546 448.963 399.495 448.88 399.463 448.789C399.428 448.699 399.412 448.602 399.415 448.505C399.418 448.408 399.44 448.312 399.48 448.223C399.52 448.135 399.577 448.055 399.647 447.988C399.718 447.922 399.801 447.87 399.892 447.836C401.361 447.331 402.914 447.122 404.464 447.221C406.013 447.32 407.528 447.726 408.92 448.413C409.089 448.512 409.212 448.673 409.262 448.862C409.313 449.05 409.286 449.251 409.188 449.421C409.125 449.536 409.032 449.632 408.918 449.698C408.805 449.764 408.675 449.799 408.544 449.797Z" fill="#FAFAFA"/>
<path d="M409.054 444.223C408.928 444.217 408.804 444.185 408.691 444.129C406.263 442.953 403.469 442.779 400.913 443.645C400.822 443.695 400.722 443.725 400.618 443.732C400.515 443.74 400.411 443.725 400.314 443.689C400.216 443.653 400.128 443.597 400.054 443.524C399.981 443.451 399.924 443.363 399.887 443.266C399.85 443.17 399.834 443.066 399.841 442.962C399.847 442.859 399.876 442.758 399.925 442.667C399.974 442.575 400.042 442.495 400.124 442.432C400.207 442.369 400.302 442.325 400.403 442.302C401.867 441.79 403.42 441.577 404.968 441.677C406.517 441.776 408.029 442.185 409.417 442.879C409.501 442.926 409.575 442.988 409.635 443.063C409.695 443.138 409.739 443.225 409.766 443.317C409.792 443.41 409.8 443.507 409.788 443.602C409.777 443.698 409.746 443.79 409.699 443.873C409.631 443.983 409.536 444.072 409.423 444.134C409.31 444.195 409.183 444.226 409.054 444.223Z" fill="#FAFAFA"/>
<path d="M409.565 438.728C409.439 438.722 409.315 438.69 409.202 438.634C406.766 437.467 403.972 437.293 401.411 438.15C401.319 438.202 401.218 438.233 401.113 438.241C401.008 438.25 400.903 438.236 400.804 438.2C400.706 438.163 400.616 438.106 400.542 438.032C400.467 437.958 400.41 437.869 400.373 437.77C400.337 437.672 400.322 437.566 400.331 437.462C400.339 437.357 400.37 437.255 400.421 437.164C400.472 437.072 400.543 436.993 400.628 436.931C400.713 436.869 400.81 436.827 400.913 436.807C402.378 436.294 403.931 436.081 405.479 436.18C407.028 436.28 408.54 436.689 409.927 437.384C410.012 437.431 410.086 437.493 410.146 437.568C410.206 437.644 410.25 437.73 410.277 437.822C410.303 437.915 410.31 438.012 410.299 438.107C410.287 438.203 410.257 438.295 410.21 438.378C410.142 438.488 410.047 438.577 409.934 438.639C409.82 438.7 409.693 438.731 409.565 438.728Z" fill="#FAFAFA"/>
<path d="M340.462 436.377C338.284 437.566 336.197 438.913 334.215 440.407C331.085 442.812 330.575 450.308 339.454 451.544C343.193 452.159 347.03 451.591 350.43 449.918C350.013 447.014 348.885 444.259 347.146 441.896C345.407 439.534 343.111 437.638 340.462 436.377Z" fill="white"/>
<path d="M366.308 438.513C362.103 439.569 358.307 441.851 355.4 445.068C353.384 447.197 350.874 448.794 348.092 449.72C345.311 450.646 342.344 450.871 339.454 450.375C334.484 449.689 332.456 447.03 332.187 444.397C331.932 447.352 333.759 450.724 339.454 451.516C342.344 452.012 345.311 451.788 348.092 450.862C350.874 449.936 353.384 448.338 355.4 446.21C358.307 442.993 362.103 440.711 366.308 439.655C370.956 438.459 371.467 436.041 371.386 432.535C371.292 435.423 370.432 437.505 366.308 438.513Z" fill="#37474F"/>
<path d="M413.232 457.401C410.807 454.93 407.507 453.513 404.046 453.455C400.585 453.397 397.24 454.704 394.734 457.092C392.987 464.843 396.48 473.024 406.072 471.157C413.03 469.747 413.742 462.734 413.232 457.401Z" fill="#F5F5F5"/>
<path d="M406.125 469.639C398.415 471.144 394.653 466.146 394.371 460.101C394.049 466.818 397.77 472.783 406.125 471.157C412.318 469.948 413.554 464.225 413.407 459.228C413.205 463.809 411.633 468.551 406.125 469.639Z" fill="#455A64"/>
</svg>
