<svg width="28" height="28" viewBox="0 0 28 28" fill="none" xmlns="http://www.w3.org/2000/svg">
<g clip-path="url(#clip0_655_156)">
<path d="M28 11.6667V22.1667C28 25.3867 25.3867 28 22.1667 28H5.83333C2.61333 28 0 25.3867 0 22.1667V9.33333C0 6.11333 2.61333 3.5 5.83333 3.5H15.1667C15.8083 3.5 16.3333 4.025 16.3333 4.66667C16.3333 5.30833 15.8083 5.83333 15.1667 5.83333H5.83333C4.49167 5.83333 3.33667 6.59167 2.74167 7.68833L11.5267 16.4733C12.8917 17.8383 15.1083 17.8383 16.4733 16.4733L20.93 12.0167C21.385 11.5617 22.12 11.5617 22.575 12.0167C23.03 12.4717 23.03 13.2067 22.575 13.6617L18.1183 18.1183C16.9867 19.25 15.4817 19.8217 13.9883 19.8217C12.495 19.8217 11.0017 19.25 9.85833 18.1183L2.33333 10.5817V22.1667C2.33333 24.0917 3.90833 25.6667 5.83333 25.6667H22.1667C24.0917 25.6667 25.6667 24.0917 25.6667 22.1667V11.6667C25.6667 11.025 26.1917 10.5 26.8333 10.5C27.475 10.5 28 11.025 28 11.6667ZM18.6667 4.66667C18.6667 2.08833 20.755 0 23.3333 0C25.9117 0 28 2.08833 28 4.66667C28 7.245 25.9117 9.33333 23.3333 9.33333C20.755 9.33333 18.6667 7.245 18.6667 4.66667ZM21 4.66667C21 5.95 22.05 7 23.3333 7C24.6167 7 25.6667 5.95 25.6667 4.66667C25.6667 3.38333 24.6167 2.33333 23.3333 2.33333C22.05 2.33333 21 3.38333 21 4.66667Z" fill="#383940"/>
</g>
<defs>
<clipPath id="clip0_655_156">
<rect width="28" height="28" fill="white"/>
</clipPath>
</defs>
</svg>
