<svg width="20" height="20" viewBox="0 0 20 20" fill="none" xmlns="http://www.w3.org/2000/svg">
<path d="M8.125 12.8202C8.13642 13.2269 8.30601 13.6132 8.59773 13.8969C8.88944 14.1806 9.28028 14.3394 9.6872 14.3394C10.0941 14.3395 10.485 14.1809 10.7768 13.8973C11.0687 13.6138 11.2384 13.2276 11.25 12.8208V2.80457C11.2385 2.39782 11.0688 2.01159 10.7771 1.72796C10.4853 1.44432 10.0944 1.28564 9.6875 1.28564C9.28059 1.28564 8.88971 1.44432 8.59794 1.72796C8.30617 2.01159 8.13651 2.39782 8.125 2.80457V12.8202ZM8.125 17.1877C8.125 18.0471 8.82812 18.7502 9.6875 18.7502C10.5469 18.7502 11.25 18.0471 11.25 17.1877C11.25 16.3283 10.5469 15.6252 9.6875 15.6252C9.2735 15.6265 8.87684 15.7916 8.5841 16.0843C8.29136 16.377 8.12632 16.7737 8.125 17.1877Z" fill="#383940"/>
</svg>
