<svg width="28" height="28" viewBox="0 0 28 28" fill="none" xmlns="http://www.w3.org/2000/svg">
<path d="M19.8333 2.33325C19.5239 2.33325 19.2271 2.45617 19.0084 2.67496C18.7896 2.89375 18.6666 3.1905 18.6666 3.49992C18.6666 3.80934 18.7896 4.10608 19.0084 4.32488C19.2271 4.54367 19.5239 4.66659 19.8333 4.66659H21.6836L16.6751 9.67509C16.4626 9.89512 16.345 10.1898 16.3477 10.4957C16.3504 10.8016 16.473 11.0942 16.6894 11.3105C16.9057 11.5269 17.1983 11.6495 17.5042 11.6522C17.8101 11.6549 18.1048 11.5373 18.3248 11.3248L23.3333 6.31625V8.16659C23.3333 8.47601 23.4562 8.77275 23.675 8.99154C23.8938 9.21034 24.1906 9.33325 24.5 9.33325C24.8094 9.33325 25.1061 9.21034 25.3249 8.99154C25.5437 8.77275 25.6666 8.47601 25.6666 8.16659V3.49992C25.6666 3.1905 25.5437 2.89375 25.3249 2.67496C25.1061 2.45617 24.8094 2.33325 24.5 2.33325H19.8333ZM4.66665 21.6836V19.8333C4.66665 19.5238 4.54373 19.2271 4.32494 19.0083C4.10615 18.7895 3.8094 18.6666 3.49998 18.6666C3.19056 18.6666 2.89381 18.7895 2.67502 19.0083C2.45623 19.2271 2.33331 19.5238 2.33331 19.8333V24.4999C2.33331 24.8093 2.45623 25.1061 2.67502 25.3249C2.89381 25.5437 3.19056 25.6666 3.49998 25.6666H8.16665C8.47607 25.6666 8.77281 25.5437 8.9916 25.3249C9.2104 25.1061 9.33331 24.8093 9.33331 24.4999C9.33331 24.1905 9.2104 23.8938 8.9916 23.675C8.77281 23.4562 8.47607 23.3333 8.16665 23.3333H6.31631L11.3248 18.3248C11.5373 18.1047 11.6549 17.81 11.6523 17.5041C11.6496 17.1982 11.5269 16.9056 11.3106 16.6893C11.0943 16.473 10.8017 16.3503 10.4958 16.3476C10.1899 16.345 9.89518 16.4626 9.67515 16.6751L4.66665 21.6836Z" fill="#6484E6"/>
</svg>
