<svg width="24" height="16" viewBox="0 0 24 16" fill="none" xmlns="http://www.w3.org/2000/svg">
<path d="M23.1868 7.69622C23.154 7.62216 22.3599 5.86059 20.5946 4.09528C18.2424 1.74309 15.2715 0.499969 12.0015 0.499969C8.73146 0.499969 5.76052 1.74309 3.40833 4.09528C1.64302 5.86059 0.845206 7.62497 0.816143 7.69622C0.773499 7.79214 0.751465 7.89594 0.751465 8.00091C0.751465 8.10588 0.773499 8.20968 0.816143 8.30559C0.848956 8.37966 1.64302 10.1403 3.40833 11.9056C5.76052 14.2568 8.73146 15.5 12.0015 15.5C15.2715 15.5 18.2424 14.2568 20.5946 11.9056C22.3599 10.1403 23.154 8.37966 23.1868 8.30559C23.2294 8.20968 23.2514 8.10588 23.2514 8.00091C23.2514 7.89594 23.2294 7.79214 23.1868 7.69622ZM12.0015 14C9.11583 14 6.59489 12.9509 4.50802 10.8828C3.65175 10.0312 2.92326 9.06024 2.34521 7.99997C2.9231 6.9396 3.65161 5.96857 4.50802 5.11716C6.59489 3.04903 9.11583 1.99997 12.0015 1.99997C14.8871 1.99997 17.408 3.04903 19.4949 5.11716C20.3528 5.96837 21.0829 6.93939 21.6624 7.99997C20.9865 9.26184 18.0418 14 12.0015 14ZM12.0015 3.49997C11.1114 3.49997 10.2414 3.76389 9.50139 4.25836C8.76137 4.75282 8.18459 5.45563 7.844 6.27789C7.5034 7.10016 7.41429 8.00496 7.58792 8.87788C7.76156 9.75079 8.19014 10.5526 8.81947 11.1819C9.44881 11.8113 10.2506 12.2399 11.1235 12.4135C11.9965 12.5871 12.9013 12.498 13.7235 12.1574C14.5458 11.8168 15.2486 11.2401 15.7431 10.5C16.2375 9.76001 16.5015 8.88999 16.5015 7.99997C16.5002 6.80688 16.0257 5.663 15.1821 4.81936C14.3384 3.97571 13.1945 3.50121 12.0015 3.49997ZM12.0015 11C11.4081 11 10.8281 10.824 10.3347 10.4944C9.8414 10.1647 9.45688 9.6962 9.22982 9.14802C9.00275 8.59984 8.94334 7.99664 9.0591 7.4147C9.17486 6.83276 9.46058 6.29821 9.88013 5.87865C10.2997 5.45909 10.8342 5.17337 11.4162 5.05761C11.9981 4.94186 12.6013 5.00127 13.1495 5.22833C13.6977 5.45539 14.1662 5.83991 14.4959 6.33326C14.8255 6.82661 15.0015 7.40662 15.0015 7.99997C15.0015 8.79562 14.6854 9.55868 14.1228 10.1213C13.5602 10.6839 12.7971 11 12.0015 11Z" fill="black"/>
</svg>
