<svg width="28" height="28" viewBox="0 0 28 28" fill="none" xmlns="http://www.w3.org/2000/svg">
<g clip-path="url(#clip0_539_178)">
<path d="M14 20.1122C14.884 20.1122 15.7318 19.761 16.3569 19.1359M14 20.1122C13.116 20.1122 12.2682 19.761 11.6431 19.1359M14 20.1122V22.6123M16.3569 19.1359C16.982 18.5108 17.3332 17.663 17.3332 16.779M16.3569 19.1359L18.1254 20.9043M17.3332 16.779C17.3332 15.895 16.982 15.0472 16.3569 14.4221M17.3332 16.779H19.8334M16.3569 14.4221C15.7318 13.797 14.884 13.4458 14 13.4458M16.3569 14.4221L18.1254 12.6548M14 13.4458C13.116 13.4458 12.2682 13.797 11.6431 14.4221M14 13.4458V10.9457M11.6431 14.4221C11.018 15.0472 10.6669 15.895 10.6669 16.779M11.6431 14.4221L9.87469 12.6548M10.6669 16.779C10.6669 17.663 11.018 18.5108 11.6431 19.1359M10.6669 16.779H8.16669M11.6431 19.1359L9.87469 20.9043M13.4447 10.9457H14.5554M17.7322 12.2617L18.5174 13.0468M19.8334 16.2237V17.3343M18.5174 20.5112L17.7322 21.2963M14.5554 22.6123H13.4447M10.2679 21.2963L9.48269 20.5112M8.16669 17.3343V16.2237M9.48269 13.0468L10.2679 12.2617" stroke="white" stroke-width="1.75" stroke-linecap="round" stroke-linejoin="round"/>
<path d="M4.375 14.4457V24.9457C4.375 25.4098 4.55937 25.8549 4.88756 26.1831C5.21575 26.5113 5.66087 26.6957 6.125 26.6957H21.875C22.3391 26.6957 22.7842 26.5113 23.1124 26.1831C23.4406 25.8549 23.625 25.4098 23.625 24.9457V14.4457M27.125 12.6957L15.5925 1.932C15.1604 1.5285 14.5912 1.30407 14 1.30407C13.4088 1.30407 12.8396 1.5285 12.4075 1.932L0.875 12.6957" stroke="white" stroke-width="1.75" stroke-linecap="round" stroke-linejoin="round"/>
</g>
<defs>
<clipPath id="clip0_539_178">
<rect width="28" height="28" fill="white"/>
</clipPath>
</defs>
</svg>
