<svg width="27" height="28" viewBox="0 0 27 28" fill="none" xmlns="http://www.w3.org/2000/svg">
<path d="M16.5375 18.9C16.806 18.9 17.0636 19.0106 17.2534 19.2075C17.4433 19.4045 17.55 19.6715 17.55 19.95C17.55 20.2285 17.4433 20.4955 17.2534 20.6925C17.0636 20.8894 16.806 21 16.5375 21H10.4625C10.194 21 9.93642 20.8894 9.74654 20.6925C9.55666 20.4955 9.44999 20.2285 9.44999 19.95C9.44999 19.6715 9.55666 19.4045 9.74654 19.2075C9.93642 19.0106 10.194 18.9 10.4625 18.9H16.5375ZM19.2375 12.95C19.506 12.95 19.7636 13.0606 19.9534 13.2575C20.1433 13.4545 20.25 13.7215 20.25 14C20.25 14.2785 20.1433 14.5455 19.9534 14.7425C19.7636 14.9394 19.506 15.05 19.2375 15.05H7.76249C7.49396 15.05 7.23642 14.9394 7.04654 14.7425C6.85666 14.5455 6.74999 14.2785 6.74999 14C6.74999 13.7215 6.85666 13.4545 7.04654 13.2575C7.23642 13.0606 7.49396 12.95 7.76249 12.95H19.2375ZM21.9375 7C22.206 7 22.4636 7.11062 22.6534 7.30754C22.8433 7.50445 22.95 7.77152 22.95 8.05C22.95 8.32848 22.8433 8.59555 22.6534 8.79246C22.4636 8.98938 22.206 9.1 21.9375 9.1H5.06249C4.79396 9.1 4.53642 8.98938 4.34654 8.79246C4.15666 8.59555 4.04999 8.32848 4.04999 8.05C4.04999 7.77152 4.15666 7.50445 4.34654 7.30754C4.53642 7.11062 4.79396 7 5.06249 7H21.9375Z" fill="white"/>
</svg>
