<svg width="32" height="32" viewBox="0 0 32 32" fill="none" xmlns="http://www.w3.org/2000/svg">
<path d="M29.074 13.389H28V13.3337H16V18.667H23.5354C22.436 21.7717 19.482 24.0003 16 24.0003C11.582 24.0003 8.00002 20.4183 8.00002 16.0003C8.00002 11.5823 11.582 8.00033 16 8.00033C18.0394 8.00033 19.8947 8.76966 21.3074 10.0263L25.0787 6.25499C22.6974 4.03566 19.512 2.66699 16 2.66699C8.63669 2.66699 2.66669 8.63699 2.66669 16.0003C2.66669 23.3637 8.63669 29.3337 16 29.3337C23.3634 29.3337 29.3334 23.3637 29.3334 16.0003C29.3334 15.1063 29.2414 14.2337 29.074 13.389Z" fill="#FFC107"/>
<path d="M4.20398 9.79433L8.58465 13.007C9.76998 10.0723 12.6406 8.00033 16 8.00033C18.0393 8.00033 19.8946 8.76966 21.3073 10.0263L25.0786 6.25499C22.6973 4.03566 19.512 2.66699 16 2.66699C10.8786 2.66699 6.43731 5.55833 4.20398 9.79433Z" fill="#FF3D00"/>
<path d="M16.0001 29.3328C19.4441 29.3328 22.5734 28.0148 24.9394 25.8715L20.8127 22.3795C19.4291 23.4317 17.7384 24.0009 16.0001 23.9995C12.5321 23.9995 9.5874 21.7881 8.47807 18.7021L4.13007 22.0521C6.33673 26.3701 10.8181 29.3328 16.0001 29.3328Z" fill="#4CAF50"/>
<path d="M29.074 13.3883H28V13.333H16V18.6663H23.5353C23.0095 20.1439 22.0622 21.4351 20.8107 22.3803L20.8127 22.379L24.9393 25.871C24.6473 26.1363 29.3333 22.6663 29.3333 15.9997C29.3333 15.1057 29.2413 14.233 29.074 13.3883Z" fill="#1976D2"/>
</svg>
