<svg width="418" height="790" viewBox="0 0 418 790" fill="none" xmlns="http://www.w3.org/2000/svg">
<rect y="-188" width="422" height="978" rx="211" fill="#6484E6"/>
<rect y="2" width="236" height="92" fill="white" fill-opacity="0.2"/>
<line y1="-0.5" x2="42.8219" y2="-0.5" transform="matrix(-0.480552 0.876966 -0.971999 -0.234985 280.578 56)" stroke="white"/>
<line y1="-0.5" x2="42.8219" y2="-0.5" transform="matrix(-0.480552 0.876966 -0.971999 -0.234985 309.156 56.1797)" stroke="white"/>
<line y1="-0.5" x2="42.8219" y2="-0.5" transform="matrix(-0.480552 0.876966 -0.971999 -0.234985 337.734 56.3574)" stroke="white"/>
<line y1="-0.5" x2="42.8219" y2="-0.5" transform="matrix(-0.480552 0.876966 -0.971999 -0.234985 366.312 56.5371)" stroke="white"/>
<line y1="-0.5" x2="42.8219" y2="-0.5" transform="matrix(-0.480552 0.876966 -0.971999 -0.234985 394.891 56.7168)" stroke="white"/>
<circle cx="334" cy="248" r="32" fill="white"/>
<circle cx="314" cy="269" r="31.5" stroke="white"/>
<rect x="117" y="408" width="278" height="206" fill="white" fill-opacity="0.2"/>
<circle cx="212" cy="376" r="2" fill="#D9D9D9"/>
<circle cx="232" cy="376" r="2" fill="#D9D9D9"/>
<circle cx="252" cy="376" r="2" fill="#D9D9D9"/>
<circle cx="272" cy="376" r="2" fill="#D9D9D9"/>
<circle cx="292" cy="376" r="2" fill="#D9D9D9"/>
<circle cx="312" cy="376" r="2" fill="#D9D9D9"/>
<circle cx="212" cy="396" r="2" fill="#D9D9D9"/>
<circle cx="232" cy="396" r="2" fill="#D9D9D9"/>
<circle cx="252" cy="396" r="2" fill="#D9D9D9"/>
<circle cx="272" cy="396" r="2" fill="#D9D9D9"/>
<circle cx="292" cy="396" r="2" fill="#D9D9D9"/>
<circle cx="312" cy="396" r="2" fill="#D9D9D9"/>
<circle cx="212" cy="416" r="2" fill="#D9D9D9"/>
<circle cx="232" cy="416" r="2" fill="#D9D9D9"/>
<circle cx="252" cy="416" r="2" fill="#D9D9D9"/>
<circle cx="272" cy="416" r="2" fill="#D9D9D9"/>
<circle cx="292" cy="416" r="2" fill="#D9D9D9"/>
<circle cx="312" cy="416" r="2" fill="#D9D9D9"/>
<circle cx="212" cy="436" r="2" fill="#D9D9D9"/>
<circle cx="232" cy="436" r="2" fill="#D9D9D9"/>
<circle cx="252" cy="436" r="2" fill="#D9D9D9"/>
<circle cx="272" cy="436" r="2" fill="#D9D9D9"/>
<circle cx="292" cy="436" r="2" fill="#D9D9D9"/>
<circle cx="312" cy="436" r="2" fill="#D9D9D9"/>
<circle cx="212" cy="456" r="2" fill="#D9D9D9"/>
<circle cx="232" cy="456" r="2" fill="#D9D9D9"/>
<circle cx="252" cy="456" r="2" fill="#D9D9D9"/>
<circle cx="272" cy="456" r="2" fill="#D9D9D9"/>
<circle cx="292" cy="456" r="2" fill="#D9D9D9"/>
<circle cx="312" cy="456" r="2" fill="#D9D9D9"/>
<circle cx="212" cy="476" r="2" fill="#D9D9D9"/>
<circle cx="232" cy="476" r="2" fill="#D9D9D9"/>
<circle cx="252" cy="476" r="2" fill="#D9D9D9"/>
<circle cx="272" cy="476" r="2" fill="#D9D9D9"/>
<circle cx="292" cy="476" r="2" fill="#D9D9D9"/>
<circle cx="312" cy="476" r="2" fill="#D9D9D9"/>
<circle cx="212" cy="496" r="2" fill="#D9D9D9"/>
<circle cx="232" cy="496" r="2" fill="#D9D9D9"/>
<circle cx="252" cy="496" r="2" fill="#D9D9D9"/>
<circle cx="272" cy="496" r="2" fill="#D9D9D9"/>
<circle cx="292" cy="496" r="2" fill="#D9D9D9"/>
<circle cx="312" cy="496" r="2" fill="#D9D9D9"/>
<circle cx="212" cy="516" r="2" fill="#D9D9D9"/>
<circle cx="232" cy="516" r="2" fill="#D9D9D9"/>
<circle cx="252" cy="516" r="2" fill="#D9D9D9"/>
<circle cx="272" cy="516" r="2" fill="#D9D9D9"/>
<circle cx="292" cy="516" r="2" fill="#D9D9D9"/>
<circle cx="312" cy="516" r="2" fill="#D9D9D9"/>
<circle cx="212" cy="536" r="2" fill="#D9D9D9"/>
<circle cx="232" cy="536" r="2" fill="#D9D9D9"/>
<circle cx="252" cy="536" r="2" fill="#D9D9D9"/>
<circle cx="272" cy="536" r="2" fill="#D9D9D9"/>
<circle cx="292" cy="536" r="2" fill="#D9D9D9"/>
<circle cx="312" cy="536" r="2" fill="#D9D9D9"/>
<circle cx="212" cy="556" r="2" fill="#D9D9D9"/>
<circle cx="232" cy="556" r="2" fill="#D9D9D9"/>
<circle cx="252" cy="556" r="2" fill="#D9D9D9"/>
<circle cx="272" cy="556" r="2" fill="#D9D9D9"/>
<circle cx="292" cy="556" r="2" fill="#D9D9D9"/>
<circle cx="312" cy="556" r="2" fill="#D9D9D9"/>
<circle cx="212" cy="576" r="2" fill="#D9D9D9"/>
<circle cx="232" cy="576" r="2" fill="#D9D9D9"/>
<circle cx="252" cy="576" r="2" fill="#D9D9D9"/>
<circle cx="272" cy="576" r="2" fill="#D9D9D9"/>
<circle cx="292" cy="576" r="2" fill="#D9D9D9"/>
<circle cx="312" cy="576" r="2" fill="#D9D9D9"/>
<circle cx="212" cy="596" r="2" fill="#D9D9D9"/>
<circle cx="232" cy="596" r="2" fill="#D9D9D9"/>
<circle cx="252" cy="596" r="2" fill="#D9D9D9"/>
<circle cx="272" cy="596" r="2" fill="#D9D9D9"/>
<circle cx="292" cy="596" r="2" fill="#D9D9D9"/>
<circle cx="312" cy="596" r="2" fill="#D9D9D9"/>
<circle cx="212" cy="616" r="2" fill="#D9D9D9"/>
<circle cx="232" cy="616" r="2" fill="#D9D9D9"/>
<circle cx="252" cy="616" r="2" fill="#D9D9D9"/>
<circle cx="272" cy="616" r="2" fill="#D9D9D9"/>
<circle cx="292" cy="616" r="2" fill="#D9D9D9"/>
<circle cx="312" cy="616" r="2" fill="#D9D9D9"/>
<circle cx="212" cy="636" r="2" fill="#D9D9D9"/>
<circle cx="232" cy="636" r="2" fill="#D9D9D9"/>
<circle cx="252" cy="636" r="2" fill="#D9D9D9"/>
<circle cx="272" cy="636" r="2" fill="#D9D9D9"/>
<circle cx="292" cy="636" r="2" fill="#D9D9D9"/>
<circle cx="312" cy="636" r="2" fill="#D9D9D9"/>
<circle cx="212" cy="656" r="2" fill="#D9D9D9"/>
<circle cx="232" cy="656" r="2" fill="#D9D9D9"/>
<circle cx="252" cy="656" r="2" fill="#D9D9D9"/>
<circle cx="272" cy="656" r="2" fill="#D9D9D9"/>
<circle cx="292" cy="656" r="2" fill="#D9D9D9"/>
<circle cx="312" cy="656" r="2" fill="#D9D9D9"/>
<circle cx="212" cy="676" r="2" fill="#D9D9D9"/>
<circle cx="232" cy="676" r="2" fill="#D9D9D9"/>
<circle cx="252" cy="676" r="2" fill="#D9D9D9"/>
<circle cx="272" cy="676" r="2" fill="#D9D9D9"/>
<circle cx="292" cy="676" r="2" fill="#D9D9D9"/>
<circle cx="312" cy="676" r="2" fill="#D9D9D9"/>
<circle cx="212" cy="696" r="2" fill="#D9D9D9"/>
<circle cx="232" cy="696" r="2" fill="#D9D9D9"/>
<circle cx="252" cy="696" r="2" fill="#D9D9D9"/>
<circle cx="272" cy="696" r="2" fill="#D9D9D9"/>
<circle cx="292" cy="696" r="2" fill="#D9D9D9"/>
<circle cx="312" cy="696" r="2" fill="#D9D9D9"/>
<path d="M110.111 698.26L109.134 703.816L109.008 704.531L109.65 704.872L114.631 707.518L109.046 708.306L108.326 708.407L108.201 709.123L107.224 714.678L104.749 709.609L104.43 708.956L103.71 709.058L98.1247 709.845L102.181 705.925L102.703 705.42L102.384 704.767L99.9092 699.699L104.891 702.344L105.533 702.685L106.055 702.18L110.111 698.26Z" stroke="white" stroke-width="2"/>
</svg>
