<svg width="422" height="1032" viewBox="0 0 422 1032" fill="none" xmlns="http://www.w3.org/2000/svg">
<rect y="-174" width="422" height="1206" rx="211" fill="#6484E6"/>
<path d="M163.215 174.996C163.036 174.996 162.856 174.927 162.719 174.79C162.444 174.516 162.444 174.072 162.719 173.797L190.989 145.526C191.264 145.252 191.708 145.252 191.983 145.526C192.257 145.801 192.257 146.245 191.983 146.52L163.712 174.79C163.574 174.927 163.395 174.996 163.215 174.996Z" fill="white"/>
<path d="M217.145 142.479C216.85 142.479 216.562 142.507 216.278 142.548C215.947 140.782 214.853 139.287 213.352 138.417C211.892 140.369 210.289 142.368 208.537 144.416L208.71 151.236H216.171H222.578C222.981 150.425 223.212 149.514 223.212 148.547C223.212 145.195 220.496 142.479 217.145 142.479Z" fill="#F8CC1D"/>
<path d="M178.072 130.532C179.284 129.319 180.968 128.643 182.678 128.692L193.753 128.973C195.701 127.306 197.603 125.779 199.465 124.376C198.002 122.234 195.542 120.827 192.751 120.827C192.356 120.827 191.971 120.865 191.59 120.92C190.885 117.15 187.583 114.295 183.609 114.295C179.635 114.295 176.332 117.15 175.627 120.919C175.247 120.864 174.861 120.826 174.466 120.826C169.978 120.826 166.339 124.464 166.339 128.952C166.339 130.248 166.651 131.468 167.189 132.555H176.049L178.072 130.532Z" fill="#F8CC1D"/>
<path d="M208.069 133.776C206.829 133.776 205.664 133.294 204.788 132.417C203.911 131.54 203.428 130.376 203.428 129.136C203.428 127.896 203.911 126.732 204.788 125.855C205.664 124.978 206.829 124.496 208.069 124.496C209.309 124.496 210.474 124.978 211.35 125.855C212.227 126.732 212.709 127.896 212.709 129.136C212.709 130.376 212.227 131.541 211.35 132.417C210.474 133.294 209.308 133.776 208.069 133.776ZM208.069 125.901C207.205 125.901 206.392 126.237 205.781 126.848C205.17 127.459 204.833 128.272 204.833 129.136C204.833 130 205.169 130.813 205.781 131.424C206.392 132.035 207.205 132.371 208.069 132.371C208.933 132.371 209.746 132.035 210.357 131.424C210.968 130.813 211.304 130 211.304 129.136C211.304 128.272 210.968 127.459 210.357 126.848C209.745 126.237 208.933 125.901 208.069 125.901Z" fill="white"/>
<path d="M224.568 115.265C224.627 114.63 224.402 114.008 223.951 113.557C223.5 113.106 222.874 112.882 222.244 112.941C214.074 113.706 204.324 118.928 193.155 128.499L182.012 128.217C180.342 128.167 178.719 128.826 177.543 130.002L172.453 135.092C171.888 135.657 171.673 136.456 171.879 137.228C172.084 138 172.668 138.586 173.439 138.795L181.356 140.942L186.313 145.898C186.588 146.173 187.032 146.173 187.306 145.898C187.581 145.623 187.581 145.179 187.306 144.905L182.707 140.305C198.521 124.059 211.864 115.325 222.375 114.34C222.592 114.323 222.804 114.397 222.958 114.551C223.112 114.705 223.189 114.918 223.168 115.134C222.185 125.644 213.449 138.988 197.203 154.802L192.603 150.202C192.328 149.928 191.884 149.928 191.61 150.202C191.335 150.477 191.335 150.921 191.61 151.196L196.567 156.152L198.714 164.069C198.923 164.841 199.509 165.424 200.281 165.63C200.474 165.681 200.669 165.706 200.861 165.706C201.437 165.706 201.993 165.48 202.416 165.055L207.506 159.966C208.683 158.788 209.335 157.16 209.292 155.496L209.009 144.354C218.579 133.184 223.802 123.434 224.568 115.265ZM181.506 139.527L173.807 137.439C173.4 137.329 173.273 137.002 173.237 136.867C173.201 136.731 173.149 136.383 173.447 136.086L178.537 130.996C179.443 130.09 180.701 129.591 181.977 129.622L191.583 129.865C188.34 132.728 184.979 135.951 181.506 139.527ZM207.887 155.532C207.92 156.812 207.419 158.066 206.513 158.972L201.423 164.062C201.125 164.36 200.779 164.308 200.643 164.272C200.508 164.235 200.18 164.108 200.07 163.701L197.982 156.002C201.558 152.53 204.782 149.17 207.644 145.926L207.887 155.532Z" fill="white"/>
<path d="M178.936 167.399C178.756 167.399 178.576 167.331 178.439 167.194C178.165 166.919 178.165 166.475 178.439 166.2L189.922 154.716C190.197 154.442 190.641 154.442 190.916 154.716C191.19 154.991 191.19 155.435 190.916 155.71L179.433 167.194C179.295 167.331 179.115 167.399 178.936 167.399Z" fill="#F8CC1D"/>
<path d="M167.618 161.777C167.438 161.777 167.258 161.708 167.121 161.571C166.847 161.296 166.847 160.852 167.121 160.577L181.039 146.66C181.313 146.385 181.757 146.385 182.032 146.66C182.307 146.935 182.307 147.379 182.032 147.653L168.115 161.571C167.977 161.708 167.798 161.777 167.618 161.777Z" fill="#F8CC1D"/>
<path d="M186.549 168.436C186.369 168.436 186.189 168.367 186.052 168.23C185.778 167.955 185.778 167.511 186.052 167.237L192.258 161.03C192.533 160.755 192.977 160.755 193.252 161.03C193.526 161.305 193.526 161.749 193.252 162.023L187.046 168.23C186.909 168.367 186.729 168.436 186.549 168.436Z" fill="#F8CC1D"/>
<path d="M170.727 150.018C170.547 150.018 170.368 149.949 170.231 149.812C169.956 149.538 169.956 149.094 170.231 148.819L175.305 143.745C175.58 143.47 176.024 143.47 176.299 143.745C176.573 144.02 176.573 144.464 176.299 144.739L171.224 149.813C171.087 149.949 170.907 150.018 170.727 150.018Z" fill="#F8CC1D"/>
<path d="M175.282 172.548C174.894 172.548 174.579 172.234 174.579 171.846V168.856C174.579 168.467 174.894 168.153 175.282 168.153C175.669 168.153 175.984 168.467 175.984 168.856V171.846C175.984 172.234 175.67 172.548 175.282 172.548Z" fill="#F8CC1D"/>
<path d="M176.776 171.053H173.787C173.4 171.053 173.085 170.739 173.085 170.351C173.085 169.962 173.4 169.648 173.787 169.648H176.776C177.164 169.648 177.479 169.962 177.479 170.351C177.479 170.739 177.164 171.053 176.776 171.053Z" fill="#F8CC1D"/>
<path d="M167.068 155.172C166.68 155.172 166.365 154.858 166.365 154.47V151.48C166.365 151.092 166.68 150.778 167.068 150.778C167.456 150.778 167.77 151.092 167.77 151.48V154.47C167.77 154.858 167.456 155.172 167.068 155.172Z" fill="#F8CC1D"/>
<path d="M168.563 153.677H165.574C165.186 153.677 164.871 153.363 164.871 152.975C164.871 152.587 165.186 152.272 165.574 152.272H168.563C168.951 152.272 169.265 152.587 169.265 152.975C169.265 153.363 168.951 153.677 168.563 153.677Z" fill="#F8CC1D"/>
<path d="M163.595 167.341C162.996 167.341 162.433 167.107 162.009 166.683C161.585 166.26 161.352 165.696 161.352 165.097C161.352 164.499 161.585 163.935 162.009 163.51C162.884 162.636 164.307 162.636 165.182 163.51C165.606 163.935 165.839 164.498 165.839 165.097C165.839 165.697 165.606 166.259 165.182 166.684C164.758 167.107 164.195 167.341 163.595 167.341ZM163.595 164.259C163.381 164.259 163.166 164.34 163.003 164.504C162.844 164.662 162.757 164.873 162.757 165.097C162.757 165.321 162.844 165.531 163.003 165.69C163.319 166.007 163.872 166.007 164.188 165.69C164.347 165.531 164.434 165.321 164.434 165.097C164.434 164.873 164.347 164.662 164.188 164.504C164.025 164.341 163.81 164.259 163.595 164.259Z" fill="#F8CC1D"/>
<path d="M182.889 173.635C182.314 173.635 181.74 173.416 181.303 172.979C180.878 172.555 180.645 171.992 180.645 171.392C180.645 170.793 180.878 170.229 181.303 169.806C182.177 168.932 183.601 168.932 184.476 169.806C184.9 170.229 185.133 170.793 185.133 171.392C185.133 171.992 184.9 172.555 184.476 172.979C184.038 173.416 183.464 173.635 182.889 173.635ZM182.889 170.554C182.674 170.554 182.46 170.636 182.296 170.8C182.137 170.958 182.05 171.168 182.05 171.393C182.05 171.617 182.137 171.827 182.296 171.986C182.623 172.313 183.155 172.313 183.482 171.986C183.641 171.827 183.728 171.617 183.728 171.393C183.728 171.169 183.641 170.958 183.482 170.8C183.319 170.637 183.104 170.554 182.889 170.554Z" fill="#F8CC1D"/>
<path d="M60.88 165C60.288 165 59.992 164.704 59.992 164.112V148.848C59.992 148.384 60.416 148.152 61.264 148.152H61.864C62.712 148.152 63.136 148.384 63.136 148.848V162.312H68.824C69.24 162.312 69.448 162.656 69.448 163.344V163.968C69.448 164.656 69.24 165 68.824 165H60.88ZM76.873 165.168C74.761 165.168 73.209 164.608 72.217 163.488C71.225 162.368 70.729 160.808 70.729 158.808C70.729 157.272 70.961 156.024 71.425 155.064C71.905 154.104 72.577 153.4 73.441 152.952C74.305 152.504 75.321 152.28 76.489 152.28C77.705 152.28 78.681 152.552 79.417 153.096C80.169 153.624 80.721 154.36 81.073 155.304C81.425 156.232 81.601 157.296 81.601 158.496C81.601 158.608 81.529 158.768 81.385 158.976C81.257 159.184 81.105 159.368 80.929 159.528C80.753 159.688 80.617 159.768 80.521 159.768H73.897C73.977 160.84 74.281 161.608 74.809 162.072C75.337 162.52 76.057 162.744 76.969 162.744C77.545 162.744 78.041 162.672 78.457 162.528C78.889 162.384 79.241 162.248 79.513 162.12C79.801 161.976 79.993 161.904 80.089 161.904C80.233 161.904 80.393 162.016 80.569 162.24C80.745 162.448 80.889 162.68 81.001 162.936C81.129 163.176 81.193 163.368 81.193 163.512C81.193 163.768 81.049 164 80.761 164.208C80.489 164.4 80.129 164.576 79.681 164.736C79.233 164.88 78.761 164.984 78.265 165.048C77.769 165.128 77.305 165.168 76.873 165.168ZM73.897 157.608H78.601C78.601 156.712 78.425 156.008 78.073 155.496C77.737 154.968 77.201 154.704 76.465 154.704C75.777 154.704 75.201 154.928 74.737 155.376C74.289 155.824 74.009 156.568 73.897 157.608ZM88.0105 165.168C87.5465 165.168 87.1065 165.104 86.6905 164.976C86.2905 164.848 85.9385 164.64 85.6345 164.352C85.3305 164.064 85.0905 163.688 84.9145 163.224C84.7385 162.744 84.6505 162.168 84.6505 161.496V154.872H84.0025C83.5705 154.872 83.3545 154.528 83.3545 153.84V153.48C83.3545 152.792 83.5705 152.448 84.0025 152.448H84.6505L84.9625 150.096C85.0265 149.632 85.3945 149.4 86.0665 149.4H86.6425C87.3305 149.4 87.6745 149.632 87.6745 150.096V152.448H89.1385C89.5705 152.448 89.7865 152.792 89.7865 153.48V153.84C89.7865 154.528 89.5705 154.872 89.1385 154.872H87.6745V161.448C87.6745 161.928 87.7625 162.264 87.9385 162.456C88.1145 162.648 88.3625 162.744 88.6825 162.744C88.8905 162.744 89.0505 162.728 89.1625 162.696C89.2905 162.664 89.3945 162.648 89.4745 162.648C89.6185 162.648 89.7385 162.76 89.8345 162.984C89.9305 163.208 90.0025 163.448 90.0505 163.704C90.1145 163.944 90.1465 164.096 90.1465 164.16C90.1465 164.464 90.0185 164.696 89.7625 164.856C89.5065 165 89.2105 165.088 88.8745 165.12C88.5545 165.152 88.2665 165.168 88.0105 165.168ZM92.1096 153.096C91.9336 153.096 91.7336 153.064 91.5096 153C91.2856 152.92 91.1736 152.792 91.1736 152.616C91.1736 152.536 91.1896 152.44 91.2216 152.328C91.2536 152.216 91.3016 152.096 91.3656 151.968C91.5576 151.536 91.7496 151 91.9416 150.36C92.1336 149.72 92.2296 148.872 92.2296 147.816C92.2296 147.528 92.3256 147.296 92.5176 147.12C92.7256 146.944 93.0536 146.856 93.5016 146.856H93.8616C94.3096 146.856 94.6296 146.944 94.8216 147.12C95.0296 147.296 95.1336 147.52 95.1336 147.792C95.1336 148.48 95.0216 149.144 94.7976 149.784C94.5896 150.408 94.3176 150.976 93.9816 151.488C93.6616 151.984 93.3336 152.376 92.9976 152.664C92.6616 152.952 92.3656 153.096 92.1096 153.096ZM100.532 165.192C99.9076 165.192 99.2916 165.12 98.6836 164.976C98.0756 164.832 97.5796 164.64 97.1956 164.4C96.8116 164.16 96.6196 163.896 96.6196 163.608C96.6196 163.432 96.6836 163.224 96.8116 162.984C96.9396 162.728 97.0916 162.496 97.2676 162.288C97.4436 162.08 97.6036 161.976 97.7476 161.976C97.8436 161.976 98.0036 162.04 98.2276 162.168C98.4516 162.296 98.7316 162.432 99.0676 162.576C99.4196 162.704 99.8276 162.768 100.292 162.768C101.476 162.768 102.068 162.336 102.068 161.472C102.068 161.024 101.868 160.688 101.468 160.464C101.068 160.224 100.572 159.984 99.9796 159.744C99.5316 159.568 99.0676 159.352 98.5876 159.096C98.1076 158.84 97.7076 158.472 97.3876 157.992C97.0676 157.512 96.9076 156.864 96.9076 156.048C96.9076 155.264 97.0836 154.592 97.4356 154.032C97.7876 153.472 98.2836 153.04 98.9236 152.736C99.5636 152.416 100.3 152.256 101.132 152.256C101.628 152.256 102.14 152.304 102.668 152.4C103.212 152.496 103.668 152.64 104.036 152.832C104.404 153.024 104.588 153.256 104.588 153.528C104.588 153.688 104.532 153.904 104.42 154.176C104.324 154.448 104.204 154.696 104.06 154.92C103.932 155.128 103.796 155.232 103.652 155.232C103.54 155.232 103.308 155.144 102.956 154.968C102.604 154.776 102.116 154.68 101.492 154.68C101.028 154.68 100.652 154.776 100.364 154.968C100.076 155.144 99.9316 155.424 99.9316 155.808C99.9316 156.224 100.092 156.544 100.412 156.768C100.748 156.976 101.236 157.192 101.876 157.416C102.388 157.592 102.884 157.824 103.364 158.112C103.86 158.384 104.268 158.768 104.588 159.264C104.924 159.76 105.092 160.416 105.092 161.232C105.092 162 104.9 162.688 104.516 163.296C104.148 163.888 103.628 164.352 102.956 164.688C102.284 165.024 101.476 165.192 100.532 165.192ZM117.747 170.088C116.579 170.088 115.587 169.968 114.771 169.728C113.971 169.504 113.363 169.144 112.947 168.648C112.531 168.168 112.323 167.56 112.323 166.824C112.323 166.184 112.515 165.616 112.899 165.12C113.283 164.624 113.811 164.24 114.483 163.968L114.507 163.896C114.187 163.704 113.939 163.448 113.763 163.128C113.587 162.808 113.499 162.44 113.499 162.024C113.499 161.56 113.619 161.144 113.859 160.776C114.115 160.408 114.459 160.088 114.891 159.816C114.267 159.496 113.779 159.056 113.427 158.496C113.091 157.92 112.923 157.232 112.923 156.432C112.923 155.488 113.131 154.712 113.547 154.104C113.979 153.496 114.571 153.04 115.323 152.736C116.091 152.432 116.955 152.28 117.915 152.28C118.219 152.28 118.515 152.296 118.803 152.328C119.091 152.344 119.363 152.384 119.619 152.448H123.651C124.083 152.448 124.299 152.792 124.299 153.48V153.84C124.299 154.496 124.115 154.824 123.747 154.824C123.619 154.824 123.395 154.808 123.075 154.776C122.771 154.728 122.531 154.68 122.355 154.632L122.331 154.704C122.523 154.944 122.667 155.216 122.763 155.52C122.875 155.808 122.931 156.112 122.931 156.432C122.931 157.312 122.723 158.048 122.307 158.64C121.907 159.232 121.339 159.68 120.603 159.984C119.883 160.288 119.043 160.44 118.083 160.44C117.363 160.44 116.875 160.528 116.619 160.704C116.363 160.864 116.235 161.112 116.235 161.448C116.235 161.8 116.419 162.056 116.787 162.216C117.155 162.376 117.619 162.488 118.179 162.552C118.755 162.616 119.363 162.696 120.003 162.792C120.659 162.904 121.275 163.08 121.851 163.32C122.427 163.544 122.891 163.88 123.243 164.328C123.595 164.776 123.771 165.392 123.771 166.176C123.771 166.976 123.531 167.664 123.051 168.24C122.571 168.832 121.875 169.288 120.963 169.608C120.067 169.928 118.995 170.088 117.747 170.088ZM118.011 167.688C118.971 167.688 119.683 167.56 120.147 167.304C120.611 167.064 120.843 166.72 120.843 166.272C120.843 165.984 120.731 165.76 120.507 165.6C120.299 165.44 120.003 165.312 119.619 165.216C119.235 165.136 118.779 165.064 118.251 165C117.739 164.936 117.179 164.864 116.571 164.784C116.171 164.944 115.843 165.152 115.587 165.408C115.347 165.68 115.227 165.984 115.227 166.32C115.227 166.768 115.443 167.104 115.875 167.328C116.323 167.568 117.035 167.688 118.011 167.688ZM117.915 158.184C118.507 158.184 119.011 158.048 119.427 157.776C119.843 157.504 120.051 157.032 120.051 156.36C120.051 155.704 119.843 155.24 119.427 154.968C119.011 154.68 118.507 154.536 117.915 154.536C117.323 154.536 116.819 154.68 116.403 154.968C115.987 155.24 115.779 155.704 115.779 156.36C115.779 157.032 115.987 157.504 116.403 157.776C116.819 158.048 117.323 158.184 117.915 158.184ZM131.028 165.168C129.156 165.168 127.724 164.616 126.732 163.512C125.756 162.408 125.268 160.816 125.268 158.736C125.268 156.64 125.756 155.04 126.732 153.936C127.724 152.832 129.156 152.28 131.028 152.28C132.884 152.28 134.292 152.832 135.252 153.936C136.228 155.04 136.716 156.64 136.716 158.736C136.716 160.816 136.236 162.408 135.276 163.512C134.316 164.616 132.9 165.168 131.028 165.168ZM131.004 162.744C131.9 162.744 132.556 162.408 132.972 161.736C133.404 161.064 133.62 160.056 133.62 158.712C133.62 157.384 133.404 156.384 132.972 155.712C132.556 155.04 131.9 154.704 131.004 154.704C130.092 154.704 129.42 155.04 128.988 155.712C128.572 156.368 128.364 157.376 128.364 158.736C128.364 160.064 128.572 161.064 128.988 161.736C129.42 162.408 130.092 162.744 131.004 162.744ZM141.236 159.84C140.82 159.84 140.54 159.784 140.396 159.672C140.252 159.544 140.18 159.368 140.18 159.144V148.848C140.18 148.384 140.604 148.152 141.452 148.152H142.292C143.14 148.152 143.564 148.36 143.564 148.776C143.388 150.504 143.22 152.232 143.06 153.96C142.9 155.688 142.732 157.416 142.556 159.144C142.524 159.368 142.436 159.544 142.292 159.672C142.164 159.784 141.9 159.84 141.5 159.84H141.236ZM141.044 165.048C140.196 165.048 139.772 164.816 139.772 164.352V162.36C139.772 161.912 140.196 161.688 141.044 161.688H141.692C142.54 161.688 142.964 161.912 142.964 162.36V164.352C142.964 164.816 142.54 165.048 141.692 165.048H141.044Z" fill="white"/>
<path d="M119.447 913.208C119.2 913.305 118.974 913.449 118.783 913.633C118.591 913.816 118.438 914.036 118.332 914.279C118.226 914.522 118.168 914.783 118.163 915.048C118.158 915.313 118.205 915.577 118.302 915.824L123.385 928.856L110.344 933.957C110.098 934.053 109.872 934.198 109.681 934.381C109.49 934.565 109.337 934.785 109.231 935.027C109.124 935.27 109.067 935.532 109.062 935.797C109.056 936.062 109.103 936.325 109.2 936.572C109.297 936.819 109.441 937.045 109.624 937.236C109.808 937.427 110.028 937.58 110.271 937.686C110.513 937.792 110.775 937.85 111.04 937.855C111.305 937.86 111.568 937.813 111.815 937.717L124.855 932.616L129.956 945.656C130.053 945.903 130.197 946.128 130.381 946.319C130.565 946.51 130.784 946.663 131.027 946.77C131.27 946.876 131.531 946.933 131.796 946.939C132.061 946.944 132.325 946.897 132.572 946.8C132.819 946.704 133.044 946.559 133.235 946.376C133.426 946.192 133.579 945.973 133.686 945.73C133.792 945.487 133.849 945.225 133.855 944.96C133.86 944.695 133.813 944.432 133.716 944.185L128.615 931.145L141.655 926.044C141.902 925.947 142.128 925.803 142.319 925.619C142.51 925.436 142.663 925.216 142.769 924.973C142.876 924.73 142.933 924.469 142.938 924.204C142.944 923.939 142.897 923.675 142.8 923.428C142.703 923.182 142.559 922.956 142.375 922.765C142.192 922.574 141.972 922.421 141.729 922.314C141.486 922.208 141.225 922.151 140.96 922.146C140.695 922.14 140.431 922.187 140.184 922.284L127.145 927.385L122.043 914.345C121.647 913.332 120.46 912.812 119.447 913.208Z" fill="white"/>
<line x1="218" y1="87.5" x2="310" y2="87.5" stroke="white"/>
<rect x="310" width="112" height="112" fill="white" fill-opacity="0.2"/>
<circle cx="58" cy="194" r="2" fill="#D9D9D9"/>
<circle cx="78" cy="194" r="2" fill="#D9D9D9"/>
<circle cx="98" cy="194" r="2" fill="#D9D9D9"/>
<circle cx="118" cy="194" r="2" fill="#D9D9D9"/>
<circle cx="138" cy="194" r="2" fill="#D9D9D9"/>
<circle cx="158" cy="194" r="2" fill="#D9D9D9"/>
<circle cx="178" cy="194" r="2" fill="#D9D9D9"/>
<circle cx="198" cy="194" r="2" fill="#D9D9D9"/>
<circle cx="218" cy="194" r="2" fill="#D9D9D9"/>
<circle cx="238" cy="194" r="2" fill="#D9D9D9"/>
<circle cx="258" cy="194" r="2" fill="#D9D9D9"/>
<circle cx="278" cy="194" r="2" fill="#D9D9D9"/>
<circle cx="298" cy="194" r="2" fill="#D9D9D9"/>
<circle cx="58" cy="214" r="2" fill="#D9D9D9"/>
<circle cx="78" cy="214" r="2" fill="#D9D9D9"/>
<circle cx="98" cy="214" r="2" fill="#D9D9D9"/>
<circle cx="118" cy="214" r="2" fill="#D9D9D9"/>
<circle cx="138" cy="214" r="2" fill="#D9D9D9"/>
<circle cx="158" cy="214" r="2" fill="#D9D9D9"/>
<circle cx="178" cy="214" r="2" fill="#D9D9D9"/>
<circle cx="198" cy="214" r="2" fill="#D9D9D9"/>
<circle cx="218" cy="214" r="2" fill="#D9D9D9"/>
<circle cx="238" cy="214" r="2" fill="#D9D9D9"/>
<circle cx="258" cy="214" r="2" fill="#D9D9D9"/>
<circle cx="278" cy="214" r="2" fill="#D9D9D9"/>
<circle cx="298" cy="214" r="2" fill="#D9D9D9"/>
<circle cx="58" cy="234" r="2" fill="#D9D9D9"/>
<circle cx="78" cy="234" r="2" fill="#D9D9D9"/>
<circle cx="98" cy="234" r="2" fill="#D9D9D9"/>
<circle cx="118" cy="234" r="2" fill="#D9D9D9"/>
<circle cx="138" cy="234" r="2" fill="#D9D9D9"/>
<circle cx="158" cy="234" r="2" fill="#D9D9D9"/>
<circle cx="178" cy="234" r="2" fill="#D9D9D9"/>
<circle cx="198" cy="234" r="2" fill="#D9D9D9"/>
<circle cx="218" cy="234" r="2" fill="#D9D9D9"/>
<circle cx="238" cy="234" r="2" fill="#D9D9D9"/>
<circle cx="258" cy="234" r="2" fill="#D9D9D9"/>
<circle cx="278" cy="234" r="2" fill="#D9D9D9"/>
<circle cx="298" cy="234" r="2" fill="#D9D9D9"/>
<circle cx="58" cy="254" r="2" fill="#D9D9D9"/>
<circle cx="78" cy="254" r="2" fill="#D9D9D9"/>
<circle cx="98" cy="254" r="2" fill="#D9D9D9"/>
<circle cx="118" cy="254" r="2" fill="#D9D9D9"/>
<circle cx="138" cy="254" r="2" fill="#D9D9D9"/>
<circle cx="158" cy="254" r="2" fill="#D9D9D9"/>
<circle cx="178" cy="254" r="2" fill="#D9D9D9"/>
<circle cx="198" cy="254" r="2" fill="#D9D9D9"/>
<circle cx="218" cy="254" r="2" fill="#D9D9D9"/>
<circle cx="238" cy="254" r="2" fill="#D9D9D9"/>
<circle cx="258" cy="254" r="2" fill="#D9D9D9"/>
<circle cx="278" cy="254" r="2" fill="#D9D9D9"/>
<circle cx="298" cy="254" r="2" fill="#D9D9D9"/>
<circle cx="58" cy="274" r="2" fill="#D9D9D9"/>
<circle cx="78" cy="274" r="2" fill="#D9D9D9"/>
<circle cx="98" cy="274" r="2" fill="#D9D9D9"/>
<circle cx="118" cy="274" r="2" fill="#D9D9D9"/>
<circle cx="138" cy="274" r="2" fill="#D9D9D9"/>
<circle cx="158" cy="274" r="2" fill="#D9D9D9"/>
<circle cx="178" cy="274" r="2" fill="#D9D9D9"/>
<circle cx="198" cy="274" r="2" fill="#D9D9D9"/>
<circle cx="218" cy="274" r="2" fill="#D9D9D9"/>
<circle cx="238" cy="274" r="2" fill="#D9D9D9"/>
<circle cx="258" cy="274" r="2" fill="#D9D9D9"/>
<circle cx="278" cy="274" r="2" fill="#D9D9D9"/>
<circle cx="298" cy="274" r="2" fill="#D9D9D9"/>
<circle cx="58" cy="294" r="2" fill="#D9D9D9"/>
<circle cx="78" cy="294" r="2" fill="#D9D9D9"/>
<circle cx="98" cy="294" r="2" fill="#D9D9D9"/>
<circle cx="118" cy="294" r="2" fill="#D9D9D9"/>
<circle cx="138" cy="294" r="2" fill="#D9D9D9"/>
<circle cx="158" cy="294" r="2" fill="#D9D9D9"/>
<circle cx="178" cy="294" r="2" fill="#D9D9D9"/>
<circle cx="198" cy="294" r="2" fill="#D9D9D9"/>
<circle cx="218" cy="294" r="2" fill="#D9D9D9"/>
<circle cx="238" cy="294" r="2" fill="#D9D9D9"/>
<circle cx="258" cy="294" r="2" fill="#D9D9D9"/>
<circle cx="278" cy="294" r="2" fill="#D9D9D9"/>
<circle cx="298" cy="294" r="2" fill="#D9D9D9"/>
<circle cx="58" cy="314" r="2" fill="#D9D9D9"/>
<circle cx="78" cy="314" r="2" fill="#D9D9D9"/>
<circle cx="98" cy="314" r="2" fill="#D9D9D9"/>
<circle cx="118" cy="314" r="2" fill="#D9D9D9"/>
<circle cx="138" cy="314" r="2" fill="#D9D9D9"/>
<circle cx="158" cy="314" r="2" fill="#D9D9D9"/>
<circle cx="178" cy="314" r="2" fill="#D9D9D9"/>
<circle cx="198" cy="314" r="2" fill="#D9D9D9"/>
<circle cx="218" cy="314" r="2" fill="#D9D9D9"/>
<circle cx="238" cy="314" r="2" fill="#D9D9D9"/>
<circle cx="258" cy="314" r="2" fill="#D9D9D9"/>
<circle cx="278" cy="314" r="2" fill="#D9D9D9"/>
<circle cx="298" cy="314" r="2" fill="#D9D9D9"/>
<circle cx="58" cy="334" r="2" fill="#D9D9D9"/>
<circle cx="78" cy="334" r="2" fill="#D9D9D9"/>
<circle cx="98" cy="334" r="2" fill="#D9D9D9"/>
<circle cx="118" cy="334" r="2" fill="#D9D9D9"/>
<circle cx="138" cy="334" r="2" fill="#D9D9D9"/>
<circle cx="158" cy="334" r="2" fill="#D9D9D9"/>
<circle cx="178" cy="334" r="2" fill="#D9D9D9"/>
<circle cx="198" cy="334" r="2" fill="#D9D9D9"/>
<circle cx="218" cy="334" r="2" fill="#D9D9D9"/>
<circle cx="238" cy="334" r="2" fill="#D9D9D9"/>
<circle cx="258" cy="334" r="2" fill="#D9D9D9"/>
<circle cx="278" cy="334" r="2" fill="#D9D9D9"/>
<circle cx="298" cy="334" r="2" fill="#D9D9D9"/>
<circle cx="58" cy="354" r="2" fill="#D9D9D9"/>
<circle cx="78" cy="354" r="2" fill="#D9D9D9"/>
<circle cx="98" cy="354" r="2" fill="#D9D9D9"/>
<circle cx="118" cy="354" r="2" fill="#D9D9D9"/>
<circle cx="138" cy="354" r="2" fill="#D9D9D9"/>
<circle cx="158" cy="354" r="2" fill="#D9D9D9"/>
<circle cx="178" cy="354" r="2" fill="#D9D9D9"/>
<circle cx="198" cy="354" r="2" fill="#D9D9D9"/>
<circle cx="218" cy="354" r="2" fill="#D9D9D9"/>
<circle cx="238" cy="354" r="2" fill="#D9D9D9"/>
<circle cx="258" cy="354" r="2" fill="#D9D9D9"/>
<circle cx="278" cy="354" r="2" fill="#D9D9D9"/>
<circle cx="298" cy="354" r="2" fill="#D9D9D9"/>
<circle cx="58" cy="374" r="2" fill="#D9D9D9"/>
<circle cx="78" cy="374" r="2" fill="#D9D9D9"/>
<circle cx="98" cy="374" r="2" fill="#D9D9D9"/>
<circle cx="118" cy="374" r="2" fill="#D9D9D9"/>
<circle cx="138" cy="374" r="2" fill="#D9D9D9"/>
<circle cx="158" cy="374" r="2" fill="#D9D9D9"/>
<circle cx="178" cy="374" r="2" fill="#D9D9D9"/>
<circle cx="198" cy="374" r="2" fill="#D9D9D9"/>
<circle cx="218" cy="374" r="2" fill="#D9D9D9"/>
<circle cx="238" cy="374" r="2" fill="#D9D9D9"/>
<circle cx="258" cy="374" r="2" fill="#D9D9D9"/>
<circle cx="278" cy="374" r="2" fill="#D9D9D9"/>
<circle cx="298" cy="374" r="2" fill="#D9D9D9"/>
<circle cx="58" cy="394" r="2" fill="#D9D9D9"/>
<circle cx="78" cy="394" r="2" fill="#D9D9D9"/>
<circle cx="98" cy="394" r="2" fill="#D9D9D9"/>
<circle cx="118" cy="394" r="2" fill="#D9D9D9"/>
<circle cx="138" cy="394" r="2" fill="#D9D9D9"/>
<circle cx="158" cy="394" r="2" fill="#D9D9D9"/>
<circle cx="178" cy="394" r="2" fill="#D9D9D9"/>
<circle cx="198" cy="394" r="2" fill="#D9D9D9"/>
<circle cx="218" cy="394" r="2" fill="#D9D9D9"/>
<circle cx="238" cy="394" r="2" fill="#D9D9D9"/>
<circle cx="258" cy="394" r="2" fill="#D9D9D9"/>
<circle cx="278" cy="394" r="2" fill="#D9D9D9"/>
<circle cx="298" cy="394" r="2" fill="#D9D9D9"/>
<circle cx="58" cy="414" r="2" fill="#D9D9D9"/>
<circle cx="78" cy="414" r="2" fill="#D9D9D9"/>
<circle cx="98" cy="414" r="2" fill="#D9D9D9"/>
<circle cx="118" cy="414" r="2" fill="#D9D9D9"/>
<circle cx="138" cy="414" r="2" fill="#D9D9D9"/>
<circle cx="158" cy="414" r="2" fill="#D9D9D9"/>
<circle cx="178" cy="414" r="2" fill="#D9D9D9"/>
<circle cx="198" cy="414" r="2" fill="#D9D9D9"/>
<circle cx="218" cy="414" r="2" fill="#D9D9D9"/>
<circle cx="238" cy="414" r="2" fill="#D9D9D9"/>
<circle cx="258" cy="414" r="2" fill="#D9D9D9"/>
<circle cx="278" cy="414" r="2" fill="#D9D9D9"/>
<circle cx="298" cy="414" r="2" fill="#D9D9D9"/>
<circle cx="58" cy="434" r="2" fill="#D9D9D9"/>
<circle cx="78" cy="434" r="2" fill="#D9D9D9"/>
<circle cx="98" cy="434" r="2" fill="#D9D9D9"/>
<circle cx="118" cy="434" r="2" fill="#D9D9D9"/>
<circle cx="138" cy="434" r="2" fill="#D9D9D9"/>
<circle cx="158" cy="434" r="2" fill="#D9D9D9"/>
<circle cx="178" cy="434" r="2" fill="#D9D9D9"/>
<circle cx="198" cy="434" r="2" fill="#D9D9D9"/>
<circle cx="218" cy="434" r="2" fill="#D9D9D9"/>
<circle cx="238" cy="434" r="2" fill="#D9D9D9"/>
<circle cx="258" cy="434" r="2" fill="#D9D9D9"/>
<circle cx="278" cy="434" r="2" fill="#D9D9D9"/>
<circle cx="298" cy="434" r="2" fill="#D9D9D9"/>
<circle cx="58" cy="454" r="2" fill="#D9D9D9"/>
<circle cx="78" cy="454" r="2" fill="#D9D9D9"/>
<circle cx="98" cy="454" r="2" fill="#D9D9D9"/>
<circle cx="118" cy="454" r="2" fill="#D9D9D9"/>
<circle cx="138" cy="454" r="2" fill="#D9D9D9"/>
<circle cx="158" cy="454" r="2" fill="#D9D9D9"/>
<circle cx="178" cy="454" r="2" fill="#D9D9D9"/>
<circle cx="198" cy="454" r="2" fill="#D9D9D9"/>
<circle cx="218" cy="454" r="2" fill="#D9D9D9"/>
<circle cx="238" cy="454" r="2" fill="#D9D9D9"/>
<circle cx="258" cy="454" r="2" fill="#D9D9D9"/>
<circle cx="278" cy="454" r="2" fill="#D9D9D9"/>
<circle cx="298" cy="454" r="2" fill="#D9D9D9"/>
<circle cx="58" cy="474" r="2" fill="#D9D9D9"/>
<circle cx="78" cy="474" r="2" fill="#D9D9D9"/>
<circle cx="98" cy="474" r="2" fill="#D9D9D9"/>
<circle cx="118" cy="474" r="2" fill="#D9D9D9"/>
<circle cx="138" cy="474" r="2" fill="#D9D9D9"/>
<circle cx="158" cy="474" r="2" fill="#D9D9D9"/>
<circle cx="178" cy="474" r="2" fill="#D9D9D9"/>
<circle cx="198" cy="474" r="2" fill="#D9D9D9"/>
<circle cx="218" cy="474" r="2" fill="#D9D9D9"/>
<circle cx="238" cy="474" r="2" fill="#D9D9D9"/>
<circle cx="258" cy="474" r="2" fill="#D9D9D9"/>
<circle cx="278" cy="474" r="2" fill="#D9D9D9"/>
<circle cx="298" cy="474" r="2" fill="#D9D9D9"/>
<circle cx="58" cy="494" r="2" fill="#D9D9D9"/>
<circle cx="78" cy="494" r="2" fill="#D9D9D9"/>
<circle cx="98" cy="494" r="2" fill="#D9D9D9"/>
<circle cx="118" cy="494" r="2" fill="#D9D9D9"/>
<circle cx="138" cy="494" r="2" fill="#D9D9D9"/>
<circle cx="158" cy="494" r="2" fill="#D9D9D9"/>
<circle cx="178" cy="494" r="2" fill="#D9D9D9"/>
<circle cx="198" cy="494" r="2" fill="#D9D9D9"/>
<circle cx="218" cy="494" r="2" fill="#D9D9D9"/>
<circle cx="238" cy="494" r="2" fill="#D9D9D9"/>
<circle cx="258" cy="494" r="2" fill="#D9D9D9"/>
<circle cx="278" cy="494" r="2" fill="#D9D9D9"/>
<circle cx="298" cy="494" r="2" fill="#D9D9D9"/>
<circle cx="58" cy="514" r="2" fill="#D9D9D9"/>
<circle cx="78" cy="514" r="2" fill="#D9D9D9"/>
<circle cx="98" cy="514" r="2" fill="#D9D9D9"/>
<circle cx="118" cy="514" r="2" fill="#D9D9D9"/>
<circle cx="138" cy="514" r="2" fill="#D9D9D9"/>
<circle cx="158" cy="514" r="2" fill="#D9D9D9"/>
<circle cx="178" cy="514" r="2" fill="#D9D9D9"/>
<circle cx="198" cy="514" r="2" fill="#D9D9D9"/>
<circle cx="218" cy="514" r="2" fill="#D9D9D9"/>
<circle cx="238" cy="514" r="2" fill="#D9D9D9"/>
<circle cx="258" cy="514" r="2" fill="#D9D9D9"/>
<circle cx="278" cy="514" r="2" fill="#D9D9D9"/>
<circle cx="298" cy="514" r="2" fill="#D9D9D9"/>
<circle cx="58" cy="534" r="2" fill="#D9D9D9"/>
<circle cx="78" cy="534" r="2" fill="#D9D9D9"/>
<circle cx="98" cy="534" r="2" fill="#D9D9D9"/>
<circle cx="118" cy="534" r="2" fill="#D9D9D9"/>
<circle cx="138" cy="534" r="2" fill="#D9D9D9"/>
<circle cx="158" cy="534" r="2" fill="#D9D9D9"/>
<circle cx="178" cy="534" r="2" fill="#D9D9D9"/>
<circle cx="198" cy="534" r="2" fill="#D9D9D9"/>
<circle cx="218" cy="534" r="2" fill="#D9D9D9"/>
<circle cx="238" cy="534" r="2" fill="#D9D9D9"/>
<circle cx="258" cy="534" r="2" fill="#D9D9D9"/>
<circle cx="278" cy="534" r="2" fill="#D9D9D9"/>
<circle cx="298" cy="534" r="2" fill="#D9D9D9"/>
<circle cx="58" cy="554" r="2" fill="#D9D9D9"/>
<circle cx="78" cy="554" r="2" fill="#D9D9D9"/>
<circle cx="98" cy="554" r="2" fill="#D9D9D9"/>
<circle cx="118" cy="554" r="2" fill="#D9D9D9"/>
<circle cx="138" cy="554" r="2" fill="#D9D9D9"/>
<circle cx="158" cy="554" r="2" fill="#D9D9D9"/>
<circle cx="178" cy="554" r="2" fill="#D9D9D9"/>
<circle cx="198" cy="554" r="2" fill="#D9D9D9"/>
<circle cx="218" cy="554" r="2" fill="#D9D9D9"/>
<circle cx="238" cy="554" r="2" fill="#D9D9D9"/>
<circle cx="258" cy="554" r="2" fill="#D9D9D9"/>
<circle cx="278" cy="554" r="2" fill="#D9D9D9"/>
<circle cx="298" cy="554" r="2" fill="#D9D9D9"/>
<circle cx="58" cy="574" r="2" fill="#D9D9D9"/>
<circle cx="78" cy="574" r="2" fill="#D9D9D9"/>
<circle cx="98" cy="574" r="2" fill="#D9D9D9"/>
<circle cx="118" cy="574" r="2" fill="#D9D9D9"/>
<circle cx="138" cy="574" r="2" fill="#D9D9D9"/>
<circle cx="158" cy="574" r="2" fill="#D9D9D9"/>
<circle cx="178" cy="574" r="2" fill="#D9D9D9"/>
<circle cx="198" cy="574" r="2" fill="#D9D9D9"/>
<circle cx="218" cy="574" r="2" fill="#D9D9D9"/>
<circle cx="238" cy="574" r="2" fill="#D9D9D9"/>
<circle cx="258" cy="574" r="2" fill="#D9D9D9"/>
<circle cx="278" cy="574" r="2" fill="#D9D9D9"/>
<circle cx="298" cy="574" r="2" fill="#D9D9D9"/>
<circle cx="58" cy="594" r="2" fill="#D9D9D9"/>
<circle cx="78" cy="594" r="2" fill="#D9D9D9"/>
<circle cx="98" cy="594" r="2" fill="#D9D9D9"/>
<circle cx="118" cy="594" r="2" fill="#D9D9D9"/>
<circle cx="138" cy="594" r="2" fill="#D9D9D9"/>
<circle cx="158" cy="594" r="2" fill="#D9D9D9"/>
<circle cx="178" cy="594" r="2" fill="#D9D9D9"/>
<circle cx="198" cy="594" r="2" fill="#D9D9D9"/>
<circle cx="218" cy="594" r="2" fill="#D9D9D9"/>
<circle cx="238" cy="594" r="2" fill="#D9D9D9"/>
<circle cx="258" cy="594" r="2" fill="#D9D9D9"/>
<circle cx="278" cy="594" r="2" fill="#D9D9D9"/>
<circle cx="298" cy="594" r="2" fill="#D9D9D9"/>
<circle cx="58" cy="614" r="2" fill="#D9D9D9"/>
<circle cx="78" cy="614" r="2" fill="#D9D9D9"/>
<circle cx="98" cy="614" r="2" fill="#D9D9D9"/>
<circle cx="118" cy="614" r="2" fill="#D9D9D9"/>
<circle cx="138" cy="614" r="2" fill="#D9D9D9"/>
<circle cx="158" cy="614" r="2" fill="#D9D9D9"/>
<circle cx="178" cy="614" r="2" fill="#D9D9D9"/>
<circle cx="198" cy="614" r="2" fill="#D9D9D9"/>
<circle cx="218" cy="614" r="2" fill="#D9D9D9"/>
<circle cx="238" cy="614" r="2" fill="#D9D9D9"/>
<circle cx="258" cy="614" r="2" fill="#D9D9D9"/>
<circle cx="278" cy="614" r="2" fill="#D9D9D9"/>
<circle cx="298" cy="614" r="2" fill="#D9D9D9"/>
<circle cx="58" cy="634" r="2" fill="#D9D9D9"/>
<circle cx="78" cy="634" r="2" fill="#D9D9D9"/>
<circle cx="98" cy="634" r="2" fill="#D9D9D9"/>
<circle cx="118" cy="634" r="2" fill="#D9D9D9"/>
<circle cx="138" cy="634" r="2" fill="#D9D9D9"/>
<circle cx="158" cy="634" r="2" fill="#D9D9D9"/>
<circle cx="178" cy="634" r="2" fill="#D9D9D9"/>
<circle cx="198" cy="634" r="2" fill="#D9D9D9"/>
<circle cx="218" cy="634" r="2" fill="#D9D9D9"/>
<circle cx="238" cy="634" r="2" fill="#D9D9D9"/>
<circle cx="258" cy="634" r="2" fill="#D9D9D9"/>
<circle cx="278" cy="634" r="2" fill="#D9D9D9"/>
<circle cx="298" cy="634" r="2" fill="#D9D9D9"/>
<circle cx="58" cy="654" r="2" fill="#D9D9D9"/>
<circle cx="78" cy="654" r="2" fill="#D9D9D9"/>
<circle cx="98" cy="654" r="2" fill="#D9D9D9"/>
<circle cx="118" cy="654" r="2" fill="#D9D9D9"/>
<circle cx="138" cy="654" r="2" fill="#D9D9D9"/>
<circle cx="158" cy="654" r="2" fill="#D9D9D9"/>
<circle cx="178" cy="654" r="2" fill="#D9D9D9"/>
<circle cx="198" cy="654" r="2" fill="#D9D9D9"/>
<circle cx="218" cy="654" r="2" fill="#D9D9D9"/>
<circle cx="238" cy="654" r="2" fill="#D9D9D9"/>
<circle cx="258" cy="654" r="2" fill="#D9D9D9"/>
<circle cx="278" cy="654" r="2" fill="#D9D9D9"/>
<circle cx="298" cy="654" r="2" fill="#D9D9D9"/>
<circle cx="58" cy="674" r="2" fill="#D9D9D9"/>
<circle cx="78" cy="674" r="2" fill="#D9D9D9"/>
<circle cx="98" cy="674" r="2" fill="#D9D9D9"/>
<circle cx="118" cy="674" r="2" fill="#D9D9D9"/>
<circle cx="138" cy="674" r="2" fill="#D9D9D9"/>
<circle cx="158" cy="674" r="2" fill="#D9D9D9"/>
<circle cx="178" cy="674" r="2" fill="#D9D9D9"/>
<circle cx="198" cy="674" r="2" fill="#D9D9D9"/>
<circle cx="218" cy="674" r="2" fill="#D9D9D9"/>
<circle cx="238" cy="674" r="2" fill="#D9D9D9"/>
<circle cx="258" cy="674" r="2" fill="#D9D9D9"/>
<circle cx="278" cy="674" r="2" fill="#D9D9D9"/>
<circle cx="298" cy="674" r="2" fill="#D9D9D9"/>
<circle cx="58" cy="694" r="2" fill="#D9D9D9"/>
<circle cx="78" cy="694" r="2" fill="#D9D9D9"/>
<circle cx="98" cy="694" r="2" fill="#D9D9D9"/>
<circle cx="118" cy="694" r="2" fill="#D9D9D9"/>
<circle cx="138" cy="694" r="2" fill="#D9D9D9"/>
<circle cx="158" cy="694" r="2" fill="#D9D9D9"/>
<circle cx="178" cy="694" r="2" fill="#D9D9D9"/>
<circle cx="198" cy="694" r="2" fill="#D9D9D9"/>
<circle cx="218" cy="694" r="2" fill="#D9D9D9"/>
<circle cx="238" cy="694" r="2" fill="#D9D9D9"/>
<circle cx="258" cy="694" r="2" fill="#D9D9D9"/>
<circle cx="278" cy="694" r="2" fill="#D9D9D9"/>
<circle cx="298" cy="694" r="2" fill="#D9D9D9"/>
<circle cx="58" cy="714" r="2" fill="#D9D9D9"/>
<circle cx="78" cy="714" r="2" fill="#D9D9D9"/>
<circle cx="98" cy="714" r="2" fill="#D9D9D9"/>
<circle cx="118" cy="714" r="2" fill="#D9D9D9"/>
<circle cx="138" cy="714" r="2" fill="#D9D9D9"/>
<circle cx="158" cy="714" r="2" fill="#D9D9D9"/>
<circle cx="178" cy="714" r="2" fill="#D9D9D9"/>
<circle cx="198" cy="714" r="2" fill="#D9D9D9"/>
<circle cx="218" cy="714" r="2" fill="#D9D9D9"/>
<circle cx="238" cy="714" r="2" fill="#D9D9D9"/>
<circle cx="258" cy="714" r="2" fill="#D9D9D9"/>
<circle cx="278" cy="714" r="2" fill="#D9D9D9"/>
<circle cx="298" cy="714" r="2" fill="#D9D9D9"/>
<path d="M358.88 341C358.288 341 357.992 340.704 357.992 340.112V325.088C357.992 324.496 358.288 324.2 358.88 324.2H363.464C365.416 324.2 366.832 324.592 367.712 325.376C368.592 326.16 369.032 327.184 369.032 328.448C369.032 328.992 368.912 329.512 368.672 330.008C368.432 330.488 368.112 330.912 367.712 331.28C367.328 331.648 366.896 331.92 366.416 332.096L366.44 332.192C366.696 332.24 366.968 332.336 367.256 332.48C367.544 332.624 367.832 332.808 368.12 333.032C368.424 333.256 368.696 333.528 368.936 333.848C369.176 334.152 369.368 334.496 369.512 334.88C369.656 335.264 369.728 335.688 369.728 336.152C369.728 337.736 369.216 338.944 368.192 339.776C367.184 340.592 365.664 341 363.632 341H358.88ZM361.136 338.312H363.896C364.728 338.312 365.368 338.104 365.816 337.688C366.264 337.272 366.488 336.696 366.488 335.96C366.488 335.256 366.232 334.72 365.72 334.352C365.208 333.968 364.472 333.776 363.512 333.776H361.136V338.312ZM361.136 331.088H363.2C364 331.088 364.632 330.88 365.096 330.464C365.56 330.048 365.792 329.536 365.792 328.928C365.792 328.24 365.584 327.728 365.168 327.392C364.752 327.04 364.096 326.864 363.2 326.864H361.136V331.088Z" fill="white"/>
<path d="M358.88 389C358.288 389 357.992 388.704 357.992 388.112V372.848C357.992 372.384 358.416 372.152 359.264 372.152H359.864C360.712 372.152 361.136 372.384 361.136 372.848V386.312H366.824C367.24 386.312 367.448 386.656 367.448 387.344V387.968C367.448 388.656 367.24 389 366.824 389H358.88Z" fill="white"/>
<path d="M359.072 437.072C358.224 437.072 357.8 436.832 357.8 436.352V420.848C357.8 420.368 358.224 420.128 359.072 420.128H359.696C360.544 420.128 360.968 420.368 360.968 420.848V436.352C360.968 436.832 360.544 437.072 359.696 437.072H359.072Z" fill="white"/>
<path d="M359.072 485.048C358.224 485.048 357.8 484.816 357.8 484.352V469.088C357.8 468.496 358.088 468.2 358.664 468.2H363.656C364.168 468.2 364.744 468.264 365.384 468.392C366.04 468.504 366.656 468.736 367.232 469.088C367.824 469.424 368.304 469.928 368.672 470.6C369.04 471.272 369.224 472.16 369.224 473.264C369.224 474.176 369.08 474.944 368.792 475.568C368.52 476.176 368.16 476.672 367.712 477.056C367.28 477.424 366.816 477.712 366.32 477.92C365.824 478.112 365.36 478.248 364.928 478.328C364.496 478.392 364.152 478.424 363.896 478.424H360.944V484.352C360.944 484.816 360.52 485.048 359.672 485.048H359.072ZM360.944 475.712H363.632C363.856 475.712 364.104 475.68 364.376 475.616C364.664 475.552 364.928 475.432 365.168 475.256C365.408 475.08 365.608 474.832 365.768 474.512C365.928 474.192 366.008 473.776 366.008 473.264C366.008 472.608 365.872 472.112 365.6 471.776C365.328 471.44 365 471.208 364.616 471.08C364.248 470.952 363.88 470.888 363.512 470.888H360.944V475.712Z" fill="white"/>
<path d="M359.072 533.048C358.224 533.048 357.8 532.816 357.8 532.352V517.088C357.8 516.496 358.088 516.2 358.664 516.2H363.656C364.168 516.2 364.744 516.264 365.384 516.392C366.04 516.504 366.656 516.736 367.232 517.088C367.824 517.424 368.304 517.928 368.672 518.6C369.04 519.272 369.224 520.16 369.224 521.264C369.224 522.176 369.08 522.944 368.792 523.568C368.52 524.176 368.16 524.672 367.712 525.056C367.28 525.424 366.816 525.712 366.32 525.92C365.824 526.112 365.36 526.248 364.928 526.328C364.496 526.392 364.152 526.424 363.896 526.424H360.944V532.352C360.944 532.816 360.52 533.048 359.672 533.048H359.072ZM360.944 523.712H363.632C363.856 523.712 364.104 523.68 364.376 523.616C364.664 523.552 364.928 523.432 365.168 523.256C365.408 523.08 365.608 522.832 365.768 522.512C365.928 522.192 366.008 521.776 366.008 521.264C366.008 520.608 365.872 520.112 365.6 519.776C365.328 519.44 365 519.208 364.616 519.08C364.248 518.952 363.88 518.888 363.512 518.888H360.944V523.712Z" fill="white"/>
<path d="M362.288 581.048C361.44 581.048 361.016 580.816 361.016 580.352V566.888H356.936C356.504 566.888 356.288 566.544 356.288 565.856V565.232C356.288 564.544 356.504 564.2 356.936 564.2H368.24C368.672 564.2 368.888 564.544 368.888 565.232V565.856C368.888 566.544 368.672 566.888 368.24 566.888H364.184V580.352C364.184 580.816 363.76 581.048 362.912 581.048H362.288Z" fill="white"/>
<path d="M362.432 629.168C361.312 629.168 360.336 628.848 359.504 628.208C358.672 627.552 358.016 626.584 357.536 625.304C357.056 624.024 356.816 622.456 356.816 620.6C356.816 618.728 357.056 617.16 357.536 615.896C358.016 614.616 358.672 613.656 359.504 613.016C360.336 612.36 361.312 612.032 362.432 612.032C363.536 612.032 364.504 612.36 365.336 613.016C366.184 613.656 366.848 614.616 367.328 615.896C367.808 617.16 368.048 618.728 368.048 620.6C368.048 622.456 367.808 624.024 367.328 625.304C366.848 626.584 366.184 627.552 365.336 628.208C364.504 628.848 363.536 629.168 362.432 629.168ZM362.432 626.744C362.912 626.744 363.344 626.528 363.728 626.096C364.128 625.664 364.432 624.992 364.64 624.08C364.864 623.168 364.976 622.008 364.976 620.6C364.976 619.176 364.864 618.016 364.64 617.12C364.432 616.208 364.128 615.536 363.728 615.104C363.344 614.672 362.912 614.456 362.432 614.456C361.936 614.456 361.496 614.672 361.112 615.104C360.728 615.536 360.424 616.208 360.2 617.12C359.992 618.016 359.888 619.176 359.888 620.6C359.888 622.008 359.992 623.168 360.2 624.08C360.424 624.992 360.728 625.664 361.112 626.096C361.496 626.528 361.936 626.744 362.432 626.744Z" fill="white"/>
<line x1="364" y1="301.012" x2="364" y2="111.988" stroke="white"/>
<line x1="362.5" y1="896" x2="362.5" y2="648" stroke="white"/>
<line x1="23.9973" y1="864.494" x2="389.015" y2="864.494" stroke="white"/>
<line x1="40" y1="896.039" x2="40" y2="671.973" stroke="white"/>
<rect y="-16" width="218" height="688" fill="white" fill-opacity="0.2"/>
</svg>
