<svg width="24" height="24" viewBox="0 0 24 24" fill="none" xmlns="http://www.w3.org/2000/svg">
<path fill-rule="evenodd" clip-rule="evenodd" d="M19.6667 2.66667C19.6667 3.37391 19.3857 4.05219 18.8856 4.55229C18.3855 5.05238 17.7072 5.33333 17 5.33333C16.2928 5.33333 15.6145 5.05238 15.1144 4.55229C14.6143 4.05219 14.3333 3.37391 14.3333 2.66667C14.3333 1.95942 14.6143 1.28115 15.1144 0.781048C15.6145 0.280951 16.2928 0 17 0C17.7072 0 18.3855 0.280951 18.8856 0.781048C19.3857 1.28115 19.6667 1.95942 19.6667 2.66667ZM18.3333 2.66667C18.3333 3.02029 18.1929 3.35943 17.9428 3.60948C17.6928 3.85952 17.3536 4 17 4C16.6464 4 16.3072 3.85952 16.0572 3.60948C15.8071 3.35943 15.6667 3.02029 15.6667 2.66667C15.6667 2.31304 15.8071 1.97391 16.0572 1.72386C16.3072 1.47381 16.6464 1.33333 17 1.33333C17.3536 1.33333 17.6928 1.47381 17.9428 1.72386C18.1929 1.97391 18.3333 2.31304 18.3333 2.66667ZM3.33333 14.6667C3.33333 14.313 3.47381 13.9739 3.72386 13.7239C3.97391 13.4738 4.31304 13.3333 4.66667 13.3333H6.66667C7.02029 13.3333 7.35943 13.4738 7.60948 13.7239C7.85952 13.9739 8 14.313 8 14.6667V16H10C10.3536 16 10.6928 16.1405 10.9428 16.3905C11.1929 16.6406 11.3333 16.9797 11.3333 17.3333V22.6667C11.3333 23.0203 11.1929 23.3594 10.9428 23.6095C10.6928 23.8595 10.3536 24 10 24H1.33333C0.979711 24 0.640573 23.8595 0.390524 23.6095C0.140476 23.3594 0 23.0203 0 22.6667V17.3333C0 16.9797 0.140476 16.6406 0.390524 16.3905C0.640573 16.1405 0.979711 16 1.33333 16H3.33333V14.6667ZM1.33333 22.6667V17.3333H2.66667V22.6667H1.33333ZM6.66667 14.6667V16H4.66667V14.6667H6.66667ZM7.33333 17.3333H4V22.6667H7.33333V17.3333ZM8.66667 17.3333V22.6667H10V17.3333H8.66667Z" fill="white"/>
<path d="M21.3333 10.6666C21.3333 10.313 21.1929 9.97389 20.9428 9.72384C20.6928 9.47379 20.3536 9.33331 20 9.33331V12C20.3536 12 20.6928 11.8595 20.9428 11.6095C21.1929 11.3594 21.3333 11.0203 21.3333 10.6666Z" fill="white"/>
<path fill-rule="evenodd" clip-rule="evenodd" d="M14.6667 24C14.1362 24 13.6275 23.7893 13.2524 23.4142C12.8774 23.0392 12.6667 22.5305 12.6667 22V10.6667H9.33333C8.8029 10.6667 8.29419 10.456 7.91911 10.0809C7.54404 9.70583 7.33333 9.19712 7.33333 8.66669C7.33333 8.13625 7.54404 7.62755 7.91911 7.25247C8.29419 6.8774 8.8029 6.66669 9.33333 6.66669H20.6773C21.4193 6.66669 24 7.57602 24 10.3807C24 12.6067 22.3753 13.9987 21.3333 14.4787V22C21.3333 22.5305 21.1226 23.0392 20.7475 23.4142C20.3725 23.7893 19.8638 24 19.3333 24C18.8029 24 18.2942 23.7893 17.9191 23.4142C17.544 23.0392 17.3333 22.5305 17.3333 22V16.6667H16.6667V22C16.6667 22.4674 16.5067 22.8974 16.2373 23.238C16.0504 23.4757 15.8118 23.6678 15.5397 23.7998C15.2676 23.9318 14.9691 24.0003 14.6667 24ZM20 13.6247L20.7753 13.2674C21.538 12.916 22.6667 11.9027 22.6667 10.3807C22.6667 9.45135 22.2633 8.88869 21.7947 8.52135C21.5671 8.34422 21.314 8.20262 21.044 8.10135C20.9271 8.05568 20.8058 8.02217 20.682 8.00135C20.6727 8.00002 20.6713 8.00002 20.6767 8.00002H9.33333C9.15652 8.00002 8.98695 8.07026 8.86192 8.19528C8.7369 8.32031 8.66666 8.48988 8.66666 8.66669C8.66666 8.8435 8.7369 9.01307 8.86192 9.13809C8.98695 9.26312 9.15652 9.33335 9.33333 9.33335H14V22C14 22.1768 14.0702 22.3464 14.1953 22.4714C14.3203 22.5964 14.4899 22.6667 14.6667 22.6667C14.8435 22.6667 15.013 22.5964 15.1381 22.4714C15.2631 22.3464 15.3333 22.1768 15.3333 22V15.3334H18.6667V22C18.6667 22.1768 18.7369 22.3464 18.8619 22.4714C18.9869 22.5964 19.1565 22.6667 19.3333 22.6667C19.5101 22.6667 19.6797 22.5964 19.8047 22.4714C19.9298 22.3464 20 22.1768 20 22V13.6247Z" fill="white"/>
</svg>
