<svg width="24" height="25" viewBox="0 0 24 25" fill="none" xmlns="http://www.w3.org/2000/svg">
<path d="M12 5.66666C12.2652 5.66666 12.5196 5.5613 12.7071 5.37376C12.8946 5.18623 13 4.93187 13 4.66666C13 4.40144 12.8946 4.14709 12.7071 3.95955C12.5196 3.77201 12.2652 3.66666 12 3.66666C11.7348 3.66666 11.4804 3.77201 11.2929 3.95955C11.1054 4.14709 11 4.40144 11 4.66666C11 4.93187 11.1054 5.18623 11.2929 5.37376C11.4804 5.5613 11.7348 5.66666 12 5.66666Z" fill="white"/>
<path fill-rule="evenodd" clip-rule="evenodd" d="M11.8773 1.01133L11.872 1.01266L11.8567 1.01533L11.8013 1.026L11.5947 1.06733C11.4173 1.10333 11.1647 1.15666 10.8627 1.22533C10.2593 1.36266 9.44933 1.56333 8.636 1.81466C7.83067 2.06333 6.98733 2.37266 6.33333 2.73466C6.008 2.91466 5.696 3.126 5.458 3.37466C5.22133 3.62066 5 3.96533 5 4.398C5 5.56133 5.32667 6.41333 5.672 6.98466C5.842 7.266 6.01467 7.476 6.15067 7.62C6.15733 7.69666 6.16733 7.78266 6.186 7.876C6.25333 8.22666 6.422 8.67333 6.80867 9.10733C6.62454 9.89017 6.61984 10.7045 6.79491 11.4894C6.96997 12.2743 7.32028 13.0095 7.81961 13.6399C8.31894 14.2703 8.95438 14.7796 9.67836 15.1298C10.4023 15.4799 11.1961 15.6617 12.0003 15.6617C12.8045 15.6617 13.5983 15.4799 14.3223 15.1298C15.0463 14.7796 15.6817 14.2703 16.1811 13.6399C16.6804 13.0095 17.0307 12.2743 17.2058 11.4894C17.3808 10.7045 17.3761 9.89017 17.192 9.10733C17.578 8.67333 17.7467 8.22733 17.814 7.876C17.8327 7.78266 17.8433 7.69666 17.8493 7.62C18.0309 7.42574 18.1914 7.21277 18.328 6.98466C18.674 6.41333 19 5.56133 19 4.398C19 3.96533 18.7787 3.62066 18.542 3.37466C18.304 3.126 17.992 2.91466 17.6667 2.73466C17.0127 2.37266 16.1693 2.06333 15.3633 1.81466C14.6289 1.5908 13.8864 1.39422 13.1373 1.22533C12.8254 1.15425 12.5125 1.08758 12.1987 1.02533L12.1433 1.01533L12.128 1.01266L12.1227 1.01133L12 0.988663L11.8773 1.01133ZM12 9.33333C13.4713 9.33333 14.4593 9.14266 15.12 8.89466C15.6793 8.68466 16.0053 8.434 16.1933 8.22266C16.262 8.146 16.316 8.07133 16.3587 8H7.64133C7.684 8.07133 7.738 8.14666 7.806 8.22266C7.99533 8.434 8.32067 8.68466 8.87933 8.89466C9.54067 9.14266 10.5287 9.33333 12 9.33333ZM16.9147 6.66666H7.08533C6.98315 6.55135 6.89187 6.42682 6.81267 6.29466C6.584 5.91666 6.336 5.30533 6.33333 4.412C6.35561 4.3692 6.3849 4.33044 6.42 4.29733C6.528 4.18466 6.71067 4.04933 6.97933 3.90133C7.51267 3.606 8.25267 3.32866 9.03 3.088C9.73216 2.87449 10.442 2.68702 11.158 2.526C11.4379 2.4623 11.7186 2.40229 12 2.346C12.038 2.35266 12.0847 2.36266 12.1387 2.37333C12.308 2.408 12.5507 2.46 12.842 2.526C13.426 2.65866 14.2 2.85066 14.97 3.08866C15.7473 3.32866 16.4873 3.606 17.0207 3.90133C17.2893 4.04933 17.472 4.18466 17.5807 4.29733C17.6407 4.36066 17.6607 4.398 17.6667 4.412C17.664 5.30533 17.416 5.91666 17.1867 6.29466C17.1078 6.42691 17.0168 6.55145 16.9147 6.66666ZM8 10.3333C8 10.2133 8.00533 10.0947 8.01533 9.97733C8.90733 10.3953 10.1847 10.6667 12 10.6667C13.5633 10.6667 14.726 10.4667 15.588 10.1433C15.728 10.0913 15.86 10.0353 15.9847 9.97666C16.0319 10.5143 15.9698 11.056 15.8021 11.569C15.6344 12.0821 15.3647 12.5559 15.0091 12.9619C14.6535 13.3679 14.2194 13.6978 13.7329 13.9316C13.2464 14.1655 12.7177 14.2984 12.1785 14.3225C11.6393 14.3466 11.1008 14.2613 10.5954 14.0718C10.09 13.8823 9.62826 13.5924 9.23787 13.2197C8.84747 12.847 8.53654 12.3991 8.3238 11.9031C8.11107 11.407 8.00092 10.8731 8 10.3333Z" fill="white"/>
<path d="M18 19.6667C18.4447 20.1113 19.3334 20.5553 19.3334 20.5553C19.3334 20.5553 18.868 22.3333 18 22.3333C17.132 22.3333 16.6667 20.5553 16.6667 20.5553C16.6667 20.5553 17.5554 20.1113 18 19.6667Z" fill="white"/>
<path fill-rule="evenodd" clip-rule="evenodd" d="M9.66667 17.6667C9.66667 17.313 9.80714 16.9739 10.0572 16.7239C10.3072 16.4738 10.6464 16.3333 11 16.3333H13C13.3536 16.3333 13.6928 16.4738 13.9428 16.7239C14.1929 16.9739 14.3333 17.313 14.3333 17.6667V18.588C14.3333 18.8051 14.2803 19.0189 14.1789 19.2108C14.0774 19.4027 13.9307 19.567 13.7513 19.6893L13.8267 20.0667L16.1147 17.2887C16.1918 17.195 16.293 17.1241 16.4074 17.0837C16.5219 17.0432 16.6451 17.0348 16.764 17.0593C18.4733 17.414 20.222 17.9513 21.5607 18.6887C22.8553 19.402 24 20.4373 24 21.8653V24.3333C24 24.5101 23.9298 24.6797 23.8047 24.8047C23.6797 24.9298 23.5101 25 23.3333 25H0.666667C0.489856 25 0.320287 24.9298 0.195262 24.8047C0.070238 24.6797 0 24.5101 0 24.3333V21.8653C0 20.4453 1.16667 19.4167 2.46133 18.7093C3.80533 17.974 5.55467 17.4327 7.24333 17.0733C7.36273 17.048 7.4868 17.0559 7.602 17.0962C7.71721 17.1365 7.81913 17.2077 7.89667 17.302L10.1833 20.0793L10.2553 19.694C10.074 19.5719 9.9255 19.4071 9.82284 19.2142C9.72019 19.0212 9.66656 18.8059 9.66667 18.5873V17.6667ZM12.3467 19.464L12.7327 21.3953L12 22.2847L11.2907 21.4233L11.6553 19.4547C11.6817 19.3124 11.6612 19.1654 11.5967 19.0359C11.5322 18.9064 11.4274 18.8014 11.298 18.7367L11 18.588V17.6667H13V18.588L12.702 18.7373C12.5712 18.8026 12.4655 18.9092 12.4011 19.0405C12.3368 19.1718 12.3174 19.3206 12.346 19.464H12.3467ZM12.5887 23.6667L16.8847 18.45C18.3913 18.7873 19.836 19.2613 20.9167 19.8567C22.136 20.528 22.6667 21.222 22.6667 21.8653V23.6667H12.5893H12.5887ZM7.126 18.4647L11.4107 23.6667H1.33333V21.8653C1.33333 21.2427 1.86667 20.554 3.10067 19.8787C4.18933 19.2833 5.63667 18.8067 7.12733 18.4647H7.126Z" fill="white"/>
</svg>
