<svg width="28" height="28" viewBox="0 0 28 28" fill="none" xmlns="http://www.w3.org/2000/svg">
<path d="M14 19.25C14.7249 19.25 15.3125 18.6624 15.3125 17.9375C15.3125 17.2126 14.7249 16.625 14 16.625C13.2751 16.625 12.6875 17.2126 12.6875 17.9375C12.6875 18.6624 13.2751 19.25 14 19.25Z" fill="#383940"/>
<path d="M13.125 6.125H14.875V14H13.125V6.125Z" fill="#383940"/>
<path d="M14 26.25L6.61851 17.5446C6.51594 17.4139 6.41444 17.2824 6.31401 17.15C5.05312 15.4891 4.37195 13.4603 4.37501 11.375C4.37501 8.82229 5.38907 6.37414 7.19411 4.5691C8.99915 2.76406 11.4473 1.75 14 1.75C16.5527 1.75 19.0009 2.76406 20.8059 4.5691C22.611 6.37414 23.625 8.82229 23.625 11.375C23.6281 13.4594 22.9472 15.4872 21.6869 17.1474L21.686 17.15C21.686 17.15 21.4235 17.4948 21.3841 17.5411L14 26.25ZM7.71051 16.0956C7.71226 16.0956 7.91526 16.3651 7.96164 16.4229L14 23.5445L20.0463 16.4132C20.0848 16.3651 20.2895 16.0939 20.2904 16.093C21.3204 14.736 21.877 13.0787 21.875 11.375C21.875 9.28642 21.0453 7.28338 19.5685 5.80653C18.0916 4.32968 16.0886 3.5 14 3.5C11.9114 3.5 9.90839 4.32968 8.43154 5.80653C6.9547 7.28338 6.12501 9.28642 6.12501 11.375C6.12317 13.0797 6.67957 14.738 7.71051 16.0956Z" fill="#383940"/>
</svg>
