<svg width="32" height="32" viewBox="0 0 32 32" fill="none" xmlns="http://www.w3.org/2000/svg">
<g id="securityscorecard logo">
<path id="Vector" d="M21.8261 3.33413L16.0008 6.66667L10.1737 10.0008V3.33413L16.0008 0L21.8261 3.33413ZM29.9831 7.99947L29.9868 14.6475L18.3492 7.99027L24.1577 4.6672L29.9831 7.99947ZM24.1577 20.6775L24.1559 27.3404L29.9924 24.0061L29.9887 17.3155L24.1577 13.9795V20.6775ZM10.1699 28.6693L16.0008 32L21.8261 28.6731V22.0101L10.1699 28.6693ZM10.1737 12.6667V19.3352L16.0008 22.6675L21.8261 19.3425V12.6668L16.0008 9.3344L10.1737 12.6667ZM2.00732 24.0059L2.01106 17.3319L13.6729 24.0021L7.83826 27.3365L2.00732 24.0059ZM7.84199 4.6672L2.01666 8.00133L2.01292 14.666L7.84199 18.002V4.6672Z" fill="#383940"/>
</g>
</svg>
