<svg width="28" height="28" viewBox="0 0 28 28" fill="none" xmlns="http://www.w3.org/2000/svg">
<g clip-path="url(#clip0_10399_4703)">
<path fill-rule="evenodd" clip-rule="evenodd" d="M14.8225 2.30652C14.5693 2.1717 14.2869 2.10119 14 2.10119C13.7131 2.10119 13.4307 2.1717 13.1775 2.30652L2.6775 7.90652C2.39754 8.05559 2.16336 8.27795 1.99999 8.54982C1.83662 8.82169 1.75021 9.13284 1.75 9.45002V10.8798L7.41125 14.2748C7.16288 14.8427 7.02452 15.4525 7.0035 16.072L1.75 12.922V22.9548L7.83825 19.3025C8.09958 19.7855 8.42508 20.2697 8.81475 20.755L1.81125 24.9585C1.91192 25.3293 2.13182 25.6567 2.43703 25.8901C2.74223 26.1235 3.11577 26.25 3.5 26.25H24.5C24.8842 26.25 25.2578 26.1235 25.563 25.8901C25.8682 25.6567 26.0881 25.3293 26.1888 24.9585L19.1853 20.7568C19.5749 20.2691 19.9004 19.7844 20.1618 19.3025L26.25 22.9548V12.9203L20.9965 16.072C20.9753 15.4531 20.8369 14.8439 20.5888 14.2765L26.25 10.8798V9.45002C26.2498 9.13284 26.1634 8.82169 26 8.54982C25.8366 8.27795 25.6025 8.05559 25.3225 7.90652L14.8225 2.30652ZM12.355 0.76127C12.8618 0.491027 13.4274 0.34967 14.0018 0.34967C14.5761 0.34967 15.1417 0.491027 15.6485 0.76127L26.1485 6.36127C26.708 6.66002 27.1759 7.10521 27.502 7.64925C27.8281 8.19329 28.0002 8.81573 28 9.45002V24.5C28 25.4283 27.6313 26.3185 26.9749 26.9749C26.3185 27.6313 25.4283 28 24.5 28H3.5C2.57174 28 1.6815 27.6313 1.02513 26.9749C0.368749 26.3185 1.75068e-08 25.4283 1.75068e-08 24.5V9.45002C-6.34317e-05 8.81555 0.172341 8.19299 0.498775 7.64894C0.825208 7.10488 1.29339 6.65979 1.85325 6.36127L12.355 0.76127ZM14 13.9878C16.912 10.9935 24.1938 16.233 14 22.9688C3.80625 16.2313 11.088 10.9935 14 13.9878Z" fill="white"/>
</g>
<defs>
<clipPath id="clip0_10399_4703">
<rect width="28" height="28" fill="white"/>
</clipPath>
</defs>
</svg>
