<svg width="28" height="22" viewBox="0 0 28 22" fill="none" xmlns="http://www.w3.org/2000/svg">
<path d="M24.5 5H15.1667V0.333336H12.8333V5H3.5C2.57174 5 1.6815 5.36875 1.02513 6.02513C0.368749 6.68151 0 7.57174 0 8.5L0 21.3333H28V8.5C28 7.57174 27.6313 6.68151 26.9749 6.02513C26.3185 5.36875 25.4283 5 24.5 5ZM25.6667 19H2.33333V8.5C2.33333 8.19058 2.45625 7.89384 2.67504 7.67504C2.89383 7.45625 3.19058 7.33334 3.5 7.33334H24.5C24.8094 7.33334 25.1062 7.45625 25.325 7.67504C25.5438 7.89384 25.6667 8.19058 25.6667 8.5V19Z" fill="white"/>
<path d="M18.6666 14.3333H9.33331V16.6667H18.6666V14.3333Z" fill="white"/>
<path d="M14 9.66667H10.5V12H14V9.66667Z" fill="white"/>
<path d="M23.3333 9.66667H16.3333V12H23.3333V9.66667Z" fill="white"/>
<path d="M8.16669 9.66667H4.66669V12H8.16669V9.66667Z" fill="white"/>
<path d="M7.00002 14.3333H4.66669V16.6667H7.00002V14.3333Z" fill="white"/>
<path d="M23.3333 14.3333H21V16.6667H23.3333V14.3333Z" fill="white"/>
</svg>
