<svg width="28" height="28" viewBox="0 0 28 28" fill="none" xmlns="http://www.w3.org/2000/svg">
<g id="iconamoon:lock" opacity="0.6">
<g id="Group">
<path id="Vector" d="M9.33337 11.6667V8.16667C9.33337 6.92899 9.82504 5.742 10.7002 4.86683C11.5754 3.99167 12.7624 3.5 14 3.5C15.2377 3.5 16.4247 3.99167 17.2999 4.86683C18.175 5.742 18.6667 6.92899 18.6667 8.16667V11.6667" stroke="#383940" stroke-width="2.33333" stroke-linecap="round"/>
<path id="Vector_2" d="M5.83337 11.6667H22.1667V22.1667C22.1667 22.7856 21.9209 23.3791 21.4833 23.8167C21.0457 24.2542 20.4522 24.5001 19.8334 24.5001H8.16671C7.54787 24.5001 6.95438 24.2542 6.51679 23.8167C6.07921 23.3791 5.83337 22.7856 5.83337 22.1667V11.6667Z" stroke="#383940" stroke-width="2.33333" stroke-linejoin="round"/>
<path id="Vector_3" d="M16.9167 18.0833H16.9284V18.0949H16.9167V18.0833Z" stroke="#383940" stroke-width="3.5" stroke-linejoin="round"/>
</g>
</g>
</svg>
