<svg width="26" height="28" viewBox="0 0 26 28" fill="none" xmlns="http://www.w3.org/2000/svg">
<path d="M18.0979 2.91737L13.0007 5.83333L7.90201 8.7507V2.91737L13.0007 0L18.0979 2.91737ZM25.2352 6.99953L25.2384 12.8165L15.0555 6.99148L20.138 4.0838L25.2352 6.99953ZM20.138 18.0928L20.1364 23.9228L25.2433 21.0054L25.2401 15.151L20.138 12.232V18.0928ZM7.89863 25.0857L13.0007 28L18.0979 25.0889V19.2589L7.89863 25.0857ZM7.90201 11.0833V16.9183L13.0007 19.834L18.0979 16.9247V11.0834L13.0007 8.1676L7.90201 11.0833ZM0.756409 21.0051L0.759675 15.1654L10.9638 21.0019L5.85848 23.9195L0.756409 21.0051ZM5.86174 4.0838L0.764575 7.00117L0.761309 12.8328L5.86174 15.7517V4.0838Z" fill="white"/>
</svg>
