<svg width="26" height="24" viewBox="0 0 26 24" fill="none" xmlns="http://www.w3.org/2000/svg">
<path d="M22.9167 7.91683H3.08335C2.77393 7.91683 2.47719 8.03975 2.2584 8.25854C2.0396 8.47733 1.91669 8.77408 1.91669 9.0835V20.7502C1.91669 21.0596 2.0396 21.3563 2.2584 21.5751C2.47719 21.7939 2.77393 21.9168 3.08335 21.9168H22.9167C23.2261 21.9168 23.5229 21.7939 23.7416 21.5751C23.9604 21.3563 24.0834 21.0596 24.0834 20.7502V9.0835C24.0834 8.77408 23.9604 8.47733 23.7416 8.25854C23.5229 8.03975 23.2261 7.91683 22.9167 7.91683ZM18.8334 2.0835H7.16669V7.91683H18.8334V2.0835Z" stroke="#383940" stroke-width="2.33333" stroke-linejoin="round"/>
<path d="M10.0834 14.9167H15.9167M13 12V17.8333" stroke="#383940" stroke-width="2.33333" stroke-linecap="round"/>
</svg>
