<svg width="22" height="22" viewBox="0 0 22 22" fill="none" xmlns="http://www.w3.org/2000/svg">
<path d="M10.3061 1.28775L1.28726 10.3066C1.10333 10.4906 1 10.7401 1 11.0003C1 11.2604 1.10333 11.5099 1.28726 11.6939L10.3066 20.7133C10.4906 20.8972 10.7401 21.0005 11.0002 21.0005C11.2604 21.0005 11.5099 20.8972 11.6939 20.7133L20.7127 11.6944C20.8967 11.5104 21 11.2609 21 11.0007C21 10.7406 20.8967 10.4911 20.7127 10.3071L11.6934 1.28726C11.5094 1.10333 11.2599 1 10.9998 1C10.7396 1 10.4901 1.10333 10.3061 1.28726V1.28775Z" stroke="#383940" stroke-width="1.96222" stroke-linejoin="round"/>
<path d="M7.95197 11.0005H13.8386M10.8953 8.05713V13.9438" stroke="#383940" stroke-width="1.96222" stroke-linecap="round"/>
</svg>
