<svg width="49" height="49" viewBox="0 0 49 49" fill="none" xmlns="http://www.w3.org/2000/svg">
<g id="uil:paypal">
<path id="Vector" d="M41.2255 15.183C40.88 14.7964 40.496 14.4459 40.0795 14.137C40.2508 12.7972 40.1328 11.4364 39.7336 10.146C39.3345 8.85574 38.6634 7.66599 37.7655 6.65698C35.5975 4.21298 31.9015 2.97498 26.7795 2.97498H14.3535C13.4553 2.97691 12.5871 3.29826 11.9041 3.88159C11.2212 4.46491 10.7679 5.27215 10.6255 6.15898L5.44552 38.971C5.37221 39.4108 5.39574 39.8614 5.51446 40.2912C5.63318 40.7211 5.84423 41.1198 6.1329 41.4597C6.42156 41.7996 6.7809 42.0724 7.18584 42.2592C7.59078 42.4459 8.03159 42.5421 8.47752 42.541H13.8055L13.6415 43.581C13.575 43.9998 13.6001 44.428 13.7151 44.8362C13.83 45.2444 14.0321 45.6228 14.3073 45.9454C14.5826 46.268 14.9245 46.5271 15.3095 46.7048C15.6945 46.8826 16.1135 46.9747 16.5375 46.975H23.0075C23.8452 46.9813 24.6578 46.6887 25.2992 46.1499C25.9407 45.611 26.3691 44.8612 26.5075 44.035L27.7895 35.973L27.8115 35.863H28.4095C36.4735 35.863 41.5095 31.877 42.9795 24.339C43.4279 22.7824 43.5027 21.142 43.1979 19.5511C42.8932 17.9602 42.2174 16.4636 41.2255 15.183ZM16.0355 28.383L14.6075 37.453L14.4355 38.541H9.56352L14.5455 6.97498H26.7795C30.6515 6.97498 33.4155 7.78298 34.7655 9.30298C35.4021 10.0438 35.846 10.9303 36.0577 11.8838C36.2695 12.8373 36.2426 13.8283 35.9795 14.769L35.9435 14.995C35.9195 15.147 35.8975 15.295 35.8555 15.487C35.4696 18.3444 34.0415 20.9585 31.8455 22.827C29.3802 24.5415 26.4089 25.375 23.4115 25.193H19.7655C18.8648 25.1898 17.9928 25.51 17.3082 26.0954C16.6237 26.6809 16.1721 27.4926 16.0355 28.383ZM39.0555 23.573C37.9515 29.229 34.5695 31.863 28.4095 31.863H27.4415C26.6029 31.8569 25.7897 32.1503 25.1481 32.6903C24.5065 33.2304 24.0786 33.9816 23.9415 34.809L22.6415 42.957L17.7855 42.975L18.7415 36.907L19.9655 29.201H23.4035C23.7175 29.201 23.9935 29.155 24.2995 29.143C25.0175 29.119 25.7335 29.091 26.4055 29.007C26.8155 28.957 27.1915 28.863 27.5855 28.791C28.1315 28.691 28.6755 28.591 29.1875 28.449C29.5675 28.343 29.9235 28.205 30.2875 28.077C30.7635 27.907 31.2355 27.729 31.6815 27.519C32.0121 27.3604 32.3364 27.189 32.6535 27.005C33.0759 26.7658 33.4852 26.5041 33.8795 26.221C34.1635 26.017 34.4435 25.805 34.7095 25.581C35.087 25.255 35.4456 24.9078 35.7835 24.541C36.0095 24.301 36.2395 24.067 36.4495 23.807C36.7967 23.3644 37.1173 22.9016 37.4095 22.421C37.5615 22.177 37.7315 21.951 37.8735 21.695C38.2782 20.9531 38.6259 20.1816 38.9135 19.387C38.9315 19.339 38.9555 19.299 38.9735 19.251C38.9815 19.231 38.9935 19.211 39.0015 19.187C39.3978 20.6199 39.4177 22.1311 39.0555 23.573Z" fill="#383940"/>
</g>
</svg>
