<svg width="28" height="28" viewBox="0 0 28 28" fill="none" xmlns="http://www.w3.org/2000/svg">
<g id="octicon:person-16">
<path id="Vector" d="M18.4816 14.1292C20.2046 14.9436 21.6736 16.2112 22.7316 17.7962C23.7895 19.3813 24.3965 21.2242 24.4876 23.1277C24.4996 23.3021 24.4767 23.4772 24.4201 23.6426C24.3636 23.808 24.2746 23.9604 24.1583 24.0909C24.042 24.2214 23.9009 24.3274 23.7431 24.4027C23.5853 24.4779 23.4141 24.5208 23.2395 24.529C23.0649 24.5372 22.8904 24.5104 22.7263 24.4502C22.5622 24.39 22.4117 24.2976 22.2838 24.1785C22.1559 24.0594 22.053 23.9159 21.9813 23.7565C21.9096 23.5971 21.8704 23.425 21.8661 23.2502C21.7707 21.2282 20.9003 19.3205 19.4355 17.9232C17.9708 16.5259 16.0242 15.7464 13.9999 15.7464C11.9755 15.7464 10.029 16.5259 8.5642 17.9232C7.09944 19.3205 6.22902 21.2282 6.13362 23.2502C6.11004 23.5925 5.95339 23.9119 5.6972 24.1401C5.44101 24.3683 5.10566 24.4871 4.76295 24.4711C4.42025 24.4551 4.09744 24.3055 3.86364 24.0545C3.62985 23.8034 3.50367 23.4707 3.51212 23.1277C3.60287 21.2244 4.20955 19.3815 5.2672 17.7964C6.32484 16.2113 7.79364 14.9437 9.51637 14.1292C8.41214 13.2082 7.61843 11.9694 7.24321 10.5813C6.86799 9.19314 6.92946 7.72314 7.41928 6.3712C7.9091 5.01927 8.80347 3.85103 9.98075 3.0254C11.158 2.19978 12.5611 1.75684 13.999 1.75684C15.4369 1.75684 16.84 2.19978 18.0172 3.0254C19.1945 3.85103 20.0889 5.01927 20.5787 6.3712C21.0685 7.72314 21.13 9.19314 20.7548 10.5813C20.3796 11.9694 19.5858 13.2082 18.4816 14.1292ZM18.3749 8.75149C18.3749 7.59117 17.9139 6.47837 17.0935 5.6579C16.273 4.83743 15.1602 4.37649 13.9999 4.37649C12.8395 4.37649 11.7267 4.83743 10.9063 5.6579C10.0858 6.47837 9.62487 7.59117 9.62487 8.75149C9.62487 9.91182 10.0858 11.0246 10.9063 11.8451C11.7267 12.6656 12.8395 13.1265 13.9999 13.1265C15.1602 13.1265 16.273 12.6656 17.0935 11.8451C17.9139 11.0246 18.3749 9.91182 18.3749 8.75149Z" fill="#383940"/>
</g>
</svg>
