<svg width="20" height="22" viewBox="0 0 20 22" fill="none" xmlns="http://www.w3.org/2000/svg">
<path d="M9.4165 10.3713C9.4165 10.0645 9.693 9.8335 9.99984 9.8335C10.3067 9.8335 10.5832 10.0645 10.5832 10.3713V20.9168C10.5832 21.0715 10.5217 21.2199 10.4123 21.3293C10.3029 21.4387 10.1545 21.5002 9.99984 21.5002C9.84513 21.5002 9.69675 21.4387 9.58736 21.3293C9.47796 21.2199 9.4165 21.0715 9.4165 20.9168V10.3713Z" fill="#383940"/>
<path fill-rule="evenodd" clip-rule="evenodd" d="M7.6665 6.33333C7.66657 5.81599 7.83848 5.31333 8.15524 4.90429C8.47199 4.49526 8.91564 4.20303 9.4165 4.0735V1.08333C9.4165 0.928624 9.47796 0.780251 9.58736 0.670854C9.69675 0.561458 9.84513 0.5 9.99984 0.5C10.1545 0.5 10.3029 0.561458 10.4123 0.670854C10.5217 0.780251 10.5832 0.928624 10.5832 1.08333V4.0735C11.1318 4.21684 11.6095 4.55496 11.9271 5.02473C12.2446 5.49449 12.3804 6.06378 12.3089 6.6263C12.2375 7.18881 11.9637 7.7061 11.5388 8.08157C11.1139 8.45703 10.5669 8.66501 9.99984 8.66667C9.381 8.66667 8.78751 8.42083 8.34992 7.98325C7.91234 7.54566 7.6665 6.95217 7.6665 6.33333ZM9.99984 7.5C10.3093 7.5 10.606 7.37708 10.8248 7.15829C11.0436 6.9395 11.1665 6.64275 11.1665 6.33333C11.1665 6.02391 11.0436 5.72717 10.8248 5.50838C10.606 5.28958 10.3093 5.16667 9.99984 5.16667C9.69042 5.16667 9.39367 5.28958 9.17488 5.50838C8.95609 5.72717 8.83317 6.02391 8.83317 6.33333C8.83317 6.64275 8.95609 6.9395 9.17488 7.15829C9.39367 7.37708 9.69042 7.5 9.99984 7.5ZM5.33317 15.6667C5.33307 16.1033 5.21047 16.5311 4.97933 16.9014C4.74818 17.2718 4.41775 17.5699 4.02561 17.7619C3.63347 17.9538 3.19535 18.0319 2.76105 17.9872C2.32675 17.9425 1.91369 17.7769 1.56884 17.5091C1.224 17.2414 0.961186 16.8822 0.810293 16.4725C0.6594 16.0629 0.626477 15.619 0.715266 15.1916C0.804056 14.7641 1.011 14.3701 1.31256 14.0544C1.61413 13.7387 1.99822 13.5139 2.42117 13.4057C2.41814 13.3817 2.41658 13.3575 2.4165 13.3333V1.08333C2.4165 0.928624 2.47796 0.780251 2.58736 0.670854C2.69676 0.561458 2.84513 0.5 2.99984 0.5C3.15455 0.5 3.30292 0.561458 3.41232 0.670854C3.52171 0.780251 3.58317 0.928624 3.58317 1.08333V13.3333C3.58317 13.3578 3.58142 13.3818 3.5785 13.4057C4.08043 13.5344 4.52527 13.8264 4.84295 14.2357C5.16063 14.6451 5.33309 15.1485 5.33317 15.6667ZM4.1665 15.6667C4.1665 15.9761 4.04359 16.2728 3.8248 16.4916C3.606 16.7104 3.30926 16.8333 2.99984 16.8333C2.69042 16.8333 2.39367 16.7104 2.17488 16.4916C1.95609 16.2728 1.83317 15.9761 1.83317 15.6667C1.83317 15.3572 1.95609 15.0605 2.17488 14.8417C2.39367 14.6229 2.69042 14.5 2.99984 14.5C3.30926 14.5 3.606 14.6229 3.8248 14.8417C4.04359 15.0605 4.1665 15.3572 4.1665 15.6667Z" fill="#383940"/>
<path d="M16.9998 21.5C16.8451 21.5 16.6968 21.4385 16.5874 21.3291C16.478 21.2197 16.4165 21.0714 16.4165 20.9167V16.7878C16.4165 16.481 16.693 16.25 16.9998 16.25C17.3067 16.25 17.5832 16.481 17.5832 16.7878V20.9167C17.5832 21.0714 17.5217 21.2197 17.4123 21.3291C17.3029 21.4385 17.1545 21.5 16.9998 21.5Z" fill="#383940"/>
<path fill-rule="evenodd" clip-rule="evenodd" d="M17.0001 0.5C16.8453 0.5 16.697 0.561458 16.5876 0.670854C16.4782 0.780251 16.4167 0.928624 16.4167 1.08333V10.4902C15.8681 10.6335 15.3904 10.9716 15.0728 11.4414C14.7553 11.9112 14.6195 12.4804 14.691 13.043C14.7624 13.6055 15.0361 14.1228 15.4611 14.4982C15.886 14.8737 16.433 15.0817 17.0001 15.0833C17.5684 15.0839 18.1174 14.877 18.544 14.5015C18.9706 14.126 19.2455 13.6078 19.3171 13.044C19.3887 12.4802 19.2521 11.9096 18.9329 11.4394C18.6137 10.9692 18.1338 10.6317 17.5834 10.4902V1.08333C17.5834 0.928624 17.5219 0.780251 17.4125 0.670854C17.3031 0.561458 17.1548 0.5 17.0001 0.5ZM17.0001 11.5833C16.6906 11.5833 16.3939 11.7063 16.1751 11.925C15.9563 12.1438 15.8334 12.4406 15.8334 12.75C15.8334 13.0594 15.9563 13.3562 16.1751 13.575C16.3939 13.7938 16.6906 13.9167 17.0001 13.9167C17.3095 13.9167 17.6062 13.7938 17.825 13.575C18.0438 13.3562 18.1667 13.0594 18.1667 12.75C18.1667 12.4406 18.0438 12.1438 17.825 11.925C17.6062 11.7063 17.3095 11.5833 17.0001 11.5833Z" fill="#383940"/>
<path d="M2.4165 20.9165C2.4165 21.0712 2.47796 21.2196 2.58736 21.329C2.69675 21.4384 2.84513 21.4998 2.99984 21.4998C3.15455 21.4998 3.30292 21.4384 3.41232 21.329C3.52171 21.2196 3.58317 21.0712 3.58317 20.9165V19.7043C3.58317 19.3975 3.30667 19.1665 2.99984 19.1665C2.693 19.1665 2.4165 19.3975 2.4165 19.7043V20.9165Z" fill="#383940"/>
</svg>
