<svg width="28" height="24" viewBox="0 0 28 24" fill="none" xmlns="http://www.w3.org/2000/svg">
<path d="M4.66667 18C4.66667 16.9391 5.15834 15.9217 6.03351 15.1716C6.90868 14.4214 8.09566 14 9.33334 14H18.6667C19.9043 14 21.0913 14.4214 21.9665 15.1716C22.8417 15.9217 23.3333 16.9391 23.3333 18C23.3333 18.5304 23.0875 19.0391 22.6499 19.4142C22.2123 19.7893 21.6188 20 21 20H7.00001C6.38117 20 5.78767 19.7893 5.35009 19.4142C4.9125 19.0391 4.66667 18.5304 4.66667 18Z" stroke="white" stroke-width="1.5" stroke-linejoin="round"/>
<path d="M14 10C15.933 10 17.5 8.65685 17.5 7C17.5 5.34315 15.933 4 14 4C12.067 4 10.5 5.34315 10.5 7C10.5 8.65685 12.067 10 14 10Z" stroke="white" stroke-width="1.5"/>
</svg>
