<svg width="10" height="17" viewBox="0 0 10 17" fill="none" xmlns="http://www.w3.org/2000/svg">
<path d="M1.59999 4.28333C0.933327 4 0.649994 3.175 1.04999 2.575C1.85833 1.375 3.20833 0.5 4.99166 0.5C6.94999 0.5 8.29166 1.39167 8.97499 2.50833C9.55833 3.46667 9.89999 5.25833 8.99999 6.59167C7.99999 8.06667 7.04166 8.51667 6.52499 9.46667C6.39999 9.69167 6.32499 9.875 6.27499 10.25C6.19999 10.8583 5.69999 11.3333 5.08333 11.3333C4.35833 11.3333 3.76666 10.7083 3.84999 9.98333C3.89999 9.55833 3.99999 9.11667 4.23333 8.7C4.87499 7.54167 6.10833 6.85833 6.82499 5.83333C7.58333 4.75833 7.15833 2.75 5.00833 2.75C4.03333 2.75 3.39999 3.25833 3.00833 3.86667C2.71666 4.34167 2.10833 4.49167 1.59999 4.28333ZM6.66666 14.6667C6.66666 15.5833 5.91666 16.3333 4.99999 16.3333C4.08333 16.3333 3.33333 15.5833 3.33333 14.6667C3.33333 13.75 4.08333 13 4.99999 13C5.91666 13 6.66666 13.75 6.66666 14.6667Z" fill="#383940"/>
</svg>
