<svg width="28" height="28" viewBox="0 0 28 28" fill="none" xmlns="http://www.w3.org/2000/svg">
<path d="M8.162 7.6302C7.168 8.14353 6.43533 9.02553 6.09933 10.1129C5.76333 11.1955 5.866 12.3295 6.39333 13.3095C6.73867 13.9535 7.476 14.8355 8.90867 14.8355C9.39867 14.8355 9.968 14.7329 10.6353 14.4809C10.878 14.3922 10.9993 14.1215 10.906 13.8789C10.8127 13.6362 10.5467 13.5149 10.304 13.6082C8.79667 14.1775 7.784 13.9349 7.21 12.8662C6.804 12.1102 6.72467 11.2329 6.986 10.3882C7.24733 9.53887 7.81667 8.85753 8.58667 8.46087C10.5093 7.47153 13.1273 8.01287 14.8167 8.55887C14.5553 8.7222 14.322 8.93687 14.1447 9.20753C12.6373 11.4802 10.8733 16.0069 10.1873 17.8502C10.108 18.0602 9.954 18.2282 9.75333 18.3215L6.61733 19.7869C6.118 20.0202 5.84733 20.5615 5.95933 21.1029C6.02467 21.4202 6.22067 21.7002 6.50067 21.8682C6.776 22.0362 7.11667 22.0875 7.42933 22.0035L11.7367 20.8462C12.236 20.7109 12.656 20.3655 12.88 19.8989L13.7387 18.1209L14.4947 20.1135C14.5927 20.3749 14.616 20.6549 14.5553 20.9302L13.8693 24.0569C13.79 24.4069 13.86 24.7662 14.056 25.0695C14.252 25.3729 14.5553 25.5735 14.9053 25.6435C14.9893 25.6575 15.078 25.6669 15.1667 25.6669C15.764 25.6669 16.3007 25.2655 16.45 24.6635L17.4347 20.7482C17.5467 20.3002 17.5607 19.8242 17.4673 19.3669L16.618 15.1669L17.2807 13.5195L17.8547 14.4342C17.9247 14.5462 18.0413 14.6255 18.172 14.6442C18.2 14.6489 18.2233 14.6489 18.2513 14.6489C18.354 14.6489 18.4567 14.6115 18.5407 14.5462L21.6393 12.0915C22.1013 11.7275 22.232 11.0882 21.952 10.5749C21.798 10.2855 21.5367 10.0802 21.224 9.98687C20.9113 9.8982 20.58 9.93553 20.2953 10.0942L18.97 10.8409L18.1673 9.65087C17.9527 9.09553 17.528 8.6242 16.94 8.3722C16.9353 8.3722 16.9353 8.36753 16.9307 8.36287C16.7113 8.26953 11.6433 5.8382 8.162 7.6302ZM15.6753 15.2182L16.5527 19.5582C16.618 19.8755 16.6087 20.2115 16.5293 20.5242L15.5447 24.4349C15.4933 24.6402 15.2927 24.7662 15.0873 24.7242C14.9847 24.7055 14.8913 24.6449 14.8353 24.5515C14.7747 24.4629 14.756 24.3555 14.7793 24.2529L15.4653 21.1262C15.5633 20.6782 15.5307 20.2115 15.3673 19.7775L14.2287 16.7675C14.1633 16.5949 14 16.4735 13.8133 16.4689C13.8087 16.4689 13.7993 16.4689 13.7947 16.4689C13.6173 16.4689 13.454 16.5715 13.3747 16.7349L12.0447 19.4882C11.9373 19.7122 11.7367 19.8755 11.4987 19.9409L7.19133 21.0982C7.098 21.1215 7.028 21.0889 6.99533 21.0702C6.96267 21.0469 6.902 21.0002 6.87867 20.9069C6.85533 20.7902 6.91133 20.6782 7.01867 20.6269L10.1547 19.1615C10.5793 18.9609 10.906 18.6109 11.0693 18.1722C11.5967 16.7582 13.4307 11.9702 14.9287 9.72087C15.2787 9.1982 15.96 8.9882 16.548 9.2262C17.234 9.50153 17.57 10.2855 17.2947 10.9762L15.6987 14.9522C15.6613 15.0362 15.6567 15.1295 15.6753 15.2182ZM19.0493 11.8722L20.7527 10.9109C20.818 10.8735 20.8927 10.8642 20.9627 10.8875C21.0327 10.9062 21.0933 10.9575 21.126 11.0182C21.1867 11.1349 21.1587 11.2795 21.056 11.3635L18.3633 13.4962L17.7053 12.4509L18.158 11.3215L18.4333 11.7275C18.5733 11.9282 18.8393 11.9935 19.0493 11.8722Z" fill="#383940"/>
<path d="M20.4353 5.1895C20.4353 3.61683 19.278 2.3335 17.8547 2.3335C16.4313 2.3335 15.274 3.61216 15.274 5.1895C15.274 6.76216 16.4313 8.0455 17.8547 8.0455C19.278 8.0455 20.4353 6.76216 20.4353 5.1895ZM16.2073 5.1895C16.2073 4.13016 16.9447 3.26683 17.8547 3.26683C18.7647 3.26683 19.502 4.13016 19.502 5.1895C19.502 6.24883 18.7647 7.11216 17.8547 7.11216C16.9447 7.11216 16.2073 6.24883 16.2073 5.1895Z" fill="#383940"/>
</svg>
