<svg width="20" height="20" viewBox="0 0 20 20" fill="none" xmlns="http://www.w3.org/2000/svg">
<path d="M18.25 18.2499L14.2689 14.2689M14.2689 14.2689C14.9499 13.5879 15.4901 12.7794 15.8586 11.8897C16.2272 11 16.4169 10.0463 16.4169 9.08328C16.4169 8.12023 16.2272 7.1666 15.8586 6.27686C15.4901 5.38712 14.9499 4.57868 14.2689 3.89769C13.5879 3.21671 12.7795 2.67653 11.8898 2.30799C11 1.93944 10.0464 1.74976 9.08334 1.74976C8.12029 1.74976 7.16667 1.93944 6.27692 2.30799C5.38718 2.67653 4.57874 3.21671 3.89776 3.89769C2.52245 5.273 1.74982 7.13831 1.74982 9.08328C1.74982 11.0282 2.52245 12.8936 3.89776 14.2689C5.27306 15.6442 7.13837 16.4168 9.08334 16.4168C11.0283 16.4168 12.8936 15.6442 14.2689 14.2689Z" stroke="#383940" stroke-width="1.83333" stroke-linecap="round" stroke-linejoin="round"/>
</svg>
