<svg width="28" height="28" viewBox="0 0 28 28" fill="none" xmlns="http://www.w3.org/2000/svg">
<g clip-path="url(#clip0_551_198)">
<path d="M11.8416 19.425C11.8416 18.6667 11.55 17.9667 11.025 17.3833L7.40831 13.7667C7.23331 13.5917 6.94164 13.5333 6.70831 13.5917C6.47498 13.65 6.24164 13.8833 6.18331 14.175C6.06664 14.7583 5.77497 16.0417 6.06664 17.0917L6.12498 17.2083L7.40831 18.4917L6.99998 18.55C6.41664 18.55 5.89164 18.3167 5.48331 17.9083L3.96664 16.3917V12.8333C3.96664 11.7833 3.32498 10.85 2.39164 10.4417C1.92498 10.2667 1.39998 10.15 0.933309 10.15H0.349976V17.2667C0.349976 17.85 0.583309 18.375 0.991642 18.7833L5.19164 22.9833V23.1583H3.61664V27.5917H13.1833V23.1583H11.8416V19.425ZM1.74998 18.025C1.57498 17.85 1.45831 17.6167 1.45831 17.325V11.4333C1.57498 11.4917 1.74998 11.4917 1.86664 11.55C2.39164 11.7833 2.74164 12.3083 2.74164 12.8333V16.9167L4.60831 18.7833C5.24998 19.425 6.12498 19.775 6.99998 19.775L8.45831 19.5417C8.69164 19.4833 8.92497 19.3083 8.98331 19.075C9.04164 18.8417 8.98331 18.55 8.80831 18.375L7.05831 16.625C6.94164 16.1583 6.99998 15.6333 7.05831 15.1667L10.0916 18.2C10.4416 18.55 10.6166 18.9583 10.6166 19.425V23.275H6.24164V23.1C6.24164 22.75 6.12498 22.4583 5.89164 22.225L1.74998 18.025ZM11.9583 24.4417V26.5417H4.78331V24.4417H5.13331H11.8416H11.9583ZM25.6666 10.5C24.7333 10.9083 24.0916 11.8417 24.0916 12.8917V16.45L22.575 17.9667C22.1666 18.375 21.6416 18.6083 21.0583 18.6083L20.65 18.55L21.9333 17.2667L21.9916 17.15C22.2833 16.0417 22.05 14.8167 21.875 14.175C21.8166 13.9417 21.6416 13.7083 21.35 13.65C21.1166 13.5917 20.825 13.65 20.65 13.825L17.0333 17.4417C16.5083 17.9667 16.2166 18.725 16.2166 19.4833V23.3333H14.875V27.7667H24.4416V23.3333H22.925V23.1L27.125 18.9C27.5333 18.4917 27.7666 17.9667 27.7666 17.3833V10.2083H27.1833C26.6 10.2083 26.1333 10.325 25.6666 10.5ZM23.2166 24.4417V26.5417H16.0416V24.4417H16.2166H22.925H23.2166ZM26.5416 17.325C26.5416 17.6167 26.425 17.85 26.25 18.025L22.05 22.225C21.8166 22.4583 21.7 22.75 21.7 23.1V23.275H17.325V19.425C17.325 18.9583 17.5 18.55 17.85 18.2L20.8833 15.1667C20.9416 15.6333 21 16.1583 20.8833 16.625L19.1333 18.375C18.9583 18.55 18.9 18.8417 18.9583 19.075C19.0166 19.3083 19.25 19.4833 19.4833 19.5417L20.8833 19.775H21C21.9333 19.775 22.75 19.425 23.3916 18.7833L25.2583 16.9167V12.8917C25.2583 12.3083 25.6083 11.7833 26.1333 11.6083C26.25 11.55 26.425 11.4917 26.5416 11.4917V17.325ZM14.175 4.14165C12.075 4.02499 10.325 5.65832 10.2083 7.75832C10.15 8.74999 10.5 9.74165 11.2 10.5C11.9 11.2583 12.8333 11.6667 13.825 11.725C13.8833 11.725 13.9416 11.725 14 11.725C15.9833 11.725 17.675 10.15 17.7916 8.10832C17.9083 6.00832 16.275 4.25832 14.175 4.14165ZM13.8833 10.5583C13.1833 10.5 12.5416 10.2083 12.075 9.68332C11.6083 9.15832 11.375 8.51665 11.375 7.81665C11.4333 6.41665 12.6 5.30832 14 5.30832C14.0583 5.30832 14.1166 5.30832 14.1166 5.30832C15.575 5.36665 16.6833 6.59166 16.625 8.04999C16.5666 9.50832 15.3416 10.6167 13.8833 10.5583Z" fill="white"/>
<path d="M21.6417 9.15832V6.59166L20.125 6.24166C20.0083 5.71666 19.775 5.24999 19.4833 4.72499L20.3 3.38332L18.4333 1.57499L17.0917 2.39166C16.625 2.09999 16.1 1.92499 15.575 1.80832L15.225 0.291656H12.6583L12.3083 1.80832C11.7833 1.92499 11.3167 2.15832 10.7917 2.44999L9.45 1.63332L7.7 3.49999L8.51667 4.84166C8.225 5.30832 8.05 5.83332 7.875 6.35832L6.35834 6.70832V9.27499L7.875 9.62499C7.99167 10.15 8.225 10.6167 8.51667 11.1417L7.7 12.4833L9.56667 14.2917L10.9083 13.475C11.375 13.7667 11.9 13.9417 12.425 14.0583L12.775 15.575H15.3417L15.6917 14.0583C16.2167 13.9417 16.6833 13.7083 17.2083 13.4167L18.55 14.2333L20.3583 12.3667L19.5417 11.025C19.8333 10.5583 20.0083 10.0333 20.125 9.50832L21.6417 9.15832ZM19.1333 8.57499L19.075 8.92499C18.9583 9.56666 18.725 10.15 18.375 10.7333L18.2 11.025L18.9 12.1917L18.375 12.7167L17.2083 12.0167L16.9167 12.25C16.3917 12.6 15.75 12.8917 15.1667 13.0083L14.8167 13.0667L14.525 14.4083H13.7667L13.4167 13.0667L13.0667 13.0083C12.425 12.8917 11.8417 12.6583 11.2583 12.3083L10.9667 12.1333L9.8 12.8333L9.21667 12.25L9.91667 11.0833L9.68334 10.7917C9.33334 10.2667 9.04167 9.62499 8.925 9.04166L8.86667 8.69166L7.525 8.39999V7.64166L8.86667 7.29166L8.925 6.94166C9.04167 6.29999 9.275 5.71666 9.625 5.13332L9.8 4.84166L9.1 3.67499L9.625 3.14999L10.7917 3.84999L11.0833 3.61666C11.6083 3.26666 12.25 2.97499 12.8333 2.85832L13.1833 2.79999L13.475 1.45832H14.2333L14.5833 2.79999L14.9333 2.85832C15.575 2.97499 16.1583 3.20832 16.7417 3.55832L17.0333 3.73332L18.2 3.03332L18.725 3.55832L18.025 4.72499L18.2583 5.01666C18.6083 5.54166 18.9 6.18332 19.0167 6.76666L19.075 7.11666L20.4167 7.40832V8.16666L19.1333 8.57499Z" fill="white"/>
</g>
<defs>
<clipPath id="clip0_551_198">
<rect width="28" height="28" fill="white"/>
</clipPath>
</defs>
</svg>
