<svg width="24" height="26" viewBox="0 0 24 26" fill="none" xmlns="http://www.w3.org/2000/svg">
<path d="M14.4253 0.75C14.6106 0.750006 14.791 0.808807 14.9407 0.917934C15.0904 1.02706 15.2016 1.18089 15.2583 1.35725L16.2208 4.348C16.6251 4.54575 17.0118 4.768 17.3811 5.01825L20.4541 4.35675C20.6353 4.31807 20.824 4.33789 20.9932 4.41337C21.1624 4.48885 21.3033 4.61608 21.3956 4.77675L23.8211 8.975C23.9137 9.13557 23.9529 9.32141 23.9331 9.50572C23.9133 9.69003 23.8355 9.86328 23.7108 10.0005L21.6021 12.328C21.6328 12.7743 21.6328 13.2222 21.6021 13.6685L23.7108 15.9995C23.8355 16.1367 23.9133 16.31 23.9331 16.4943C23.9529 16.6786 23.9137 16.8644 23.8211 17.025L21.3956 21.225C21.3031 21.3853 21.1621 21.5122 20.9929 21.5874C20.8237 21.6625 20.6351 21.6821 20.4541 21.6432L17.3811 20.9818C17.0136 21.2302 16.6251 21.4543 16.2226 21.652L15.2583 24.6427C15.2016 24.8191 15.0904 24.9729 14.9407 25.0821C14.791 25.1912 14.6106 25.25 14.4253 25.25H9.57432C9.38907 25.25 9.2086 25.1912 9.05891 25.0821C8.90921 24.9729 8.79801 24.8191 8.74132 24.6427L7.78057 21.6537C7.37741 21.4566 6.98854 21.2315 6.61682 20.98L3.54557 21.6432C3.36439 21.6819 3.1756 21.6621 3.0064 21.5866C2.8372 21.5112 2.69633 21.3839 2.60407 21.2233L0.178573 17.025C0.0859537 16.8644 0.0467229 16.6786 0.0665376 16.4943C0.0863523 16.31 0.164189 16.1367 0.288823 15.9995L2.39757 13.6685C2.36703 13.2234 2.36703 12.7766 2.39757 12.3315L0.288823 10.0005C0.164189 9.86328 0.0863523 9.69003 0.0665376 9.50572C0.0467229 9.32141 0.0859537 9.13557 0.178573 8.975L2.60407 4.775C2.69658 4.61465 2.83757 4.48778 3.00674 4.41263C3.17592 4.33747 3.36457 4.31791 3.54557 4.35675L6.61682 5.02C6.98782 4.76975 7.37632 4.544 7.78057 4.34625L8.74307 1.35725C8.79958 1.18145 8.91024 1.02804 9.05924 0.918962C9.20824 0.809887 9.38792 0.750745 9.57257 0.75H14.4236H14.4253ZM13.7848 2.5H10.2148L9.22082 5.59225L8.55057 5.9195C8.22108 6.08074 7.903 6.26434 7.59857 6.469L6.97907 6.889L3.80107 6.203L2.01607 9.297L4.19482 11.7085L4.14232 12.4505C4.11718 12.8164 4.11718 13.1836 4.14232 13.5495L4.19482 14.2915L2.01257 16.703L3.79932 19.797L6.97732 19.1128L7.59682 19.531C7.90125 19.7357 8.21933 19.9193 8.54882 20.0805L9.21907 20.4077L10.2148 23.5H13.7883L14.7858 20.406L15.4543 20.0805C15.7835 19.9196 16.101 19.736 16.4046 19.531L17.0223 19.1128L20.2021 19.797L21.9871 16.703L19.8066 14.2915L19.8591 13.5495C19.8843 13.183 19.8843 12.8152 19.8591 12.4487L19.8066 11.7067L21.9888 9.297L20.2021 6.203L17.0223 6.8855L16.4046 6.469C16.101 6.26393 15.7835 6.08031 15.4543 5.9195L14.7858 5.594L13.7866 2.5H13.7848ZM11.9998 7.75C13.3922 7.75 14.7276 8.30312 15.7121 9.28769C16.6967 10.2723 17.2498 11.6076 17.2498 13C17.2498 14.3924 16.6967 15.7277 15.7121 16.7123C14.7276 17.6969 13.3922 18.25 11.9998 18.25C10.6074 18.25 9.27208 17.6969 8.28751 16.7123C7.30295 15.7277 6.74982 14.3924 6.74982 13C6.74982 11.6076 7.30295 10.2723 8.28751 9.28769C9.27208 8.30312 10.6074 7.75 11.9998 7.75ZM11.9998 9.5C11.0716 9.5 10.1813 9.86875 9.52495 10.5251C8.86857 11.1815 8.49982 12.0717 8.49982 13C8.49982 13.9283 8.86857 14.8185 9.52495 15.4749C10.1813 16.1313 11.0716 16.5 11.9998 16.5C12.9281 16.5 13.8183 16.1313 14.4747 15.4749C15.1311 14.8185 15.4998 13.9283 15.4998 13C15.4998 12.0717 15.1311 11.1815 14.4747 10.5251C13.8183 9.86875 12.9281 9.5 11.9998 9.5Z" fill="#383940"/>
</svg>
