<svg width="27" height="28" viewBox="0 0 27 28" fill="none" xmlns="http://www.w3.org/2000/svg">
<path d="M10.8672 19.9746C11.4596 20.2754 11.9928 20.6445 12.4668 21.082C12.9408 21.5195 13.3509 22.0117 13.6973 22.5586C14.0436 23.1055 14.3034 23.6888 14.4766 24.3086C14.6497 24.9284 14.7409 25.5755 14.75 26.25H13C13 25.5299 12.8633 24.8509 12.5898 24.2129C12.3164 23.5749 11.9427 23.0189 11.4688 22.5449C10.9948 22.071 10.4342 21.6927 9.78711 21.4102C9.13997 21.1276 8.46094 20.9909 7.75 21C7.02083 21 6.3418 21.1367 5.71289 21.4102C5.08398 21.6836 4.52799 22.0573 4.04492 22.5312C3.56185 23.0052 3.18359 23.5658 2.91016 24.2129C2.63672 24.86 2.5 25.5391 2.5 26.25H0.75C0.75 25.5846 0.841146 24.9421 1.02344 24.3223C1.20573 23.7025 1.46549 23.1191 1.80273 22.5723C2.13997 22.0254 2.54557 21.5332 3.01953 21.0957C3.49349 20.6582 4.03125 20.2845 4.63281 19.9746C3.95833 19.4733 3.43424 18.8535 3.06055 18.1152C2.68685 17.377 2.5 16.5885 2.5 15.75C2.5 15.0299 2.63672 14.3509 2.91016 13.7129C3.18359 13.0749 3.55729 12.5189 4.03125 12.0449C4.50521 11.571 5.0612 11.1927 5.69922 10.9102C6.33724 10.6276 7.02083 10.4909 7.75 10.5C8.58854 10.5 9.37695 10.6868 10.1152 11.0605C10.8535 11.4342 11.4733 11.9583 11.9746 12.6328C12.321 11.9492 12.763 11.3385 13.3008 10.8008C13.8385 10.263 14.4492 9.82096 15.1328 9.47461C14.4583 8.97331 13.9342 8.35352 13.5605 7.61523C13.1868 6.87695 13 6.08854 13 5.25C13 4.52995 13.1367 3.85091 13.4102 3.21289C13.6836 2.57487 14.0573 2.01888 14.5312 1.54492C15.0052 1.07096 15.5612 0.692708 16.1992 0.410156C16.8372 0.127604 17.5208 -0.00911458 18.25 0C18.9701 0 19.6491 0.136719 20.2871 0.410156C20.9251 0.683594 21.4811 1.05729 21.9551 1.53125C22.429 2.00521 22.8073 2.56576 23.0898 3.21289C23.3724 3.86003 23.5091 4.53906 23.5 5.25C23.5 6.08854 23.3132 6.87695 22.9395 7.61523C22.5658 8.35352 22.0417 8.97331 21.3672 9.47461C21.9596 9.77539 22.4928 10.1445 22.9668 10.582C23.4408 11.0195 23.8509 11.5117 24.1973 12.0586C24.5436 12.6055 24.8034 13.1888 24.9766 13.8086C25.1497 14.4284 25.2409 15.0755 25.25 15.75H23.5C23.5 15.0299 23.3633 14.3509 23.0898 13.7129C22.8164 13.0749 22.4427 12.5189 21.9688 12.0449C21.4948 11.571 20.9342 11.1927 20.2871 10.9102C19.64 10.6276 18.9609 10.4909 18.25 10.5C17.5208 10.5 16.8418 10.6367 16.2129 10.9102C15.584 11.1836 15.028 11.5573 14.5449 12.0312C14.0618 12.5052 13.6836 13.0658 13.4102 13.7129C13.1367 14.36 13 15.0391 13 15.75C13 16.5885 12.8132 17.377 12.4395 18.1152C12.0658 18.8535 11.5417 19.4733 10.8672 19.9746ZM14.75 5.25C14.75 5.73307 14.8411 6.18424 15.0234 6.60352C15.2057 7.02279 15.4564 7.39648 15.7754 7.72461C16.0944 8.05273 16.4635 8.30339 16.8828 8.47656C17.3021 8.64974 17.7578 8.74089 18.25 8.75C18.7331 8.75 19.1842 8.65885 19.6035 8.47656C20.0228 8.29427 20.3965 8.04362 20.7246 7.72461C21.0527 7.4056 21.3034 7.03646 21.4766 6.61719C21.6497 6.19792 21.7409 5.74219 21.75 5.25C21.75 4.76693 21.6589 4.31576 21.4766 3.89648C21.2943 3.47721 21.0436 3.10352 20.7246 2.77539C20.4056 2.44727 20.0365 2.19661 19.6172 2.02344C19.1979 1.85026 18.7422 1.75911 18.25 1.75C17.7669 1.75 17.3158 1.84115 16.8965 2.02344C16.4772 2.20573 16.1035 2.45638 15.7754 2.77539C15.4473 3.0944 15.1966 3.46354 15.0234 3.88281C14.8503 4.30208 14.7591 4.75781 14.75 5.25ZM4.25 15.75C4.25 16.2331 4.34115 16.6842 4.52344 17.1035C4.70573 17.5228 4.95638 17.8965 5.27539 18.2246C5.5944 18.5527 5.96354 18.8034 6.38281 18.9766C6.80208 19.1497 7.25781 19.2409 7.75 19.25C8.23307 19.25 8.68424 19.1589 9.10352 18.9766C9.52279 18.7943 9.89648 18.5436 10.2246 18.2246C10.5527 17.9056 10.8034 17.5365 10.9766 17.1172C11.1497 16.6979 11.2409 16.2422 11.25 15.75C11.25 15.2669 11.1589 14.8158 10.9766 14.3965C10.7943 13.9772 10.5436 13.6035 10.2246 13.2754C9.9056 12.9473 9.53646 12.6966 9.11719 12.5234C8.69792 12.3503 8.24219 12.2591 7.75 12.25C7.26693 12.25 6.81576 12.3411 6.39648 12.5234C5.97721 12.7057 5.60352 12.9564 5.27539 13.2754C4.94727 13.5944 4.69661 13.9635 4.52344 14.3828C4.35026 14.8021 4.25911 15.2578 4.25 15.75ZM24.8125 28L20.875 24.9238L16.9375 28L18.5234 23.0781L14.75 20.125H19.4668L20.875 15.75L22.2832 20.125H27L23.2266 23.0781L24.8125 28Z" fill="white"/>
</svg>
