<svg width="22" height="21" viewBox="0 0 22 21" fill="none" xmlns="http://www.w3.org/2000/svg">
<path d="M21.2469 8.17821C21.1695 7.93232 21.0203 7.71522 20.8184 7.55483C20.6166 7.39444 20.3714 7.29811 20.1144 7.2782L14.54 6.79633C14.5063 6.79302 14.4741 6.78063 14.4469 6.76049C14.4197 6.74035 14.3984 6.71321 14.3853 6.68196L12.2075 1.49195C12.1067 1.25519 11.9384 1.05331 11.7237 0.911406C11.509 0.769504 11.2574 0.693848 11 0.693848C10.7427 0.693848 10.491 0.769504 10.2763 0.911406C10.0616 1.05331 9.89339 1.25519 9.79253 1.49195L7.61472 6.68196C7.60167 6.71321 7.5804 6.74035 7.55316 6.76049C7.52592 6.78063 7.49374 6.79302 7.46003 6.79633L1.88565 7.2782C1.62863 7.29811 1.38344 7.39444 1.18162 7.55483C0.979803 7.71522 0.830582 7.93232 0.753154 8.17821C0.671151 8.42444 0.663987 8.68946 0.73257 8.93976C0.801153 9.19006 0.942403 9.41441 1.13847 9.58446L5.36753 13.2735C5.39342 13.2965 5.41266 13.3261 5.42321 13.359C5.43377 13.392 5.43526 13.4273 5.42753 13.461L4.15628 18.9463C4.09702 19.1989 4.11393 19.4633 4.20486 19.7063C4.2958 19.9492 4.45669 20.1598 4.66722 20.3113C4.87447 20.4643 5.12282 20.5515 5.38017 20.5619C5.63753 20.5722 5.89209 20.5052 6.11097 20.3695L10.9025 17.4632C10.9307 17.4458 10.9632 17.4365 10.9963 17.4365C11.0294 17.4365 11.0619 17.4458 11.09 17.4632L15.8816 20.3695C16.1027 20.5049 16.3591 20.5717 16.6182 20.5616C16.8773 20.5515 17.1276 20.4648 17.3375 20.3126C17.5474 20.1603 17.7075 19.9493 17.7976 19.7062C17.8877 19.463 17.9038 19.1986 17.8438 18.9463L16.5763 13.4591C16.5685 13.4254 16.57 13.3902 16.5806 13.3572C16.5912 13.3242 16.6104 13.2946 16.6363 13.2716L20.8653 9.58258C21.0604 9.41224 21.2007 9.18801 21.2686 8.93812C21.3365 8.68822 21.3289 8.42382 21.2469 8.17821ZM20.1219 8.7332L15.8928 12.4223C15.7126 12.5791 15.5786 12.7821 15.5053 13.0094C15.4319 13.2367 15.422 13.4797 15.4766 13.7123L16.7441 19.1995C16.7535 19.2363 16.7514 19.2752 16.7382 19.3108C16.7249 19.3465 16.7012 19.3773 16.67 19.3991C16.6418 19.4217 16.6072 19.4347 16.5711 19.4362C16.535 19.4377 16.4994 19.4277 16.4694 19.4076L11.6778 16.5013C11.4736 16.3772 11.2391 16.3115 11 16.3115C10.761 16.3115 10.5265 16.3772 10.3222 16.5013L5.53065 19.4076C5.50067 19.4277 5.46504 19.4377 5.42896 19.4362C5.39288 19.4347 5.35822 19.4217 5.33003 19.3991C5.29888 19.3773 5.27512 19.3465 5.26189 19.3108C5.24866 19.2752 5.2466 19.2363 5.25597 19.1995L6.52347 13.7123C6.57803 13.4797 6.56811 13.2367 6.49476 13.0094C6.42141 12.7821 6.28741 12.5791 6.10722 12.4223L1.87815 8.7332C1.84923 8.70861 1.82846 8.67581 1.81858 8.63915C1.8087 8.60249 1.81019 8.56369 1.82284 8.52789C1.83231 8.49224 1.85284 8.46052 1.88147 8.43727C1.91011 8.41402 1.94538 8.40045 1.98222 8.39852L7.55753 7.91664C7.79621 7.89631 8.02478 7.81104 8.21846 7.67007C8.41214 7.52911 8.56355 7.33783 8.65628 7.11695L10.8341 1.92695C10.8492 1.89474 10.8732 1.86751 10.9033 1.84843C10.9333 1.82935 10.9682 1.81922 11.0038 1.81922C11.0394 1.81922 11.0742 1.82935 11.1043 1.84843C11.1343 1.86751 11.1583 1.89474 11.1735 1.92695L13.3438 7.11695C13.4362 7.3373 13.587 7.52823 13.78 7.66915C13.973 7.81008 14.2008 7.89565 14.4388 7.91664L20.0141 8.39852C20.0509 8.40045 20.0862 8.41402 20.1148 8.43727C20.1435 8.46052 20.164 8.49224 20.1735 8.52789C20.1866 8.56333 20.1886 8.60189 20.1794 8.63852C20.1702 8.67516 20.1502 8.70816 20.1219 8.7332Z" fill="black"/>
</svg>
