<svg width="28" height="28" viewBox="0 0 28 28" fill="none" xmlns="http://www.w3.org/2000/svg">
<path d="M14 6.42952C14.6545 6.42952 15.3055 6.84252 15.8014 7.66852L22.6987 19.1649C23.6915 20.8157 22.925 22.1667 21 22.1667H7.00002C5.07502 22.1667 4.30852 20.8145 5.30135 19.1649L12.1987 7.66852C12.6945 6.84252 13.3455 6.42952 14 6.42952ZM14 4.09619C12.488 4.09619 11.1044 4.95952 10.1979 6.46569L3.30052 17.9644C2.38352 19.4915 2.28319 21.1202 3.02635 22.4327C3.76952 23.7452 5.21852 24.5 7.00002 24.5H21C22.7815 24.5 24.2317 23.7464 24.9737 22.4339C25.7157 21.1214 25.6165 19.4927 24.6995 17.9655L17.8022 6.46919C16.8957 4.95952 15.512 4.09619 14 4.09619Z" fill="#383940"/>
<path d="M14 20.1832C14.8376 20.1832 15.5167 19.5042 15.5167 18.6666C15.5167 17.8289 14.8376 17.1499 14 17.1499C13.1624 17.1499 12.4833 17.8289 12.4833 18.6666C12.4833 19.5042 13.1624 20.1832 14 20.1832Z" fill="#383940"/>
<path d="M15.75 11.6665C15.75 10.6982 14.9672 9.9165 14 9.9165C13.7136 9.91655 13.4315 9.98696 13.1787 10.1215C12.9258 10.2561 12.7099 10.4507 12.5499 10.6883C12.3898 10.9259 12.2906 11.1991 12.2609 11.484C12.2312 11.7689 12.2719 12.0567 12.3795 12.3222C13.0258 13.9275 14 16.3332 14 16.3332L15.6228 12.3222C15.7022 12.1203 15.75 11.8987 15.75 11.6665Z" fill="#383940"/>
</svg>
