<svg width="28" height="28" viewBox="0 0 28 28" fill="none" xmlns="http://www.w3.org/2000/svg">
<path d="M12.25 14.5162L9.98375 12.25L8.75 13.4837L12.25 16.9837L19.25 9.98375L18.0163 8.75L12.25 14.5162Z" fill="white"/>
<path d="M14 26.25L8.59601 23.3686C7.05542 22.549 5.7671 21.3254 4.86931 19.829C3.97152 18.3326 3.49815 16.62 3.50001 14.875V3.5C3.50047 3.03601 3.68499 2.59116 4.01308 2.26307C4.34117 1.93499 4.78602 1.75046 5.25001 1.75H22.75C23.214 1.75046 23.6588 1.93499 23.9869 2.26307C24.315 2.59116 24.4995 3.03601 24.5 3.5V14.875C24.5019 16.62 24.0285 18.3326 23.1307 19.829C22.2329 21.3254 20.9446 22.549 19.404 23.3686L14 26.25ZM5.25001 3.5V14.875C5.24855 16.3028 5.63597 17.7041 6.37067 18.9284C7.10538 20.1527 8.15962 21.1538 9.42026 21.8242L14 24.2664L18.5798 21.8251C19.8405 21.1546 20.8949 20.1534 21.6296 18.9289C22.3643 17.7044 22.7516 16.303 22.75 14.875V3.5H5.25001Z" fill="white"/>
</svg>
