<svg width="32" height="32" viewBox="0 0 32 32" fill="none" xmlns="http://www.w3.org/2000/svg">
<path fill-rule="evenodd" clip-rule="evenodd" d="M23.6667 6.66667C23.6667 7.37391 23.3857 8.05219 22.8856 8.55229C22.3855 9.05238 21.7072 9.33333 21 9.33333C20.2928 9.33333 19.6145 9.05238 19.1144 8.55229C18.6143 8.05219 18.3333 7.37391 18.3333 6.66667C18.3333 5.95942 18.6143 5.28115 19.1144 4.78105C19.6145 4.28095 20.2928 4 21 4C21.7072 4 22.3855 4.28095 22.8856 4.78105C23.3857 5.28115 23.6667 5.95942 23.6667 6.66667ZM22.3333 6.66667C22.3333 7.02029 22.1929 7.35943 21.9428 7.60948C21.6928 7.85952 21.3536 8 21 8C20.6464 8 20.3072 7.85952 20.0572 7.60948C19.8071 7.35943 19.6667 7.02029 19.6667 6.66667C19.6667 6.31304 19.8071 5.97391 20.0572 5.72386C20.3072 5.47381 20.6464 5.33333 21 5.33333C21.3536 5.33333 21.6928 5.47381 21.9428 5.72386C22.1929 5.97391 22.3333 6.31304 22.3333 6.66667ZM7.33333 18.6667C7.33333 18.313 7.47381 17.9739 7.72386 17.7239C7.97391 17.4738 8.31304 17.3333 8.66667 17.3333H10.6667C11.0203 17.3333 11.3594 17.4738 11.6095 17.7239C11.8595 17.9739 12 18.313 12 18.6667V20H14C14.3536 20 14.6928 20.1405 14.9428 20.3905C15.1929 20.6406 15.3333 20.9797 15.3333 21.3333V26.6667C15.3333 27.0203 15.1929 27.3594 14.9428 27.6095C14.6928 27.8595 14.3536 28 14 28H5.33333C4.97971 28 4.64057 27.8595 4.39052 27.6095C4.14048 27.3594 4 27.0203 4 26.6667V21.3333C4 20.9797 4.14048 20.6406 4.39052 20.3905C4.64057 20.1405 4.97971 20 5.33333 20H7.33333V18.6667ZM5.33333 26.6667V21.3333H6.66667V26.6667H5.33333ZM10.6667 18.6667V20H8.66667V18.6667H10.6667ZM11.3333 21.3333H8V26.6667H11.3333V21.3333ZM12.6667 21.3333V26.6667H14V21.3333H12.6667Z" fill="white"/>
<path d="M25.3333 14.6666C25.3333 14.313 25.1929 13.9739 24.9428 13.7238C24.6928 13.4738 24.3536 13.3333 24 13.3333V16C24.3536 16 24.6928 15.8595 24.9428 15.6095C25.1929 15.3594 25.3333 15.0203 25.3333 14.6666Z" fill="white"/>
<path fill-rule="evenodd" clip-rule="evenodd" d="M18.6667 28C18.1362 28 17.6275 27.7893 17.2524 27.4142C16.8774 27.0392 16.6667 26.5305 16.6667 26V14.6667H13.3333C12.8029 14.6667 12.2942 14.456 11.9191 14.0809C11.544 13.7058 11.3333 13.1971 11.3333 12.6667C11.3333 12.1363 11.544 11.6275 11.9191 11.2525C12.2942 10.8774 12.8029 10.6667 13.3333 10.6667H24.6773C25.4193 10.6667 28 11.576 28 14.3807C28 16.6067 26.3753 17.9987 25.3333 18.4787V26C25.3333 26.5305 25.1226 27.0392 24.7475 27.4142C24.3725 27.7893 23.8638 28 23.3333 28C22.8029 28 22.2942 27.7893 21.9191 27.4142C21.544 27.0392 21.3333 26.5305 21.3333 26V20.6667H20.6667V26C20.6667 26.4674 20.5067 26.8974 20.2373 27.238C20.0504 27.4757 19.8118 27.6678 19.5397 27.7998C19.2676 27.9318 18.9691 28.0003 18.6667 28ZM24 17.6247L24.7753 17.2674C25.538 16.916 26.6667 15.9027 26.6667 14.3807C26.6667 13.4514 26.2633 12.8887 25.7947 12.5214C25.5671 12.3442 25.314 12.2026 25.044 12.1014C24.9271 12.0557 24.8058 12.0222 24.682 12.0014C24.6727 12 24.6713 12 24.6767 12H13.3333C13.1565 12 12.9869 12.0703 12.8619 12.1953C12.7369 12.3203 12.6667 12.4899 12.6667 12.6667C12.6667 12.8435 12.7369 13.0131 12.8619 13.1381C12.9869 13.2631 13.1565 13.3334 13.3333 13.3334H18V26C18 26.1768 18.0702 26.3464 18.1953 26.4714C18.3203 26.5964 18.4899 26.6667 18.6667 26.6667C18.8435 26.6667 19.013 26.5964 19.1381 26.4714C19.2631 26.3464 19.3333 26.1768 19.3333 26V19.3334H22.6667V26C22.6667 26.1768 22.7369 26.3464 22.8619 26.4714C22.9869 26.5964 23.1565 26.6667 23.3333 26.6667C23.5101 26.6667 23.6797 26.5964 23.8047 26.4714C23.9298 26.3464 24 26.1768 24 26V17.6247Z" fill="white"/>
</svg>
