<svg width="28" height="28" viewBox="0 0 28 28" fill="none" xmlns="http://www.w3.org/2000/svg">
<g id="mdi:eye-off-outline">
<path id="Vector" d="M2.33329 6.14841L3.82663 4.66675L23.3333 24.1734L21.8516 25.6667L18.2583 22.0734C16.9166 22.5167 15.4933 22.7501 14 22.7501C8.16663 22.7501 3.18496 19.1217 1.16663 14.0001C1.97163 11.9467 3.25496 10.1384 4.88829 8.70341L2.33329 6.14841ZM14 10.5001C14.9282 10.5001 15.8185 10.8688 16.4748 11.5252C17.1312 12.1816 17.5 13.0718 17.5 14.0001C17.5005 14.3974 17.4335 14.7919 17.3016 15.1667L12.8333 10.6984C13.2081 10.5666 13.6026 10.4995 14 10.5001ZM14 5.25008C19.8333 5.25008 24.815 8.87841 26.8333 14.0001C25.8811 16.4188 24.2631 18.5182 22.1666 20.0551L20.51 18.3867C22.1233 17.2707 23.4245 15.7606 24.29 14.0001C23.3468 12.075 21.8825 10.4531 20.0634 9.31884C18.2444 8.18453 16.1437 7.58327 14 7.58341C12.7283 7.58341 11.48 7.79341 10.3133 8.16675L8.51663 6.38175C10.1966 5.65841 12.0516 5.25008 14 5.25008ZM3.70996 14.0001C4.65314 15.9252 6.11746 17.547 7.93648 18.6813C9.7555 19.8156 11.8563 20.4169 14 20.4167C14.805 20.4167 15.5983 20.3351 16.3333 20.1717L13.6733 17.5001C12.8615 17.4131 12.1039 17.0508 11.5266 16.4734C10.9493 15.8961 10.587 15.1386 10.5 14.3267L6.53329 10.3484C5.37829 11.3401 4.40996 12.5767 3.70996 14.0001Z" fill="#383940"/>
</g>
</svg>
