<svg width="56" height="73" viewBox="0 0 56 73" fill="none" xmlns="http://www.w3.org/2000/svg">
<path d="M7.6869 26.4222C6.46628 24.6678 5.97628 23.014 7.17065 22.0122C8.18128 21.1634 9.66878 21.0015 11.5063 23.1234C11.5063 23.1234 16.9969 29.5022 18.8869 31.274C19.3157 31.6722 19.8494 31.7334 20.335 31.2303C20.7463 30.8015 20.5975 30.4297 20.2475 29.9178C20.2475 29.9178 12.5082 18.4115 11.4932 17.0072C9.80003 14.6578 10.4519 13.1397 11.235 12.4178C12.3244 11.4072 14.2407 11.2059 16.0213 13.6472L25.3925 26.1903C25.6769 26.4922 26.1363 26.5359 26.4732 26.2997L26.6044 26.2078C26.95 25.9628 27.0507 25.4947 26.8407 25.1272C25.2 22.2703 18.6725 10.8865 17.7144 8.81279C16.6119 6.41966 17.0844 5.20341 18.2525 4.49904C19.6394 3.66341 20.9432 3.72466 22.5007 6.03904C24.1894 8.55904 30.7475 19.1684 32.4144 22.0209C32.6332 22.3928 33.1013 22.5328 33.4863 22.3447C33.4907 22.3403 33.4994 22.3403 33.5038 22.3359C33.8713 22.1565 34.2038 21.7934 34.0507 21.2772C33.1407 18.2759 28.6738 8.93091 27.7375 6.78279C26.4557 3.84716 27.0813 2.84966 28.4069 2.17591C29.7982 1.47154 31.2463 2.02716 32.2307 3.98716C32.8957 5.31716 44.5725 26.5665 44.5725 26.5665C44.4019 23.399 45.2025 21.1547 45.885 18.9015C47.1275 14.8022 50.1332 12.6715 52.3119 13.6297C53.445 14.1284 53.6507 15.1215 53.5282 15.8828C53.2832 17.3615 52.2419 21.9422 52.0407 25.5297C51.5682 33.9384 54.11 43.629 44.6382 49.719C38.2988 53.7965 31.5044 53.079 27.0157 49.9422C21.5732 46.1403 8.6844 27.8572 7.6869 26.4222Z" fill="#FFCA28"/>
<path d="M51.4852 21.6496C50.6933 24.979 50.5883 29.0653 50.6146 30.8065C50.7196 37.5921 50.6846 43.4634 43.8814 48.8271C43.0458 49.4878 40.4252 51.0978 37.3758 51.9378C36.3958 52.2046 36.7677 52.5196 37.3714 52.4496C40.7008 52.0646 43.2252 50.6297 44.6296 49.724C54.097 43.634 51.7696 34.009 52.2421 25.6003C52.4433 22.0128 53.5371 16.369 53.5196 15.8834C53.4977 15.3978 52.2771 18.3203 51.4852 21.6496ZM33.9195 21.9996C33.9195 21.9996 33.2414 22.004 32.5983 21.1071C30.6689 18.4253 24.6183 8.29715 22.8771 5.81215C20.8908 2.97715 19.0402 4.06215 18.6202 4.28965C18.6202 4.28965 20.1427 4.34215 20.9827 5.58902C22.6977 8.1309 29.1989 19.5234 31.2508 21.969C32.5764 23.5484 33.9195 21.9996 33.9195 21.9996ZM9.9358 22.8615C10.5308 23.5003 15.7546 29.6996 17.6796 31.4278C19.3333 32.9109 20.567 31.0209 20.567 31.0209C20.567 31.0209 19.9589 31.104 19.1277 30.4784C17.0627 28.9165 12.1714 23.3471 11.0689 22.1746C9.43268 20.4334 7.91018 21.5228 7.58643 21.7196C7.5908 21.7196 8.52705 21.3565 9.9358 22.8615ZM26.9458 25.8015C26.9458 25.8015 26.3858 26.2084 25.3577 25.0053C24.6096 24.1259 16.0214 13.6478 16.0214 13.6478C13.8689 11.0184 12.1758 11.8015 11.8258 12.0028C11.8258 12.0028 12.9064 11.9459 14.1708 13.4028C14.7483 14.0678 23.9139 25.7534 24.2814 26.1515C25.6245 27.6171 26.8671 26.3571 26.9458 25.8015Z" fill="#EDA600"/>
<path d="M44.5375 24.3007C44.5375 24.3007 33.1581 5.22131 32.4318 3.92193C30.8175 1.03881 28.9406 1.92256 28.6212 2.06693C28.6212 2.06693 29.6668 1.76943 30.8962 3.86068C31.5525 4.97193 39.9131 20.0044 42.5818 24.8082C42.7918 25.7051 42.7743 26.8732 42.1006 27.6257C39.6856 30.3338 36.6056 33.0988 37.5112 39.9544C37.7387 41.6913 38.3818 43.3363 38.8587 44.1282C39.4625 45.1213 40.1581 44.7451 39.8518 44.0013C39.6462 43.4982 39.3181 42.3126 39.2525 41.8051C38.9462 39.4426 37.9137 35.3126 42.5425 30.3601C43.3256 29.5332 45.3162 27.0351 44.5375 24.3007Z" fill="#EDA600"/>
<path d="M45.2768 12.5452C44.6687 10.3883 43.7237 8.41079 42.4987 6.69579C41.3962 5.15142 40.0618 3.82142 38.5393 2.75392C38.3468 2.61829 38.1018 2.19829 38.3118 1.79142C38.5218 1.38454 38.9768 1.43704 39.1474 1.50704C41.0505 2.29017 42.608 3.64204 43.8943 5.49704C45.4212 7.70204 46.178 9.78017 46.5674 12.1033C46.6112 12.357 46.6024 12.8908 46.0599 13.0308C45.5218 13.1708 45.338 12.7552 45.2768 12.5452ZM42.3018 14.8595C41.6937 12.7027 40.7486 10.7252 39.5237 9.01017C38.4212 7.46579 37.0868 6.13579 35.5643 5.06829C35.3718 4.93267 35.1268 4.51267 35.3368 4.10579C35.5468 3.69454 36.0018 3.75142 36.1724 3.82142C38.0755 4.60454 39.633 5.95642 40.9193 7.81142C42.4462 10.0164 43.203 12.0945 43.5924 14.4177C43.6362 14.6714 43.6274 15.2052 43.0849 15.3452C42.5512 15.4852 42.363 15.0739 42.3018 14.8595ZM3.7449 32.8889C4.4974 35.002 5.56928 36.9095 6.90365 38.5414C8.10678 40.007 9.52428 41.2495 11.1124 42.2164C11.3137 42.3389 11.5849 42.7414 11.4012 43.1614C11.2174 43.5858 10.7624 43.5595 10.583 43.5027C8.63178 42.8464 6.98678 41.5995 5.5824 39.832C3.91553 37.732 3.01865 35.7108 2.47615 33.4183C2.4149 33.1645 2.38865 32.6352 2.9224 32.4602C3.45615 32.2852 3.67053 32.6833 3.7449 32.8889ZM6.55803 30.382C7.31053 32.4952 8.3824 34.4027 9.71678 36.0345C10.9199 37.5002 12.3374 38.7427 13.9255 39.7095C14.1268 39.832 14.398 40.2345 14.2143 40.6545C14.0305 41.0789 13.5755 41.0527 13.3962 40.9958C11.4449 40.3395 9.7999 39.0927 8.39553 37.3252C6.72865 35.2252 5.83178 33.2039 5.28928 30.9114C5.22803 30.6577 5.20178 30.1283 5.73553 29.9533C6.26928 29.7739 6.48365 30.1764 6.55803 30.382Z" fill="#B0BEC5"/>
</svg>
